<?xml version="1.0" encoding="UTF-8"?><svg id="_レイヤー_2" xmlns="http://www.w3.org/2000/svg" width="6.47" height="9" viewBox="0 0 6.47 9"><g id="_レイヤー_1-2"><path id="Map_Pin_Filed" d="M6.47,3.23c0-1.78-1.45-3.23-3.23-3.23S0,1.44,0,3.23c0,.65,.2,1.26,.53,1.77h0l.02,.02s0,0,0,0l.91,1.35,.75,1.12,.3,.44h0s.72,1.07,.72,1.07l.72-1.07h0s.63-.93,.63-.93l.36-.53h0s.07-.11,.07-.11c0,0,0,0,0,0l.9-1.34s0,0,0,0v-.02s.01,0,.01,0c.34-.51,.53-1.11,.53-1.77Zm-3.22,1.49c-.96,0-1.75-.78-1.75-1.74s.78-1.74,1.75-1.74,1.75,.78,1.75,1.74-.78,1.74-1.75,1.74Z"/></g></svg>