<?xml version="1.0" encoding="UTF-8"?><svg id="_レイヤー_2" xmlns="http://www.w3.org/2000/svg" width="55" height="65.11" viewBox="0 0 55 65.11"><defs><style>.cls-1,.cls-2,.cls-3{fill:#fff;}.cls-2{font-size:12px;}.cls-2,.cls-3{font-family:Montserrat-Medium, Montserrat;font-weight:500;}.cls-3{font-size:28px;}</style></defs><g id="_レイヤー_1-2"><g><path class="cls-1" d="M27.5,17.12c11.3,0,20.49,9.19,20.49,20.49s-9.19,20.49-20.49,20.49S7.01,48.91,7.01,37.61s9.19-20.49,20.49-20.49m0-1c-11.87,0-21.49,9.62-21.49,21.49s9.62,21.49,21.49,21.49,21.49-9.62,21.49-21.49-9.62-21.49-21.49-21.49h0Z"/><text class="cls-2" transform="translate(8.38 17.37) rotate(-34.47)"><tspan x="0" y="0">P</tspan></text><text class="cls-2" transform="translate(16 12.11) rotate(-13.85)"><tspan x="0" y="0">O</tspan></text><text class="cls-2" transform="translate(26.53 10.06) rotate(1.81)"><tspan x="0" y="0">I</tspan></text><text class="cls-2" transform="translate(31.01 9.9) rotate(17.23)"><tspan x="0" y="0">N</tspan></text><text class="cls-2" transform="translate(40.77 13.26) rotate(35.93)"><tspan x="0" y="0">T</tspan></text><text class="cls-3" transform="translate(19.19 48.53)"><tspan x="0" y="0">3</tspan></text></g></g></svg>