<?xml version="1.0" encoding="UTF-8"?><svg id="_レイヤー_2" xmlns="http://www.w3.org/2000/svg" width="91.86" height="68.77" xmlns:xlink="http://www.w3.org/1999/xlink" viewBox="0 0 91.86 68.77"><defs><style>.cls-1{fill:none;}.cls-2{letter-spacing:.05em;}.cls-3{clip-path:url(#clippath);}.cls-4,.cls-5{fill:#ff0;}.cls-6{letter-spacing:.04em;}.cls-5,.cls-7,.cls-8{stroke:#231815;stroke-miterlimit:10;stroke-width:.25px;}.cls-7{fill:#fff;}.cls-9{font-size:8px;}.cls-9,.cls-10{font-family:NotoSansJP-Bold-83pv-RKSJ-H, 'Noto Sans JP';font-weight:700;}.cls-10{font-size:13px;}.cls-11{letter-spacing:-.11em;}.cls-12{letter-spacing:-.04em;}.cls-13{letter-spacing:.03em;}</style><clipPath id="clippath"><rect class="cls-1" x="52.9" y="32.12" width="38.97" height="36.65"/></clipPath></defs><g id="_メニュー"><g><text class="cls-10" transform="translate(12.5 37.72)"><tspan class="cls-13" x="0" y="0">お</tspan><tspan class="cls-12" x="13.38" y="0">近</tspan><tspan class="cls-11" x="25.8" y="0">く</tspan><tspan class="cls-6" x="37.34" y="0">の</tspan><tspan class="cls-2"><tspan x=".14" y="16">展示場</tspan></tspan></text><g class="cls-3"><g><g><path class="cls-7" d="M77.9,44.9c-.32-.15-.69-.14-1.03-.07-1.24,.25-2.3,1.25-2.61,2.48-.12,.46,.15,1.06,.41,1.59,.25,.53,.7,1,1.27,1.14,.71,.18,1.44-.17,2.05-.57,.41-.27,.81-.58,1.01-1.03,.29-.65,.08-1.4-.13-2.07-.18-.58-.42-1.22-.97-1.48Z"/><path class="cls-7" d="M83.65,47.8c-.22-.57-.54-1.17-1.11-1.4-.37-.15-.78-.12-1.18-.09-.62,.05-1.23,.1-1.85,.16-.09,0-.18,.02-.25,.08-.08,.08-.09,.2-.1,.32-.08,.89-.79,1.57-1.45,2.17-.4,.36-.84,.74-1.37,.77-.69,.04-1.29-.55-1.51-1.21s-.12-1.38-.03-2.06c-1.41-.49-2.77-.47-3.99-.04-.6,.21-1.16,.51-1.77,.68-1.08,.29-2.25,.13-3.3,.51,.84-1.63,1.68-3.25,2.52-4.88,.16-.32,.33-.68,.19-1.01-.09-.21-.28-.35-.47-.48l-1.97-1.38c-1.76,1.76-2.71,3.87-3.68,6.12-.28,.67-.54,1.18-.62,1.9-.08,.72-.05,1.83,.36,2.43,.42,.62,.86,.84,1.59,1.03,.73,.2,1.49,.22,2.24,.24l5.59,.16c.3,3.13,.61,6.35,.91,9.48,.23-.06,13.34-.56,13.34-.56-.26-3.09-.64-6.6-1.22-9.65-.21-1.11-.45-2.23-.86-3.29Z"/><g><g><g><path class="cls-7" d="M80.73,40.57c0-.09,.05-.18,.09-.26,.23-.42,.22-.95,.08-1.41-.14-.46-.41-.88-.67-1.28,.17-.01,.35-.03,.52-.04-.04-1.24-.99-2.4-2.2-2.69,.02-.16,.21-.21,.37-.25,.15-.03,.34-.13,.31-.29-.02-.11-.14-.16-.25-.2-1.33-.42-2.83-.31-4.08,.31-1.05-.29-1.91-.12-2.65,.28-.09,.05-.18,.1-.22,.19-.04,.09,0,.22,.09,.24-.4,.24-.75,.56-1.03,.93-.07,.09-.13,.2-.11,.31,.03,.14,.2,.21,.35,.18,.14-.03,.26-.13,.37-.22-.66,.52-1.1,1.3-1.23,2.12-.11,.32-.14,.54-.11,.75,.16-.1,.29-.24,.39-.4-.14,.54-.13,1.11,.03,1.64,.17-.08,.33-.2,.44-.36,.04,.93,.07,1.87,.28,2.79,.21,.91,.61,1.8,1.28,2.45,.5,.49,1.15,.84,1.85,.98,1.12,.23,2.33-.09,3.24-.78,.91-.69,1.53-1.74,1.79-2.85,.57,.06,1.07-.17,1.31-.58,.24-.4,.19-.95-.1-1.32-.06-.08-.14-.15-.15-.25Z"/><g><path class="cls-8" d="M79.76,42.56c-.12-.03-.24,.05-.27,.17,0,.04-.84,3.6-4.08,3.49-1.15-.04-2.06-.45-2.7-1.21-1.42-1.68-1.17-4.51-1.06-5.34,.02-.12-.07-.24-.19-.25-.12-.02-.24,.07-.25,.19-.11,.87-.37,3.87,1.17,5.68,.73,.86,1.75,1.32,3.02,1.36,.06,0,.12,0,.17,0,3.49,0,4.36-3.81,4.37-3.84,.03-.12-.05-.24-.17-.27Z"/><path class="cls-8" d="M75.05,34.16c-1.18-.3-2.5,0-3.43,.79-.08,.07-.1,.18-.06,.27,.02,.05,.06,.08,.11,.1-.5,.33-.92,.79-1.19,1.32-.05,.09-.02,.2,.05,.27,.07,.07,.19,.08,.27,.02,.07-.04,.14-.08,.21-.12-.6,.69-.94,1.59-.94,2.51,0,.1,.06,.18,.16,.21,.09,.03,.19,0,.25-.08,0,0,0,0,0-.01-.1,.39-.13,.8-.09,1.2,0,.08,.06,.15,.14,.18,.03,.01,.06,.02,.09,.02,.05,0,.1-.02,.14-.05l.69-.54c.1-.08,.12-.22,.04-.31-.08-.1-.22-.12-.31-.04l-.35,.27c.02-.51,.18-1.02,.45-1.45,.06-.09,.04-.2-.03-.28s-.19-.09-.28-.04c-.14,.08-.27,.18-.39,.28,.17-.86,.68-1.65,1.41-2.15,.08-.06,.12-.16,.09-.26-.03-.1-.13-.16-.23-.15-.18,.01-.36,.05-.54,.1,.39-.44,.91-.77,1.47-.92,.1-.03,.17-.12,.17-.22,0-.1-.08-.19-.18-.21-.06-.01-.12-.02-.18-.03,.72-.35,1.57-.45,2.35-.26,.12,.03,.24-.04,.27-.16,.03-.12-.04-.24-.16-.27Z"/><path class="cls-8" d="M76.47,36.48c-.43,.48-.94,.89-1.5,1.21,.06-.21,.1-.42,.12-.63,0-.09-.04-.18-.13-.22s-.19-.02-.25,.04c-.54,.54-1.13,1.02-1.77,1.44l.23-.51c.04-.1,.01-.21-.08-.28-.09-.06-.21-.05-.29,.02-.5,.49-.86,1.1-1.04,1.78-.03,.12,.04,.24,.16,.28,.02,0,.04,0,.06,0,.1,0,.19-.07,.22-.17,.03-.13,.08-.25,.12-.37,.07,.04,.16,.05,.23,0,.7-.4,1.35-.87,1.96-1.4-.04,.13-.09,.25-.15,.37-.04,.08-.03,.19,.04,.26,.07,.07,.17,.09,.25,.05,.81-.37,1.56-.92,2.16-1.58,.08-.09,.08-.23-.02-.32-.09-.08-.23-.08-.32,.02Z"/><path class="cls-8" d="M78.93,34.94l.54-.07c.09-.01,.17-.08,.19-.17,.02-.09-.01-.18-.09-.24-1.07-.76-2.5-.94-3.72-.46-.12,.04-.17,.17-.13,.29,.04,.12,.17,.17,.29,.13,.87-.34,1.88-.3,2.73,.08l-.74,.09c-.11,.01-.19,.1-.2,.21,0,.11,.06,.2,.16,.23,1.2,.33,2.23,1.24,2.73,2.37l-.63-.19c-.1-.03-.2,.01-.25,.09-.05,.08-.05,.19,.02,.27,.56,.64,.89,1.5,.92,2.35l-.19-.15c-.1-.08-.24-.06-.32,.04-.08,.1-.06,.24,.04,.32l.54,.43s.09,.05,.14,.05c.03,0,.06,0,.09-.02,.08-.03,.13-.1,.14-.19,.08-.89-.14-1.81-.61-2.57l.42,.13c.08,.02,.17,0,.22-.06,.06-.06,.08-.15,.05-.22-.37-1.18-1.25-2.19-2.35-2.75Z"/><path class="cls-8" d="M80.04,39.86c-.11-.06-.25-.02-.3,.09l-.09,.18c-.3-.64-.51-1.32-.63-2.03-.02-.09-.09-.17-.18-.19-.1-.02-.19,.03-.23,.11l-.31,.55c-.32-.6-.5-1.27-.51-1.95,0-.12-.1-.22-.22-.22,0,0,0,0,0,0-.12,0-.22,.1-.22,.23,.02,.88,.29,1.77,.77,2.51,.04,.07,.12,.11,.2,.1,.08,0,.15-.05,.19-.11l.2-.36c.16,.68,.41,1.33,.75,1.95,.04,.07,.11,.12,.2,.12,.09-.01,.16-.05,.2-.12l.3-.56c.06-.11,.02-.25-.09-.3Z"/><path class="cls-8" d="M79.88,40.5c-.11,.06-.14,.2-.08,.31,.06,.11,.2,.14,.31,.08,.21-.12,.51,0,.67,.19,.22,.26,.27,.65,.12,.96-.15,.3-.49,.5-.83,.5-.12,0-.23,.09-.23,.22,0,.12,.09,.23,.22,.23,.02,0,.03,0,.05,0,.5,0,.98-.3,1.2-.75,.23-.47,.16-1.05-.18-1.44-.28-.33-.8-.54-1.24-.29Z"/></g></g><g><path class="cls-8" d="M73.31,40.52c-.19,0-.35,.15-.35,.35v.86c0,.19,.15,.35,.35,.35s.35-.15,.35-.35v-.86c0-.19-.15-.35-.35-.35Z"/><path class="cls-8" d="M76.63,40.52c-.19,0-.35,.15-.35,.35v.86c0,.19,.15,.35,.35,.35s.35-.15,.35-.35v-.86c0-.19-.15-.35-.35-.35Z"/><path class="cls-8" d="M74.71,42.2c-.12,0-.22,.1-.22,.23s.1,.22,.22,.22,.22-.1,.22-.22h0c0-.13-.1-.23-.22-.23Z"/><path class="cls-8" d="M73.97,43.44c-.1,.02-.17,.1-.17,.2-.03,.43,.13,1,.5,1.26,.22,.16,.5,.25,.77,.25,.16,0,.33-.03,.48-.09,.48-.19,.73-.65,.78-1.39,0-.05-.01-.11-.04-.15-.16-.21-2.29-.09-2.31-.08Zm1.41,1.2c-.27,.11-.59,.07-.82-.1-.17-.13-.28-.41-.31-.67,.38-.01,1.21-.02,1.61,0-.08,.55-.31,.71-.48,.78Z"/><path class="cls-8" d="M76.76,39.5c-.25-.02-.5,.06-.69,.22-.1,.08-.11,.22-.03,.32,.08,.1,.22,.11,.32,.03,.1-.08,.24-.13,.37-.12,.13,.01,.26,.08,.35,.17,.04,.05,.11,.08,.17,.08,.05,0,.11-.02,.15-.06,.09-.08,.1-.22,.02-.32-.16-.19-.4-.31-.65-.32Z"/><path class="cls-8" d="M73.1,39.5c-.25,.02-.48,.14-.65,.32-.08,.09-.07,.23,.02,.32,.04,.04,.1,.06,.15,.06,.06,0,.12-.03,.17-.08,.09-.1,.22-.16,.35-.17,.13,0,.27,.03,.37,.12,.1,.08,.24,.07,.32-.03,.08-.1,.07-.24-.03-.32-.19-.16-.44-.24-.69-.22Z"/></g></g><path class="cls-8" d="M75.34,46.53c-.04-.12-.17-.18-.28-.14-.12,.04-.18,.17-.14,.28l.54,1.65c.03,.09,.12,.15,.21,.15,.02,0,.05,0,.07-.01,.12-.04,.18-.17,.14-.28l-.54-1.65Z"/><path class="cls-8" d="M78.73,45.26c-.02-.12-.12-.21-.25-.2-.12,.02-.21,.13-.2,.25,.07,.55,.2,1.1,.38,1.62,.03,.09,.12,.15,.21,.15,.02,0,.05,0,.08-.01,.12-.04,.18-.17,.14-.29-.18-.49-.3-1.01-.36-1.53Z"/><path class="cls-8" d="M71.62,51.78c0-.06-.03-.12-.08-.16-.05-.04-.11-.06-.17-.05-.72,.06-3.52,0-5.03-.04h-.58c-.72-.03-2.16-.25-2.71-.55-.45-.24-.82-.69-1.02-1.21-.24-.62-.27-1.37-.09-2.23,.38-1.85,1.44-3.39,2.56-5.02,.5-.73,1.02-1.48,1.47-2.26,.93,.59,1.71,1.22,2.46,1.84l-3.03,6.1c-.06,.11,0,.25,.1,.3,.11,.06,.25,0,.3-.1l3.11-6.26c.05-.09,.02-.21-.06-.28-.86-.7-1.74-1.43-2.84-2.11-.05-.03-.12-.04-.17-.03-.06,.02-.11,.05-.14,.11-.46,.83-1.02,1.64-1.56,2.43-1.1,1.6-2.24,3.25-2.63,5.18-.19,.95-.15,1.79,.12,2.49,.25,.63,.68,1.15,1.23,1.45,.67,.37,2.23,.58,2.92,.59h.58c1.39,.05,3.86,.11,4.84,.07,.19,3.86,.57,7.2,1.06,9.44,.02,.1,.12,.18,.22,.18,.02,0,.03,0,.05,0,.12-.03,.2-.15,.17-.27-.49-2.26-.87-5.67-1.06-9.59Z"/><path class="cls-8" d="M74.83,46.24c-.66-.2-1.92-.42-2.66-.28-.42,.08-.89,.3-1.34,.51-.51,.24-1.04,.49-1.47,.52-.73,.06-1.33,.14-1.97,.22-.42,.05-.85,.11-1.35,.16-.12,.01-.21,.12-.2,.25,.01,.12,.11,.2,.22,.2,0,0,.02,0,.02,0,.5-.05,.94-.11,1.36-.17,.63-.08,1.22-.16,1.94-.21,.51-.04,1.08-.31,1.62-.56,.45-.21,.87-.41,1.23-.48,.66-.12,1.85,.09,2.45,.27,.12,.04,.24-.03,.28-.15s-.03-.24-.15-.28Z"/><g><g><path class="cls-7" d="M72.22,36.79c-.32,.17-.62,.37-.89,.6,.3-.2,.59-.4,.89-.6Z"/><path class="cls-7" d="M72.81,36.52c-.21,.07-.4,.16-.6,.26-.3,.2-.59,.4-.89,.6,.27-.24,.57-.44,.89-.6,.24-.16,.49-.33,.73-.49,.16-.11,.35-.28,.29-.47-.07-.22-.38-.22-.61-.16-.91,.26-1.73,.8-2.31,1.54,.34-.56,.95-1.01,1.63-1.28,.08-.03,.17-.06,.23-.13,.06-.06,.1-.16,.05-.24-.06-.1-.21-.1-.33-.08-1.08,.19-2.09,.77-2.84,1.65-.56,.41-.97,1.01-1.2,1.71-.44,.43-.84,.89-1.2,1.38l1.52,1.04c.38-.46,.8-.88,1.27-1.25,1.11,.07,2.92-.53,2.76-1.15-.12-.44-.92,.09-1.37,.14,.75-.32,1.48-.68,2.18-1.09,.17-.1,.36-.29,.24-.45-.09-.12-.28-.08-.42-.03-.39,.15-.76,.33-1.11,.54,.45-.24,.89-.49,1.34-.73,.12-.07,.25-.14,.33-.24,.09-.11,.12-.27,.05-.38-.12-.19-.41-.16-.62-.08Z"/></g><path class="cls-8" d="M73.32,36.27c.17-.2,.17-.37,.13-.5-.11-.35-.52-.41-.89-.31-.04,.01-.08,.02-.12,.04,0-.01-.01-.03-.02-.04-.06-.1-.2-.25-.56-.19-1.12,.2-2.17,.8-2.96,1.7-.56,.42-.99,1.02-1.24,1.75-.43,.42-.83,.88-1.19,1.37-.07,.1-.05,.24,.05,.31,.1,.07,.24,.05,.31-.05,.35-.48,.75-.93,1.18-1.35,.03-.03,.05-.06,.06-.09,.22-.67,.61-1.23,1.12-1.6,.01-.01,.03-.02,.04-.03,.7-.81,1.63-1.36,2.63-1.56-.75,.3-1.38,.8-1.73,1.37-.06,.1-.03,.23,.06,.3,.1,.07,.23,.05,.3-.04,.41-.52,.95-.94,1.55-1.22,.04-.02,.09-.04,.14-.06,.16-.07,.33-.13,.5-.18,.19-.05,.33-.02,.34,0,0,.01-.02,.09-.2,.21l-.69,.46c-.34,.18-.67,.4-.96,.65-.09,.08-.1,.21-.03,.31,.07,.09,.21,.11,.3,.05l.91-.62c.17-.09,.35-.16,.52-.22,.19-.07,.33-.06,.36-.01,.01,.02,0,.08-.04,.13-.06,.07-.16,.13-.27,.19l-.86,.47c-.16,.08-.33,.17-.48,.26-.1,.06-.14,.2-.08,.3,.06,.11,.19,.14,.3,.09l.47-.26c.2-.1,.41-.19,.62-.27,.05-.02,.09-.03,.11-.03-.03,.03-.07,.07-.13,.1-.69,.4-1.42,.77-2.15,1.08-.1,.04-.16,.15-.13,.26,.03,.11,.13,.18,.24,.17,.18-.02,.39-.09,.59-.16,.17-.06,.48-.17,.55-.14,0,.01,.02,.06-.05,.14-.32,.4-1.62,.77-2.47,.73-.05,0-.11,.01-.15,.05-.48,.38-.92,.81-1.31,1.28-.08,.1-.06,.24,.03,.32,.04,.03,.09,.05,.14,.05,.07,0,.13-.03,.17-.08,.35-.43,.74-.82,1.17-1.16,.92,.03,2.32-.35,2.76-.89,.18-.22,.17-.41,.14-.54-.03-.11-.09-.19-.15-.23,.29-.15,.57-.3,.85-.47,.08-.04,.33-.21,.38-.45,.02-.11,0-.23-.07-.32,0-.01-.02-.02-.03-.04,.06-.04,.12-.09,.16-.16,.15-.19,.18-.45,.07-.64-.07-.12-.18-.19-.31-.23Z"/></g><path class="cls-8" d="M70.07,37.4c-.12-.02-.24,.06-.26,.18-.1,.58-.57,1.09-1.15,1.23-.12,.03-.19,.15-.16,.27,.03,.1,.12,.17,.22,.17,.02,0,.04,0,.05,0,.75-.19,1.36-.84,1.49-1.59,.02-.12-.06-.24-.18-.26Z"/><path class="cls-8" d="M82.27,45.98c-.52-.14-1.03-.04-1.53,.06l-.25,.05c-.68,.12-1.14,.07-1.45-.18-.08-.06-.19-.07-.27,0-.08,.06-.11,.16-.08,.26,.1,.28,.22,.42,.33,.52-.36,.71-.8,1.37-1.31,1.97-.52,.61-.98,.89-1.44,.89h-.02c-.5-.01-.99-.41-1.2-.98-.22-.59-.16-1.26-.07-1.77,.02-.12-.06-.24-.19-.26-.12-.02-.24,.06-.26,.19-.09,.57-.16,1.31,.1,2,.23,.62,.82,1.25,1.61,1.27,.6,.02,1.19-.33,1.81-1.04,.58-.68,1.07-1.43,1.46-2.23,.02-.04,.03-.09,.02-.13,.37,.05,.74,0,1.04-.05l.25-.05c.47-.09,.91-.18,1.33-.07,.64,.17,1.13,.8,1.51,1.93,.49,1.44,1.11,5.49,1.85,12.02,.01,.11,.11,.2,.22,.2,0,0,.02,0,.03,0,.12-.01,.21-.13,.2-.25-.74-6.56-1.37-10.64-1.87-12.11-.43-1.27-1.02-2-1.82-2.21Z"/></g></g><g><path class="cls-7" d="M85.73,57.68c-.91-.51-1.64-.27-2.27-.04-.22,.08-.45,.17-.57,.36-.12,.18-.13,.41-.12,.62,0,.42,.04,.84,.09,1.26,.04,.3,.11,.64,.36,.81,.24,.16,.55,.12,.83,.05,.67-.17,1.33-.55,1.63-1.17,.12-.24,.18-.5,.18-.77,0-.14-.02-.29-.04-.43-.03-.23-.06-.47-.09-.7Z"/><path class="cls-5" d="M89.44,59.98c-.17-.58-.41-1.19-.9-1.54-.68-.48-1.6-.32-2.41-.14-.22,.62-.45,1.27-.91,1.75s-1.21,.91-1.8,.61c-.73-.38-.85-1.58-.56-2.35-1-.55-2.07-.14-3.14,.26-1.07,.4-1.75,.53-3.14,.53,.37-1.01,.65-2.1,1.01-3.11,.07-.19,.14-.58,.14-.58,0,0-.57-.62-.86-.85-.29-.23-.56-.44-.9-.57-1.8,1.55-2.73,3.72-2.82,5.94-.02,.49,0,1.02,.28,1.43,.4,.61,1.19,.81,1.92,.91,1.66,.23,3.35,.23,5.01-.01,.24,2.49,.38,4.64,.62,7.13,.04-.05,9.77-.09,9.77-.09-.14-1.38-.29-2.77-.43-4.15-.18-1.73-.36-3.48-.86-5.15Z"/><g><g><g><path class="cls-7" d="M88.49,51.13c-.06-.94-.37-1.91-1.05-2.57-.76-.73-1.87-.97-2.92-.99-1.07-.03-2.17,.14-3.13,.63-.96,.49-1.77,1.31-2.1,2.33-.33,1.02-.13,2.23,.62,3,0,1.26,.24,2.9,1.32,3.94,.92,.88,2.37,1.16,3.55,.66s2.01-1.72,2.02-2.99c.85,.14,1.41-.63,1.22-1.31,.35-.85,.51-1.79,.45-2.71Z"/><path class="cls-8" d="M87.47,48.45c-.34-.39-.81-.64-1.3-.79-.49-.15-1.01-.21-1.48-.18-1.27-.2-2.57-.06-3.82,.23-.3,.07-.62,.16-.81,.4-.19,.24-.15,.67,.14,.77-.72,.35-1.26,1.06-1.42,1.84s.08,1.64,.62,2.24c.13,.15,.3,.28,.49,.29,.23,0,.42-.19,.56-.37,.36-.43,.69-.88,1-1.34,.17,.12,.4,.14,.61,.09,.21-.05,.39-.17,.57-.28,.47-.31,.93-.66,1.35-1.04,.09-.08,.2-.17,.31-.14,.09,.02,.15,.1,.2,.17,.73,1.03,1.63,1.95,2.65,2.7,.38,.28,.81,.59,.9,1.06,.31-.36,.45-1.95,.47-2.42,.04-.99-.14-.88-.39-1.84-.13-.49-.31-.99-.64-1.38Z"/><path class="cls-8" d="M86.94,54.89c-.12-.01-.23,.07-.25,.2,0,.03-.38,2.94-2.99,3.09-.92,.05-1.67-.2-2.24-.75-1.26-1.23-1.28-3.52-1.26-4.19,0-.12-.09-.23-.22-.23-.13,0-.23,.09-.23,.22-.03,.72,0,3.17,1.39,4.53,.6,.59,1.38,.89,2.31,.89,.09,0,.18,0,.27,0,2.98-.18,3.4-3.45,3.41-3.49,.01-.12-.07-.23-.2-.25Z"/><path class="cls-8" d="M86.84,53.22c-.1,.07-.12,.21-.05,.31,.07,.1,.21,.13,.31,.05,.14-.1,.37-.03,.5,.1,.18,.18,.25,.48,.16,.72s-.33,.42-.59,.44c-.12,0-.22,.11-.21,.24,0,.12,.11,.21,.22,.21,0,0,0,0,.01,0,.44-.03,.83-.32,.99-.73,.15-.41,.05-.89-.26-1.2-.26-.26-.72-.39-1.07-.15Z"/><path class="cls-8" d="M84.58,47.26c-.12,0-.22,.11-.22,.23,0,.12,.1,.22,.23,.22,.89-.03,1.81,.33,2.45,.95,.64,.62,1.02,1.53,1.02,2.42,0,.12,.1,.22,.22,.23h0c.12,0,.22-.1,.22-.22,0-1.03-.42-2.03-1.16-2.75-.74-.72-1.75-1.1-2.78-1.07Z"/><path class="cls-8" d="M88.27,51.46c-.12,.04-.17,.17-.13,.29,.2,.51,.18,1.09-.04,1.6-.05,.11,0,.25,.12,.3,.03,.01,.06,.02,.09,.02,.09,0,.17-.05,.21-.13,.27-.61,.28-1.32,.04-1.94-.04-.12-.17-.17-.29-.13Z"/><path class="cls-8" d="M84.52,49.75c-.04-.07-.11-.11-.19-.12-.07,0-.15,.03-.2,.1-.49,.71-1.17,1.29-1.95,1.66-.14,.07-.31,.13-.43,.1-.04-.01-.08-.06-.09-.09,.01-.03,.02-.07,.03-.1,.03-.1-.01-.21-.11-.27-.09-.05-.21-.03-.28,.06-.06,.07-.09,.15-.1,.24-.27,.73-.76,1.39-1.38,1.86-.1,.08-.12,.22-.04,.31,.04,.06,.11,.09,.18,.09,.05,0,.1-.02,.14-.05,.58-.45,1.06-1.04,1.37-1.7,.05,.03,.1,.05,.15,.07,.27,.08,.53-.02,.75-.12,.75-.36,1.4-.88,1.91-1.53,.72,1.23,1.69,2.31,2.83,3.16,.1,.08,.24,.05,.31-.05,.07-.1,.05-.24-.05-.31-1.18-.88-2.17-2.03-2.87-3.32Z"/><path class="cls-8" d="M84.22,47.25c-1.27-.23-2.63-.07-3.81,.44-.27,.12-.57,.28-.71,.59-.09,.2-.07,.45,.04,.65,.01,.02,.03,.04,.04,.06-.79,.61-1.29,1.4-1.39,2.2-.13,.99,.46,2.2,1.55,2.4,.01,0,.03,0,.04,0,.11,0,.2-.08,.22-.18,.02-.12-.06-.24-.18-.26-.82-.16-1.29-1.13-1.18-1.9,.1-.77,.64-1.52,1.48-2.08,.08-.05,.12-.15,.09-.25-.03-.09-.11-.16-.2-.16-.03,0-.05-.02-.07-.05-.04-.07-.05-.16-.02-.23,.08-.17,.28-.28,.48-.36,1.1-.48,2.37-.63,3.55-.41,.12,.02,.24-.06,.26-.18,.02-.12-.06-.24-.18-.26Z"/></g><g><path class="cls-8" d="M81.52,53.03c-.19,0-.35,.15-.35,.35v.74c0,.19,.15,.35,.35,.35s.35-.15,.35-.35v-.74c0-.19-.15-.35-.35-.35Z"/><path class="cls-8" d="M84.38,53.03c-.19,0-.35,.15-.35,.35v.74c0,.19,.15,.35,.34,.35s.35-.15,.35-.35v-.74c0-.19-.15-.35-.34-.35Z"/><path class="cls-8" d="M82.73,54.49c-.12,0-.22,.1-.22,.23s.1,.22,.22,.22,.22-.1,.22-.22h0c0-.13-.1-.23-.22-.23Z"/><path class="cls-8" d="M82.08,55.56c-.1,.02-.17,.1-.17,.2-.03,.38,.12,.88,.44,1.12,.2,.14,.44,.22,.68,.22,.15,0,.29-.03,.42-.08,.42-.17,.65-.57,.69-1.22,0-.05-.01-.11-.04-.15-.16-.21-2-.09-2.02-.08Zm1.2,1.04c-.22,.09-.48,.06-.67-.08-.14-.1-.22-.32-.25-.52,.33,0,.97-.01,1.31,0-.07,.43-.25,.56-.39,.61Z"/><path class="cls-8" d="M84.49,52.17c-.22-.02-.45,.05-.62,.19-.1,.08-.11,.22-.03,.32,.08,.1,.22,.11,.32,.03,.08-.07,.19-.1,.3-.09,.1,0,.21,.06,.28,.14,.04,.05,.11,.08,.17,.08,.05,0,.11-.02,.15-.06,.09-.08,.1-.22,.02-.32-.15-.17-.36-.27-.58-.29Z"/><path class="cls-8" d="M81.34,52.17c-.22,.02-.43,.12-.58,.29-.08,.09-.07,.23,.02,.32,.04,.04,.1,.06,.15,.06,.06,0,.12-.03,.17-.08,.07-.08,.17-.13,.28-.14,.1-.01,.22,.03,.3,.09,.1,.08,.24,.07,.32-.03,.08-.1,.07-.24-.03-.32-.17-.14-.39-.21-.62-.19Z"/></g></g><g><g><path class="cls-7" d="M80.21,52.07c-.27,.11-.52,.25-.75,.42,.25-.14,.5-.28,.75-.42Z"/><path class="cls-7" d="M80.71,51.9c-.17,.04-.33,.1-.49,.16-.25,.14-.5,.28-.75,.42,.23-.17,.49-.31,.75-.42,.21-.11,.41-.23,.62-.34,.14-.08,.3-.2,.27-.36-.03-.19-.28-.22-.46-.18-.74,.13-1.43,.51-1.95,1.06,.32-.43,.83-.75,1.39-.91,.07-.02,.14-.04,.19-.08,.06-.04,.09-.13,.06-.19-.04-.09-.15-.1-.25-.09-.86,.06-1.71,.45-2.38,1.1-.47,.29-.85,.74-1.1,1.3-.38,.31-.27,.26-.6,.63,0,0,1.03,.7,1.32,.93,0,0,.32-.4,.42-.46,.87,.15,2.34-.18,2.26-.7-.05-.37-.73,0-1.09,0,.62-.19,1.22-.43,1.81-.7,.14-.07,.31-.21,.23-.34-.06-.11-.21-.09-.32-.06-.32,.09-.63,.2-.92,.34,.37-.16,.74-.32,1.11-.48,.1-.04,.21-.09,.28-.17s.12-.21,.08-.31c-.07-.17-.3-.17-.48-.12Z"/></g><path class="cls-8" d="M81.2,51.72c.13-.14,.15-.29,.13-.39-.02-.11-.08-.21-.18-.28-.19-.13-.45-.11-.55-.09-.02,0-.04,0-.06,.01,0,0,0,0,0,0-.04-.1-.16-.26-.47-.23-.91,.06-1.8,.47-2.5,1.15-.48,.3-.88,.76-1.14,1.34-.23,.19-.28,.24-.38,.37-.05,.06-.1,.13-.21,.25-.04,.05-.06,.11-.05,.18,0,.06,.04,.12,.1,.16,.01,0,1.02,.69,1.3,.92,.04,.03,.09,.05,.14,.05,.06,0,.13-.03,.17-.08,.11-.13,.24-.28,.32-.36,.73,.1,1.81-.09,2.23-.49,.19-.18,.2-.36,.19-.48-.01-.08-.04-.14-.07-.19,.22-.09,.44-.19,.66-.29,.07-.03,.29-.15,.36-.36,.03-.1,.02-.21-.03-.3,0,0,0,0,0,0,.04-.03,.08-.06,.12-.1,.15-.16,.2-.38,.12-.56-.04-.09-.11-.17-.19-.21Zm-.25,.46s-.13,.08-.21,.12l-.71,.31c-.14,.05-.28,.11-.41,.18-.11,.05-.16,.18-.11,.3,.05,.11,.18,.16,.29,.11l.39-.17c.08-.03,.16-.06,.23-.08-.51,.23-1.04,.43-1.57,.6-.11,.03-.17,.14-.15,.25,.02,.11,.11,.19,.22,.19,.15,0,.32-.04,.49-.09,.11-.03,.28-.07,.37-.07h0s-.03,.05-.05,.07c-.3,.29-1.3,.47-1.95,.36-.06,0-.11,0-.16,.03-.08,.05-.21,.2-.33,.34-.27-.2-.7-.49-.95-.67,.02-.03,.04-.05,.06-.07,.09-.11,.12-.14,.35-.34,.03-.02,.05-.05,.06-.08,.23-.53,.58-.94,1.01-1.2,.01,0,.03-.02,.04-.03,.51-.49,1.12-.83,1.76-.97-.46,.2-.85,.5-1.12,.85-.07,.1-.06,.23,.04,.31,.09,.08,.23,.07,.31-.02,.37-.38,.82-.68,1.31-.85,.04-.01,.08-.02,.12-.04,.13-.04,.26-.07,.4-.1,.04,0,.07,0,.1,0,.05,0,.09,0,.1,0,0,0-.02,.05-.16,.13l-.58,.32c-.29,.12-.57,.27-.82,.45-.1,.07-.12,.2-.06,.3,.06,.1,.19,.13,.3,.08l.77-.43c.14-.05,.28-.1,.42-.13,.13-.03,.21-.01,.22,0,0,.01,0,.04-.03,.07Z"/></g><path class="cls-8" d="M78.49,52.34c-.12-.03-.24,.04-.28,.16-.13,.45-.53,.82-.98,.88-.12,.02-.21,.13-.19,.25,.02,.11,.11,.19,.22,.19,.01,0,.02,0,.03,0,.62-.09,1.18-.59,1.35-1.21,.03-.12-.04-.24-.16-.28Z"/><g><path class="cls-8" d="M83.56,58.33c-.04-.12-.17-.17-.29-.13-.12,.04-.17,.17-.13,.29l.4,1.04c.03,.09,.12,.14,.21,.14,.03,0,.05,0,.08-.01,.12-.04,.17-.17,.13-.29l-.4-1.04Z"/><path class="cls-8" d="M85.71,57.81c-.02-.12-.14-.2-.26-.18-.12,.02-.2,.14-.18,.26,.05,.29,.15,.57,.29,.84,.04,.08,.12,.12,.2,.12,.04,0,.07,0,.1-.03,.11-.06,.15-.19,.09-.3-.12-.23-.2-.47-.25-.71Z"/><path class="cls-8" d="M80.54,62.39c0-.06-.03-.12-.08-.16-.05-.04-.11-.06-.17-.05-.52,.05-2.54,0-3.63-.03h-.44c-.52-.02-1.55-.19-1.94-.41-.31-.18-.58-.51-.72-.9-.17-.46-.19-1.03-.07-1.68,.41-2.1,1.07-3.46,2.41-4.96,.64,.43,1.07,.78,1.59,1.22-.34,.75-.56,1.41-.77,2.06-.22,.68-.45,1.38-.82,2.16-.05,.11,0,.25,.11,.3,.11,.05,.25,0,.3-.11,.38-.81,.62-1.52,.84-2.21,.22-.68,.45-1.38,.82-2.16,.04-.09,.02-.2-.06-.27-.61-.53-1.11-.94-1.92-1.47-.09-.06-.21-.04-.29,.04-1.47,1.6-2.21,3.09-2.65,5.32-.14,.73-.11,1.38,.09,1.93,.18,.5,.51,.9,.92,1.13,.5,.28,1.65,.45,2.16,.46h.44c1.04,.04,2.71,.08,3.45,.05,.14,2.93,.41,5.47,.77,7.17,.02,.11,.12,.18,.22,.18,.02,0,.03,0,.05,0,.12-.03,.2-.14,.17-.27-.36-1.73-.63-4.33-.77-7.33Z"/><path class="cls-8" d="M87.01,58.2c-.12-.04-.25,.01-.29,.13-.23,.62-.48,1.27-.85,1.82-.4,.59-.93,.99-1.48,1.13-.72,.18-1.54-.11-2-.7-.45-.6-.31-1.47-.11-2.38,.03-.12-.05-.24-.17-.27-.12-.03-.24,.05-.27,.17-.23,1.02-.38,2,.19,2.75,.44,.59,1.18,.93,1.91,.93,.18,0,.37-.02,.55-.07,.66-.17,1.27-.63,1.74-1.31,.41-.59,.66-1.26,.9-1.91,.04-.12-.02-.25-.13-.29Z"/><path class="cls-8" d="M77.42,55.93s-.03-.03-.05-.04c-.59-.54-1.24-1.02-1.94-1.41-.11-.06-.25-.02-.31,.08-.06,.11-.02,.24,.08,.31,.71,.4,1.37,.89,1.96,1.45,.04,.04,.1,.06,.15,.06s.12-.02,.16-.07c.09-.09,.09-.23,0-.31l-.07-.07Z"/><path class="cls-8" d="M82.84,58.1c-.49-.15-1.42-.32-1.97-.22-.31,.06-.66,.23-.99,.4-.37,.18-.74,.37-1.04,.39-.54,.04-.97,.1-1.44,.17-.3,.04-.62,.08-.98,.13-.12,.01-.21,.13-.2,.25,.01,.11,.11,.2,.22,.2,0,0,.02,0,.03,0,.37-.04,.68-.08,.99-.13,.46-.06,.89-.12,1.41-.16,.38-.03,.8-.24,1.21-.44,.31-.15,.63-.31,.88-.36,.42-.08,1.24,.04,1.75,.2,.12,.04,.24-.03,.28-.15,.04-.12-.03-.24-.15-.28Z"/><path class="cls-8" d="M88.25,57.91c-.39-.11-.78-.03-1.15,.04l-.18,.04c-.47,.09-.79,.05-1-.12-.08-.06-.19-.07-.27-.01-.08,.06-.12,.16-.08,.26,.07,.2,.14,.31,.23,.39-.25,.53-.57,1.02-.93,1.46-.36,.44-.69,.66-1,.66h-.02c-.34,0-.67-.3-.82-.71-.16-.44-.11-.95-.05-1.33,.02-.12-.07-.24-.19-.26-.12-.02-.24,.07-.26,.19-.07,.44-.12,1.02,.07,1.55,.18,.49,.63,.99,1.23,1.01,.47,.01,.91-.26,1.37-.82,.43-.52,.79-1.1,1.07-1.72,0-.02,.02-.04,.02-.06,.21,.02,.44,0,.71-.04l.18-.04c.33-.07,.65-.13,.93-.05,.44,.13,.79,.6,1.06,1.44,.35,1.1,.8,4.19,1.34,9.18,.01,.12,.11,.2,.22,.2,0,0,.02,0,.02,0,.12-.01,.21-.12,.2-.25-.54-5.02-1-8.14-1.36-9.27-.32-.99-.76-1.56-1.36-1.73Z"/><path class="cls-8" d="M87.35,62.41c-.12,.01-.21,.12-.2,.25l.68,6.53c.01,.12,.11,.2,.22,.2,0,0,.02,0,.02,0,.12-.01,.21-.12,.2-.25l-.68-6.53c-.01-.12-.12-.21-.25-.2Z"/></g></g></g><g><path class="cls-7" d="M75.99,58.75c-.8-.56-1.22,0-2.18-.19-.89-.19-2.35-1.08-3.26-1.14-.58-.04-1.14,.16-1.7,.31-2.96,.8-6.09,.21-9.09-.43,.82-1.45,1.26-3.13,1.25-4.8-1,.13-2.05-.46-2.45-1.39-1.65,2-2.73,4.54-3.17,7.19-.06,.37-.11,.76,.05,1.09,.24,.51,.84,.72,1.39,.87,2.56,.72,5.13,1.45,7.69,2.17,.73,2.24,1.89,5.11,3.09,7.14-.23,.13,11.34,0,11.34,0-.65-3.05-1.47-5.76-2.12-8.81-.16-.75-.19-1.58-.82-2.02Z"/><path class="cls-5" d="M73.37,63.64c-.21-.91-.1-1.86,0-2.78,.1-.89,.2-1.44,.52-2.28-.4-.14-.83-.56-1.26-.55-.16,0-.32,.02-.45,.11-.19,.13-.26,.37-.31,.6-.27,1.17-.49,2.35-.66,3.54-1.72,.17-3.42,.23-5.12,.22-.32-1.55-.34-3.17-.05-4.73-.34,.01-.68,.09-1,.23-1,3.8,.27,8.53,2.58,11.6-.05-.02,7.19,0,7.19,0-.15-1.37-.4-2.98-.86-4.28-.2-.56-.45-1.1-.58-1.67Z"/><path class="cls-7" d="M59.84,51.56c-.21-.17-.5-.3-.76-.23-.08,.02-.16,.07-.17,.16,0,.05,.03,.1,.06,.14,.16,.22,.33,.44,.55,.61s.51,.25,.77,.19c.04-.1,.08-.21,.13-.31-.18-.16-.36-.38-.57-.55Z"/><g><g><g><path class="cls-7" d="M71.87,46.3c-1.48-1.04-3.45-1.34-5.18-.82-1.74,.51-3.21,1.81-3.98,3.45-.68,1.44-.81,3.07-.79,4.66,.01,.8,.07,1.61,.33,2.37,.26,.76,.74,1.47,1.45,1.86,.7,.39,1.64,.4,2.27-.09,1.06,.61,2.65,.51,3.69-.33,.7,.73,1.87,.89,2.81,.52,.94-.37,1.64-1.21,2.02-2.14,.38-.93,.47-1.97,.43-2.97-.09-2.48-1.02-5.07-3.05-6.5Z"/><g><path class="cls-8" d="M71.97,52.04c-.11,.06-.14,.2-.08,.31,.06,.11,.2,.14,.31,.08,.25-.14,.6,0,.78,.22,.25,.3,.31,.75,.13,1.1-.17,.35-.55,.58-.95,.57-.12,0-.23,.09-.23,.22,0,.12,.09,.23,.22,.23,.02,0,.03,0,.05,0,.55,0,1.08-.33,1.32-.82,.25-.51,.17-1.15-.19-1.59-.3-.36-.88-.6-1.35-.32Z"/><path class="cls-8" d="M67.44,45.16c-1.89,.38-3.21,1.08-4.04,2.14-.63,.8-.94,1.77-1.18,2.7-.36,1.38-.53,2.53-.53,3.6,0,1.13,.19,2.05,.59,2.83,.49,.95,1.32,1.65,2.22,1.87,.02,0,.04,0,.05,0,.1,0,.19-.07,.22-.17,.03-.12-.04-.24-.16-.27-.78-.19-1.51-.81-1.93-1.64-.36-.71-.54-1.57-.54-2.62,0-1.03,.16-2.14,.51-3.48,.23-.88,.52-1.8,1.1-2.54,.76-.97,1.99-1.61,3.77-1.97,.12-.02,.2-.14,.17-.26-.02-.12-.14-.2-.26-.17Z"/><path class="cls-8" d="M73.22,47.16c-1.02-1.64-3.23-2.17-4.38-2.11-.12,0-.22,.11-.21,.23,0,.12,.11,.21,.23,.21,1.06-.05,3.06,.42,3.98,1.9,1.09,1.77,1.42,3.12,1.7,4.31,.32,1.33,.32,2.54-.01,3.61-.37,1.21-1.21,2.21-2.23,2.66-.11,.05-.16,.18-.11,.3,.04,.08,.12,.13,.21,.13,.03,0,.06,0,.09-.02,1.14-.5,2.07-1.6,2.48-2.94,.35-1.14,.36-2.44,.02-3.85-.29-1.22-.63-2.61-1.76-4.44Z"/><path class="cls-8" d="M72.99,56.23c-.12-.04-.25,.02-.29,.13-.26,.69-.82,1.24-1.52,1.48-.12,.04-.18,.17-.14,.29,.03,.09,.12,.15,.21,.15,.02,0,.05,0,.07-.01,.82-.28,1.49-.94,1.79-1.75,.04-.12-.02-.25-.13-.29Z"/><path class="cls-8" d="M71.72,56.47c-.12-.05-.25,.01-.29,.13-.18,.47-.54,.87-.98,1.1-.11,.06-.15,.19-.09,.3,.04,.08,.12,.12,.2,.12,.04,0,.07,0,.11-.03,.53-.29,.97-.77,1.19-1.34,.05-.12-.01-.25-.13-.29Z"/><path class="cls-8" d="M68.59,50.53c-.64-.12-1.24-.52-1.59-1.08-.35-.55-.46-1.26-.3-1.9,.03-.12-.04-.24-.16-.27-.12-.03-.24,.04-.27,.16-.2,.75-.07,1.59,.35,2.25,.42,.66,1.12,1.13,1.89,1.28,.01,0,.03,0,.04,0,.11,0,.2-.08,.22-.18,.02-.12-.06-.24-.18-.26Z"/><path class="cls-8" d="M70.58,50.82c-1.03-.44-1.79-1.53-1.84-2.65,0-.12-.11-.21-.23-.21-.12,0-.22,.11-.21,.23,.06,1.31,.91,2.53,2.12,3.04,.03,.01,.06,.02,.09,.02,.09,0,.17-.05,.21-.14,.05-.11,0-.25-.12-.29Z"/><path class="cls-8" d="M72.33,51.22c-1-.52-1.72-1.54-1.89-2.66-.02-.12-.14-.21-.26-.19-.12,.02-.21,.13-.19,.26,.19,1.25,1.01,2.4,2.13,2.98,.03,.02,.07,.03,.1,.03,.08,0,.16-.04,.2-.12,.06-.11,.02-.25-.09-.3Z"/><path class="cls-8" d="M66.54,48.84c-.11-.05-.25,0-.3,.11-.61,1.33-1.83,2.41-3.37,2.98-.12,.04-.18,.17-.13,.29,.03,.09,.12,.15,.21,.15,.03,0,.05,0,.08-.01,1.65-.61,2.96-1.78,3.62-3.21,.05-.11,0-.25-.11-.3Z"/><path class="cls-8" d="M71.87,54.62c-.12-.04-.24,.03-.28,.15-.04,.13-.96,3.26-4.51,3.06-3.27-.18-3.52-4.24-3.52-5.48,0-.12-.1-.22-.22-.22s-.22,.1-.22,.22c0,2.76,1.04,5.77,3.95,5.92,.11,0,.22,0,.33,0,3.62,0,4.62-3.36,4.63-3.39,.03-.12-.04-.24-.15-.28Z"/></g></g><g><path class="cls-8" d="M65.55,51.9c-.19,0-.35,.15-.35,.35v.87c0,.19,.15,.35,.34,.35h0c.19,0,.34-.15,.35-.34v-.88c0-.19-.15-.35-.34-.35Z"/><path class="cls-8" d="M68.92,51.9c-.19,0-.35,.15-.35,.35v.88c0,.19,.15,.35,.35,.35s.35-.15,.35-.35v-.88c0-.19-.15-.35-.35-.35Z"/><path class="cls-8" d="M66.98,53.6c-.12,0-.22,.1-.22,.23s.1,.22,.22,.22,.22-.1,.22-.22h0c0-.13-.1-.23-.22-.23Z"/><path class="cls-8" d="M66.23,54.86c-.1,.02-.17,.1-.17,.2-.03,.43,.13,1.01,.5,1.28,.22,.16,.5,.25,.78,.25,.17,0,.33-.03,.49-.09,.48-.2,.74-.66,.79-1.41,0-.05-.01-.11-.04-.15-.16-.21-2.32-.09-2.34-.08Zm1.43,1.22c-.27,.11-.6,.07-.83-.1-.18-.13-.29-.42-.31-.69,.39-.01,1.24-.02,1.63,0-.08,.57-.31,.73-.49,.8Z"/><path class="cls-8" d="M69.05,50.86c-.25-.02-.51,.06-.7,.22-.1,.08-.11,.22-.03,.32,.08,.1,.22,.11,.32,.03,.1-.08,.24-.13,.38-.12,.13,.01,.27,.08,.35,.18,.04,.05,.11,.08,.17,.08,.05,0,.11-.02,.15-.06,.09-.08,.1-.22,.02-.32-.17-.19-.41-.31-.66-.33Z"/><path class="cls-8" d="M65.34,50.86c-.25,.02-.49,.14-.66,.33-.08,.09-.07,.23,.02,.32,.04,.04,.1,.06,.15,.06,.06,0,.12-.03,.17-.08,.09-.1,.22-.17,.35-.18,.14-.01,.28,.03,.38,.12,.1,.08,.24,.07,.32-.03,.08-.1,.07-.24-.03-.32-.19-.16-.45-.24-.7-.22Z"/></g></g><g><g><g><path class="cls-7" d="M64.16,48.14c-.3,.16-.58,.35-.83,.57,.28-.19,.56-.38,.83-.57Z"/><path class="cls-7" d="M64.72,47.89c-.19,.07-.38,.16-.56,.25-.28,.19-.56,.38-.83,.57,.25-.23,.54-.42,.83-.57,.23-.16,.46-.31,.68-.47,.15-.11,.33-.26,.27-.44-.06-.21-.36-.21-.57-.15-.85,.24-1.62,.77-2.17,1.47,.32-.53,.89-.97,1.53-1.22,.08-.03,.16-.06,.22-.12,.06-.06,.09-.16,.05-.23-.06-.1-.2-.1-.31-.08-1.01,.18-1.96,.74-2.67,1.57-.52,.39-.91,.96-1.13,1.63-.41,.41-.79,.85-1.13,1.31l1.42,.99c.35-.44,.75-.84,1.19-1.19,1.05,.06,2.74-.51,2.58-1.1-.11-.42-.86,.09-1.29,.13,.7-.3,1.39-.65,2.04-1.04,.16-.09,.33-.28,.23-.42-.08-.11-.26-.08-.39-.03-.36,.14-.71,.31-1.05,.51,.42-.23,.84-.46,1.25-.7,.11-.06,.23-.13,.31-.23,.08-.1,.12-.25,.05-.37-.11-.18-.38-.15-.58-.08Z"/></g><path class="cls-8" d="M65.21,47.64c.15-.19,.15-.35,.12-.47-.09-.3-.44-.42-.85-.3-.03,0-.07,.02-.1,.03,0-.01-.01-.02-.02-.03-.05-.1-.2-.25-.54-.19-1.06,.19-2.04,.77-2.78,1.63-.53,.4-.93,.98-1.17,1.67-.4,.4-.78,.84-1.11,1.3-.07,.1-.05,.24,.05,.31,.1,.07,.24,.05,.31-.05,.33-.46,.7-.89,1.1-1.29,.03-.03,.04-.06,.06-.09,.21-.64,.57-1.17,1.05-1.52,.01-.01,.03-.02,.04-.04,.63-.74,1.45-1.25,2.34-1.45-.66,.29-1.21,.75-1.53,1.27-.06,.1-.03,.23,.06,.3,.1,.07,.23,.05,.3-.05,.38-.49,.89-.89,1.45-1.16,.04-.02,.09-.03,.13-.06,.15-.07,.31-.12,.47-.17,.15-.04,.27-.02,.3,0,0,0-.02,.08-.19,.19l-.64,.44c-.32,.17-.63,.38-.9,.62-.09,.08-.1,.21-.03,.31,.07,.09,.21,.11,.3,.05l.85-.59c.16-.08,.32-.15,.49-.21,.17-.06,.3-.05,.32-.02,0,.02,0,.07-.03,.11-.05,.07-.15,.12-.25,.18l-.81,.45c-.15,.08-.31,.16-.45,.25-.1,.06-.14,.2-.08,.3,.06,.11,.2,.14,.3,.08l.44-.24c.19-.1,.38-.18,.58-.26,.02,0,.05-.02,.07-.02-.02,.02-.06,.05-.1,.07-.65,.38-1.33,.73-2.02,1.03-.1,.04-.16,.16-.13,.26,.03,.11,.13,.18,.24,.17,.17-.02,.37-.09,.56-.16,.15-.06,.44-.16,.5-.14,0,.03,0,.08-.05,.13-.31,.38-1.5,.73-2.3,.68-.05,0-.11,.01-.15,.05-.45,.36-.86,.77-1.23,1.22-.08,.1-.06,.24,.03,.32,.04,.03,.09,.05,.14,.05,.07,0,.13-.03,.17-.08,.32-.4,.69-.77,1.09-1.1,.87,.03,2.16-.33,2.59-.85,.17-.21,.17-.41,.14-.53-.03-.1-.08-.17-.13-.22,.27-.14,.53-.29,.78-.44,.07-.04,.31-.2,.36-.44,.02-.11,0-.22-.07-.31,0,0-.01-.02-.02-.03,.05-.04,.1-.09,.15-.14,.15-.19,.17-.44,.07-.62-.06-.11-.16-.18-.28-.22Z"/></g><path class="cls-8" d="M62.14,48.71c-.12-.02-.24,.06-.26,.18-.09,.55-.53,1.03-1.07,1.17-.12,.03-.19,.15-.16,.27,.03,.1,.12,.17,.22,.17,.02,0,.04,0,.06,0,.71-.18,1.28-.81,1.4-1.53,.02-.12-.06-.24-.18-.26Z"/><path class="cls-8" d="M64.69,62.21c-2.13-.4-5.14-1.25-8.05-2.28-.31-.11-.59-.22-.79-.4-.16-.15-.3-.42-.22-.65,0-.02,.01-.04,.01-.05,.26-2.71,1.25-5.24,2.87-7.34,.02,.07,.04,.13,.07,.19,.09,.19,.23,.36,.43,.52,.43,.35,1.02,.56,1.67,.6-.19,1.64-.58,3.17-1.18,4.69-.41,.61-1.05,1.05-1.76,1.22-.12,.03-.2,.15-.17,.27,.03,.12,.15,.2,.27,.17,.83-.2,1.57-.72,2.04-1.43,0-.01,.02-.03,.02-.04,.65-1.64,1.06-3.29,1.25-5.07,0-.06-.01-.13-.06-.17-.04-.05-.1-.07-.17-.07-.65,0-1.23-.18-1.63-.51-.15-.12-.25-.24-.31-.37-.03-.06-.05-.13-.07-.2-.04-.12-.08-.25-.16-.37-.04-.06-.11-.09-.18-.1-.08,0-.14,.03-.18,.08-1.81,2.22-2.92,4.93-3.21,7.85-.13,.42,.08,.85,.35,1.1,.26,.24,.59,.37,.95,.5,2.93,1.04,5.97,1.9,8.12,2.3,.01,0,.03,0,.04,0,.11,0,.2-.08,.22-.18,.02-.12-.06-.24-.18-.26Z"/><path class="cls-8" d="M64.61,57.83l-4.53-.63c-.12-.02-.24,.07-.25,.19-.02,.12,.07,.24,.19,.25l4.53,.63s.02,0,.03,0c.11,0,.21-.08,.22-.19,.02-.12-.07-.24-.19-.25Z"/><path class="cls-8" d="M67.36,58.12c-.08-.1-.22-.12-.31-.04-.1,.07-.12,.22-.04,.31,.27,.35,.49,.74,.66,1.15,.04,.09,.12,.14,.21,.14,.03,0,.06,0,.09-.02,.11-.05,.17-.18,.12-.29-.18-.45-.43-.87-.72-1.25Z"/><path class="cls-8" d="M70.67,57.72c-.12-.03-.24,.04-.27,.16-.13,.52-.31,1.11-.65,1.58-.35,.48-.84,.78-1.33,.8-.51,.02-1.04-.26-1.42-.74-.38-.47-.58-1.05-.74-1.61-.03-.12-.16-.19-.28-.15-.12,.04-.19,.16-.15,.28,.17,.58,.4,1.24,.82,1.77,.46,.57,1.1,.91,1.72,.91,.02,0,.05,0,.07,0,.62-.03,1.24-.4,1.67-.99,.38-.53,.58-1.18,.72-1.74,.03-.12-.04-.24-.16-.27Z"/><path class="cls-8" d="M73.73,58.15c-.33-.12-.65-.2-.97-.23-.13-.01-.23,.08-.24,.2-.01,.12,.08,.23,.2,.24,.27,.02,.56,.09,.85,.2,.03,0,.05,.01,.08,.01,.09,0,.18-.06,.21-.15,.04-.12-.01-.25-.13-.29Z"/><path class="cls-8" d="M76.59,59.38c-.08-.3-.19-.66-.46-.93-.31-.31-.79-.44-1.3-.35-.43,.07-.82,.28-1.17,.46-.02,.01-.04,.02-.05,.04-.95,.95-.88,5.3,.11,7.17,.06,.11,.19,.15,.3,.09,.11-.06,.15-.19,.09-.3-.94-1.77-.94-5.81-.21-6.62,.32-.17,.65-.34,1-.4,.37-.06,.71,.02,.91,.23,.17,.17,.26,.43,.34,.74,.95,3.32,1.79,6.71,2.51,10.09,.02,.11,.12,.18,.22,.18,.02,0,.03,0,.05,0,.12-.03,.2-.14,.17-.27-.72-3.39-1.56-6.79-2.51-10.12Z"/><path class="cls-8" d="M73.89,64.65c-.12,.02-.2,.14-.18,.26l.75,4.47c.02,.11,.11,.19,.22,.19,.01,0,.02,0,.04,0,.12-.02,.2-.14,.18-.26l-.75-4.47c-.02-.12-.14-.21-.26-.18Z"/><path class="cls-8" d="M72.25,58.21c-.11-.05-.25,0-.3,.11-.55,1.17-.86,2.52-.88,3.84-1.58,.06-3.18,.05-4.76-.02-.14,0-.23,.09-.23,.21,0,.12,.09,.23,.21,.23,.87,.04,1.74,.06,2.62,.06,.8,0,1.6-.02,2.39-.05,.12,0,.22-.1,.22-.23,0-1.32,.29-2.69,.84-3.87,.05-.11,0-.25-.11-.3Z"/><path class="cls-8" d="M66.2,58.13c.02-.12-.06-.24-.18-.26-.12-.02-.24,.06-.26,.18-.28,1.43-.2,2.93,.21,4.33,.03,.1,.12,.16,.22,.16,.02,0,.04,0,.06,0,.12-.04,.19-.16,.15-.28-.39-1.33-.46-2.75-.2-4.11Z"/><path class="cls-8" d="M65.36,64.38c-.54-2.01-.66-4.34-.31-6.11l.67-.19c.12-.03,.19-.16,.16-.28-.03-.12-.16-.19-.28-.16l-.81,.23c-.08,.02-.14,.09-.16,.17-.4,1.88-.29,4.3,.29,6.46,.43,1.61,1.53,3.72,2.41,5.16,.04,.07,.12,.11,.19,.11,.04,0,.08-.01,.12-.03,.11-.06,.14-.2,.07-.31-.86-1.41-1.94-3.48-2.35-5.04Z"/></g></g></g></g></g><g><path class="cls-4" d="M87.14,18.22c-13.77-2.99-29.42-4.63-44.16-4.63s-27.65,1.54-38.91,4.58c.63-2.25,1.29-4.51,1.98-6.73,.05-.17,.01-.36-.11-.49-1.62-1.75-3.29-3.52-4.97-5.25C14.5,2.3,29.75,.5,45.13,.5s31.07,1.8,45.09,5.22c-1.68,1.72-3.34,3.48-4.97,5.24-.12,.13-.16,.32-.11,.49,.69,2.26,1.36,4.53,1.99,6.78Z"/><path d="M45.14,0V1c15.15,0,30.36,1.73,44.12,5-1.47,1.53-2.94,3.07-4.37,4.62-.24,.26-.33,.63-.22,.97,.61,1.98,1.2,3.98,1.76,5.97-13.61-2.89-28.97-4.47-43.45-4.47s-27.08,1.47-38.19,4.37c.56-1.96,1.14-3.93,1.74-5.88,.1-.34,.02-.71-.22-.97-1.43-1.55-2.9-3.1-4.38-4.63C15.21,2.72,30.11,1,45.13,1V0M45.13,0C29.81,0,14.33,1.74,0,5.44c1.89,1.93,3.75,3.89,5.57,5.86-.78,2.53-1.52,5.06-2.22,7.59,12.19-3.4,25.97-4.8,39.63-4.8,16.06,0,31.95,1.93,44.86,4.8-.7-2.53-1.44-5.06-2.22-7.59,1.82-1.97,3.68-3.92,5.57-5.86C76.98,1.9,61.14,0,45.13,0h0Z"/></g><text class="cls-9" transform="translate(10.47 13.7) rotate(-10.31)"><tspan x="0" y="0">ご</tspan></text><text class="cls-9" transform="translate(18.05 12.32) rotate(-7.13)"><tspan x="0" y="0">来</tspan></text><text class="cls-9" transform="translate(26.3 11.3) rotate(-4.15)"><tspan x="0" y="0">場</tspan></text><text class="cls-9" transform="translate(34.62 10.71) rotate(-1.5)"><tspan x="0" y="0">予</tspan></text><text class="cls-9" transform="translate(42.96 10.5) rotate(.91)"><tspan x="0" y="0">約</tspan></text><text class="cls-9" transform="translate(51.32 10.64) rotate(3.17)"><tspan x="0" y="0">は</tspan></text><text class="cls-9" transform="translate(58.96 11.06) rotate(5.17)"><tspan x="0" y="0">こ</tspan></text><text class="cls-9" transform="translate(66.13 11.69) rotate(7.05)"><tspan x="0" y="0">ち</tspan></text><text class="cls-9" transform="translate(73.33 12.57) rotate(9.01)"><tspan x="0" y="0">ら</tspan></text></g></g></svg>