<?xml version="1.0" encoding="UTF-8"?><svg id="_レイヤー_2" xmlns="http://www.w3.org/2000/svg" width="270" height="92.91" xmlns:xlink="http://www.w3.org/1999/xlink" viewBox="0 0 270 92.91"><defs><style>.cls-1{fill:none;}.cls-2{letter-spacing:.02em;}.cls-3{letter-spacing:.05em;}.cls-4{clip-path:url(#clippath);}.cls-5{font-size:19px;}.cls-5,.cls-6,.cls-7{font-family:NotoSansJP-Bold-83pv-RKSJ-H, 'Noto Sans JP';font-weight:700;}.cls-8{letter-spacing:.02em;}.cls-9{fill:#fff;}.cls-10{fill:#ff0;}.cls-11{fill:#e5e03a;}.cls-12{fill:#231815;}.cls-13{letter-spacing:.06em;}.cls-14{letter-spacing:-.05em;}.cls-15{letter-spacing:.04em;}.cls-16{letter-spacing:.04em;}.cls-6{font-size:13px;}.cls-17{letter-spacing:-.11em;}.cls-18{letter-spacing:.03em;}.cls-7{font-size:11px;}.cls-19{letter-spacing:-.04em;}.cls-20{letter-spacing:.03em;}</style><clipPath id="clippath"><rect class="cls-1" x="199.33" y="29.07" width="65.69" height="61.79"/></clipPath></defs><g id="_メニュー"><g><g><rect class="cls-9" x=".5" y="17.5" width="269" height="74" rx="7.5" ry="7.5"/><path d="M262,18c3.86,0,7,3.14,7,7v59c0,3.86-3.14,7-7,7H8c-3.86,0-7-3.14-7-7V25c0-3.86,3.14-7,7-7h254m0-1H8C3.58,17,0,20.58,0,25v59c0,4.42,3.58,8,8,8h254c4.42,0,8-3.58,8-8V25c0-4.42-3.58-8-8-8h0Z"/></g><text class="cls-5" transform="translate(67.86 70.1)"><tspan class="cls-20" x="0" y="0">お</tspan><tspan class="cls-19" x="19.55" y="0">近</tspan><tspan class="cls-17" x="37.72" y="0">く</tspan><tspan class="cls-15" x="54.57" y="0">の</tspan><tspan class="cls-3" x="74.27" y="0">展示場</tspan></text><text class="cls-6" transform="translate(94.72 47.3)"><tspan class="cls-2" x="0" y="0">ゼ</tspan><tspan class="cls-13" x="13.31" y="0">ロ</tspan><tspan class="cls-18" x="27.13" y="0">ホ</tspan><tspan class="cls-14" x="40.57" y="0">ー</tspan><tspan class="cls-8" x="52.96" y="0">ム</tspan><tspan class="cls-16" x="66.17" y="0">の</tspan></text><g><g><path class="cls-10" d="M248.3,36.33c-37.63-7.76-76.31-11.7-115-11.7s-77.37,3.93-115,11.7c1.33-4.31,2.75-8.67,4.23-12.98l.1-.3-.23-.22c-3.44-3.34-6.99-6.7-10.55-9.99C51.6,4.65,92.46,.5,133.31,.5s81.7,4.15,121.44,12.35c-3.56,3.28-7.1,6.64-10.55,9.99l-.23,.22,.1,.3c1.47,4.29,2.89,8.65,4.23,12.98Z"/><path d="M133.31,1c40.49,0,80.98,4.08,120.39,12.14-3.32,3.08-6.63,6.21-9.84,9.34l-.45,.44,.2,.6c1.38,4.02,2.71,8.1,3.97,12.15-37.4-7.66-75.84-11.54-114.27-11.54s-76.87,3.88-114.27,11.54c1.26-4.05,2.6-8.13,3.97-12.15l.2-.6-.45-.44c-3.21-3.13-6.52-6.26-9.84-9.34C52.33,5.08,92.82,1,133.31,1m0-1C92.19,0,51.07,4.18,10.81,12.55c3.82,3.51,7.58,7.06,11.26,10.64-1.57,4.6-3.07,9.2-4.48,13.8,38.03-7.91,76.88-11.86,115.72-11.86s77.69,3.95,115.72,11.86c-1.42-4.6-2.91-9.2-4.48-13.8,3.68-3.58,7.43-7.13,11.26-10.64C215.55,4.18,174.43,0,133.31,0h0Z"/></g><text class="cls-7" transform="translate(27.98 25.98) rotate(-10.1)"><tspan x="0" y="0">平</tspan></text><text class="cls-7" transform="translate(39.3 23.97) rotate(-8.94)"><tspan x="0" y="0">日</tspan></text><text class="cls-7" transform="translate(47.98 22.58) rotate(-8.05)"><tspan x="0" y="0">・</tspan></text><text class="cls-7" transform="translate(56.65 21.34) rotate(-7.16)"><tspan x="0" y="0">土</tspan></text><text class="cls-7" transform="translate(68.09 19.91) rotate(-6)"><tspan x="0" y="0">日</tspan></text><text class="cls-7" transform="translate(79.52 18.71) rotate(-4.85)"><tspan x="0" y="0">問</tspan></text><text class="cls-7" transform="translate(91.09 17.74) rotate(-3.68)"><tspan x="0" y="0">わ</tspan></text><text class="cls-7" transform="translate(102.33 17.02) rotate(-2.55)"><tspan x="0" y="0">ず</tspan></text><text class="cls-7" transform="translate(113.13 16.53) rotate(-1.47)"><tspan x="0" y="0">お</tspan></text><text class="cls-7" transform="translate(124.39 16.25) rotate(-.34)"><tspan x="0" y="0">気</tspan></text><text class="cls-7" transform="translate(135.92 16.18) rotate(.81)"><tspan x="0" y="0">軽</tspan></text><text class="cls-7" transform="translate(147.38 16.35) rotate(1.96)"><tspan x="0" y="0">に</tspan></text><text class="cls-7" transform="translate(157.82 16.7) rotate(3)"><tspan x="0" y="0">ご</tspan></text><text class="cls-7" transform="translate(168.44 17.26) rotate(4.07)"><tspan x="0" y="0">予</tspan></text><text class="cls-7" transform="translate(179.91 18.08) rotate(5.23)"><tspan x="0" y="0">約</tspan></text><text class="cls-7" transform="translate(190.36 19.03) rotate(6.28)"><tspan x="0" y="0">く</tspan></text><text class="cls-7" transform="translate(200.12 20.09) rotate(7.27)"><tspan x="0" y="0">だ</tspan></text><text class="cls-7" transform="translate(210.42 21.4) rotate(8.32)"><tspan x="0" y="0">さ</tspan></text><text class="cls-7" transform="translate(220.98 22.94) rotate(9.4)"><tspan x="0" y="0">い</tspan></text><text class="cls-7" transform="translate(229.54 24.34) rotate(10.28)"><tspan x="0" y="0">！</tspan></text></g><g class="cls-4"><g><g><path class="cls-9" d="M241.48,50.6c-.54-.25-1.16-.23-1.74-.11-2.09,.42-3.87,2.12-4.39,4.18-.19,.77,.26,1.79,.68,2.69,.43,.9,1.18,1.69,2.14,1.93,1.2,.3,2.43-.29,3.46-.96,.69-.45,1.37-.98,1.7-1.73,.49-1.09,.13-2.36-.23-3.5-.31-.98-.71-2.06-1.63-2.49Z"/><path class="cls-9" d="M251.17,55.5c-.38-.96-.91-1.97-1.87-2.36-.62-.25-1.32-.2-1.99-.14-1.04,.09-2.08,.18-3.12,.26-.15,.01-.31,.03-.42,.13-.14,.13-.15,.34-.17,.54-.14,1.5-1.33,2.65-2.44,3.66-.67,.61-1.41,1.24-2.32,1.3-1.17,.07-2.18-.93-2.54-2.04s-.21-2.32-.05-3.48c-2.38-.83-4.67-.79-6.72-.07-1.01,.35-1.96,.87-2.99,1.14-1.82,.48-3.79,.21-5.56,.87,1.42-2.74,2.84-5.49,4.25-8.23,.27-.53,.55-1.15,.32-1.7-.15-.36-.48-.6-.8-.82l-3.32-2.32c-2.96,2.97-4.58,6.53-6.2,10.33-.48,1.12-.92,1.99-1.05,3.21-.13,1.21-.09,3.09,.6,4.1,.71,1.05,1.46,1.41,2.68,1.74,1.22,.33,2.51,.37,3.77,.4l9.42,.26c.51,5.28,1.03,10.71,1.54,15.99,.38-.11,22.49-.95,22.49-.95-.43-5.21-1.07-11.13-2.06-16.27-.36-1.88-.76-3.76-1.45-5.54Z"/><g><g><g><path class="cls-9" d="M246.24,43.32c-.01-.16,.08-.3,.16-.44,.39-.71,.38-1.6,.13-2.38-.24-.78-.69-1.48-1.13-2.17,.29-.02,.59-.05,.88-.07-.07-2.1-1.66-4.05-3.7-4.54,.03-.26,.36-.36,.62-.41,.26-.05,.58-.22,.53-.48-.03-.19-.24-.28-.42-.33-2.25-.71-4.77-.52-6.88,.53-1.78-.48-3.22-.2-4.47,.46-.15,.08-.3,.17-.37,.32-.07,.15-.01,.37,.15,.41-.67,.4-1.27,.94-1.73,1.57-.11,.15-.22,.34-.18,.52,.05,.24,.34,.36,.58,.31,.24-.05,.44-.21,.62-.37-1.1,.88-1.86,2.19-2.08,3.58-.18,.54-.23,.91-.18,1.27,.26-.17,.49-.41,.66-.67-.24,.9-.22,1.87,.05,2.77,.29-.13,.55-.34,.74-.6,.06,1.57,.12,3.16,.48,4.7,.36,1.54,1.03,3.03,2.15,4.14,.85,.83,1.95,1.41,3.11,1.65,1.89,.39,3.92-.15,5.46-1.32,1.54-1.17,2.59-2.93,3.02-4.81,.96,.1,1.81-.29,2.2-.98,.4-.68,.33-1.61-.17-2.22-.11-.13-.23-.26-.25-.43Z"/><g><path d="M244.62,46.67c-.2-.05-.41,.08-.45,.29-.01,.06-1.41,6.07-6.89,5.88-1.94-.07-3.47-.75-4.55-2.03-2.39-2.83-1.98-7.6-1.79-9,.03-.21-.12-.4-.33-.42-.21-.03-.4,.12-.42,.33-.19,1.47-.63,6.52,1.97,9.58,1.23,1.45,2.94,2.22,5.1,2.3,.1,0,.2,0,.29,0,5.88,0,7.35-6.42,7.36-6.48,.04-.2-.08-.41-.29-.45Z"/><path d="M236.67,32.51c-1.99-.5-4.21,0-5.79,1.33-.13,.11-.17,.3-.09,.46,.04,.08,.11,.14,.19,.18-.85,.55-1.55,1.33-2,2.23-.08,.15-.04,.34,.08,.45,.13,.11,.31,.13,.46,.04,.11-.07,.23-.14,.35-.2-1,1.16-1.59,2.68-1.59,4.23,0,.16,.11,.31,.26,.36,.16,.05,.33,0,.42-.14,0,0,0-.01,.01-.02-.17,.66-.22,1.34-.15,2.02,.01,.14,.1,.26,.23,.31,.05,.02,.1,.03,.15,.03,.08,0,.16-.03,.23-.08l1.17-.91c.16-.13,.19-.37,.07-.53-.13-.16-.36-.19-.53-.07l-.58,.45c.04-.86,.3-1.71,.77-2.45,.09-.15,.07-.34-.05-.47s-.31-.15-.46-.06c-.23,.14-.46,.3-.67,.47,.29-1.45,1.14-2.78,2.37-3.62,.14-.1,.2-.28,.14-.44-.06-.16-.21-.26-.38-.25-.31,.02-.61,.08-.91,.16,.65-.74,1.53-1.29,2.49-1.54,.17-.04,.29-.2,.28-.38,0-.18-.13-.33-.31-.36-.1-.02-.2-.03-.3-.05,1.22-.59,2.65-.76,3.96-.43,.2,.05,.41-.07,.46-.28,.05-.2-.07-.41-.28-.46Z"/><path d="M239.06,36.42c-.73,.8-1.59,1.49-2.53,2.04,.1-.35,.16-.7,.19-1.06,.01-.16-.07-.31-.22-.38s-.31-.04-.43,.07c-.91,.91-1.91,1.72-2.98,2.42l.39-.86c.07-.17,.02-.36-.13-.46-.15-.1-.35-.09-.48,.04-.84,.82-1.45,1.86-1.76,3-.06,.2,.06,.41,.27,.46,.03,0,.07,.01,.1,.01,.17,0,.32-.11,.36-.28,.06-.21,.13-.42,.21-.63,.12,.07,.26,.08,.39,0,1.18-.67,2.28-1.46,3.3-2.35-.07,.21-.16,.42-.26,.63-.07,.14-.04,.32,.07,.43,.11,.11,.28,.15,.43,.08,1.37-.62,2.63-1.54,3.65-2.66,.14-.15,.13-.39-.03-.53-.15-.14-.39-.13-.53,.03Z"/><path d="M243.22,33.82l.9-.11c.15-.02,.28-.13,.32-.28,.04-.15-.02-.31-.15-.4-1.8-1.28-4.21-1.58-6.27-.77-.19,.08-.29,.29-.22,.49,.08,.2,.29,.29,.49,.22,1.46-.57,3.17-.5,4.6,.14l-1.25,.16c-.18,.02-.32,.17-.33,.35-.01,.18,.1,.34,.28,.39,2.02,.56,3.76,2.09,4.61,4l-1.06-.32c-.16-.05-.34,.02-.43,.16-.09,.14-.08,.33,.03,.45,.95,1.08,1.51,2.52,1.55,3.97l-.32-.25c-.16-.13-.4-.1-.53,.06-.13,.16-.1,.4,.06,.53l.91,.72c.07,.05,.15,.08,.23,.08,.05,0,.1-.01,.15-.03,.13-.05,.21-.18,.23-.31,.14-1.49-.24-3.05-1.03-4.33l.71,.21c.14,.04,.28,0,.38-.1,.1-.1,.13-.25,.09-.38-.63-1.98-2.11-3.69-3.97-4.64Z"/><path d="M245.08,42.11c-.18-.1-.41-.03-.51,.16l-.16,.3c-.51-1.08-.87-2.23-1.06-3.42-.03-.16-.15-.28-.31-.31-.16-.03-.32,.05-.4,.19l-.52,.92c-.53-1-.84-2.15-.86-3.28,0-.21-.17-.37-.38-.37,0,0,0,0,0,0-.21,0-.38,.18-.37,.39,.03,1.48,.49,2.99,1.31,4.23,.07,.11,.2,.18,.33,.17,.13,0,.25-.08,.32-.19l.34-.61c.28,1.14,.7,2.24,1.26,3.28,.07,.12,.19,.2,.33,.2,.15-.02,.27-.08,.33-.2l.5-.94c.1-.18,.03-.41-.16-.51Z"/><path d="M244.81,43.19c-.18,.1-.24,.34-.14,.52,.1,.18,.34,.24,.52,.14,.35-.2,.86,0,1.12,.33,.37,.44,.45,1.1,.2,1.62-.25,.51-.83,.85-1.39,.84-.2,0-.38,.16-.39,.36,0,.21,.16,.38,.36,.39,.03,0,.05,0,.08,0,.85,0,1.65-.5,2.02-1.26,.38-.78,.26-1.76-.3-2.43-.46-.55-1.35-.92-2.08-.49Z"/></g></g><g><path d="M233.73,43.23c-.32,0-.58,.26-.58,.58v1.45c0,.32,.26,.58,.58,.58s.58-.26,.58-.58v-1.45c0-.32-.26-.58-.58-.58Z"/><path d="M239.34,43.23c-.32,0-.58,.26-.58,.58v1.45c0,.32,.26,.58,.58,.58s.58-.26,.58-.58v-1.45c0-.32-.26-.58-.58-.58Z"/><path d="M236.1,46.05c-.21,0-.38,.17-.38,.38s.17,.38,.38,.38,.38-.17,.38-.38h0c0-.21-.17-.38-.38-.38Z"/><path d="M234.85,48.15c-.16,.04-.28,.18-.29,.34-.05,.72,.22,1.68,.84,2.13,.37,.27,.84,.41,1.3,.41,.28,0,.55-.05,.81-.16,.81-.33,1.24-1.09,1.31-2.34,0-.09-.02-.18-.07-.25-.26-.35-3.86-.15-3.89-.14Zm2.37,2.03c-.45,.18-.99,.12-1.38-.17-.29-.21-.48-.7-.52-1.14,.65-.02,2.05-.03,2.71-.01-.13,.93-.51,1.2-.8,1.32Z"/><path d="M239.55,41.5c-.41-.04-.84,.1-1.17,.37-.16,.13-.18,.37-.05,.53,.13,.16,.37,.18,.53,.05,.17-.14,.4-.21,.63-.2,.22,.02,.44,.13,.59,.29,.07,.08,.18,.13,.28,.13,.09,0,.18-.03,.25-.09,.16-.14,.17-.38,.03-.53-.28-.31-.68-.51-1.09-.55Z"/><path d="M233.38,41.5c-.42,.03-.82,.23-1.09,.55-.14,.16-.12,.4,.03,.53,.07,.06,.16,.09,.25,.09,.1,0,.21-.04,.28-.13,.15-.17,.37-.28,.59-.29,.22-.02,.45,.06,.63,.2,.16,.13,.4,.11,.53-.05,.13-.16,.11-.4-.05-.53-.33-.27-.75-.41-1.17-.37Z"/></g></g><path d="M237.17,53.36c-.07-.2-.28-.31-.48-.24-.2,.07-.31,.28-.24,.48l.92,2.78c.05,.16,.2,.26,.36,.26,.04,0,.08,0,.12-.02,.2-.07,.31-.28,.24-.48l-.92-2.78Z"/><path d="M242.88,51.22c-.03-.21-.21-.35-.42-.33-.21,.03-.35,.21-.33,.42,.11,.93,.33,1.85,.65,2.74,.06,.15,.2,.25,.36,.25,.04,0,.09,0,.13-.02,.2-.07,.3-.29,.23-.48-.3-.83-.5-1.7-.61-2.57Z"/><path d="M230.89,62.22c0-.1-.05-.2-.13-.27-.08-.07-.18-.11-.28-.09-1.21,.1-5.94-.01-8.47-.07l-.98-.02c-1.21-.03-3.65-.4-4.57-.91-.75-.41-1.38-1.16-1.73-2.05-.4-1.04-.46-2.31-.16-3.77,.63-3.11,2.42-5.71,4.32-8.46,.85-1.23,1.72-2.5,2.48-3.81,1.57,1,2.88,2.06,4.15,3.1l-5.11,10.28c-.09,.19-.02,.41,.17,.51,.19,.09,.41,.02,.51-.17l5.24-10.55c.08-.16,.03-.35-.1-.47-1.44-1.18-2.94-2.4-4.79-3.55-.09-.05-.19-.07-.29-.04-.1,.03-.19,.09-.24,.18-.78,1.4-1.72,2.77-2.63,4.1-1.85,2.69-3.77,5.47-4.44,8.74-.33,1.6-.26,3.01,.19,4.19,.41,1.07,1.15,1.94,2.07,2.44,1.13,.62,3.76,.97,4.92,1l.98,.02c2.34,.06,6.52,.16,8.17,.09,.33,6.5,.96,12.14,1.78,15.92,.04,.18,.19,.3,.37,.3,.03,0,.05,0,.08,0,.2-.04,.33-.25,.29-.45-.83-3.81-1.46-9.55-1.78-16.18Z"/><path d="M236.3,52.86c-1.11-.34-3.24-.71-4.49-.47-.71,.13-1.5,.5-2.26,.86-.86,.4-1.75,.82-2.48,.88-1.24,.1-2.25,.23-3.31,.37-.7,.09-1.44,.19-2.28,.28-.21,.02-.36,.21-.34,.42,.02,.19,.19,.34,.38,.34,.01,0,.03,0,.04,0,.85-.09,1.59-.19,2.29-.28,1.06-.14,2.06-.27,3.28-.36,.86-.07,1.82-.52,2.74-.95,.75-.36,1.47-.69,2.08-.8,1.11-.21,3.12,.15,4.13,.45,.2,.06,.41-.05,.47-.25s-.05-.41-.25-.47Z"/><g><g><path class="cls-9" d="M231.9,36.94c-.54,.28-1.05,.62-1.5,1.02,.5-.34,1-.68,1.5-1.02Z"/><path class="cls-9" d="M232.9,36.49c-.35,.12-.68,.28-1.01,.45-.5,.34-1,.68-1.5,1.02,.45-.4,.96-.74,1.5-1.02,.41-.28,.82-.56,1.23-.83,.28-.19,.59-.47,.49-.78-.11-.37-.65-.37-1.03-.27-1.53,.43-2.92,1.35-3.9,2.59,.58-.94,1.59-1.71,2.74-2.16,.14-.06,.29-.11,.39-.21,.11-.1,.17-.27,.09-.4-.1-.17-.35-.17-.55-.13-1.82,.32-3.52,1.3-4.79,2.77-.94,.69-1.63,1.69-2.02,2.88-.74,.72-1.42,1.49-2.03,2.32l2.56,1.75c.63-.78,1.35-1.48,2.14-2.1,1.88,.11,4.93-.89,4.65-1.94-.2-.74-1.55,.15-2.32,.23,1.26-.53,2.49-1.15,3.67-1.84,.28-.16,.6-.49,.41-.75-.15-.2-.47-.14-.7-.05-.65,.25-1.28,.55-1.88,.91,.75-.41,1.5-.82,2.25-1.23,.21-.11,.42-.23,.56-.41,.15-.18,.21-.45,.09-.65-.2-.33-.69-.27-1.05-.14Z"/></g><path d="M233.76,36.05c.28-.33,.29-.63,.22-.84-.18-.6-.88-.69-1.49-.52-.07,.02-.14,.04-.21,.06-.01-.03-.02-.05-.04-.07-.09-.16-.34-.42-.95-.32-1.9,.33-3.66,1.35-4.98,2.87-.95,.71-1.67,1.72-2.09,2.96-.73,.71-1.4,1.49-2,2.3-.12,.17-.09,.4,.08,.53,.17,.12,.41,.09,.53-.08,.59-.81,1.26-1.57,1.99-2.27,.04-.04,.08-.09,.1-.15,.37-1.13,1.03-2.07,1.89-2.69,.02-.02,.04-.04,.06-.06,1.18-1.36,2.74-2.29,4.43-2.62-1.26,.5-2.32,1.34-2.92,2.31-.11,.17-.06,.39,.11,.51,.16,.11,.39,.08,.51-.08,.69-.88,1.6-1.58,2.62-2.06,.07-.03,.16-.06,.24-.11,.28-.12,.56-.22,.85-.3,.32-.09,.55-.04,.56,.01,0,.02-.03,.15-.34,.36l-1.16,.78c-.58,.3-1.13,.67-1.61,1.1-.15,.13-.17,.36-.05,.52,.12,.16,.35,.19,.51,.08l1.54-1.04c.29-.14,.58-.27,.88-.38,.31-.11,.55-.09,.6-.02,.02,.04,0,.14-.06,.22-.1,.13-.28,.22-.45,.32l-1.45,.79c-.28,.14-.55,.29-.82,.45-.18,.11-.24,.33-.13,.51,.1,.18,.33,.24,.51,.14l.79-.43c.34-.17,.69-.32,1.04-.45,.08-.03,.15-.05,.19-.06-.05,.05-.12,.12-.22,.18-1.17,.68-2.39,1.29-3.63,1.81-.17,.07-.27,.26-.22,.44,.05,.18,.22,.31,.4,.28,.3-.03,.65-.16,.99-.28,.28-.1,.81-.29,.93-.23,0,.02,.03,.09-.09,.24-.54,.67-2.73,1.31-4.17,1.22-.09,0-.18,.02-.26,.08-.81,.64-1.55,1.36-2.2,2.16-.13,.16-.11,.4,.05,.53,.07,.06,.16,.09,.24,.09,.11,0,.22-.05,.29-.14,.59-.72,1.25-1.38,1.97-1.96,1.55,.05,3.91-.59,4.65-1.51,.3-.37,.29-.7,.23-.91-.05-.19-.15-.31-.25-.39,.48-.25,.96-.51,1.43-.78,.13-.07,.55-.35,.64-.76,.04-.19,0-.38-.12-.54-.01-.02-.03-.04-.05-.06,.1-.07,.19-.16,.28-.26,.26-.33,.31-.76,.12-1.08-.12-.19-.3-.32-.52-.39Z"/></g><path d="M228.28,37.97c-.21-.04-.4,.1-.44,.31-.17,.98-.97,1.83-1.94,2.08-.2,.05-.33,.26-.28,.46,.04,.17,.2,.29,.37,.29,.03,0,.06,0,.09-.01,1.26-.32,2.29-1.42,2.51-2.68,.04-.21-.1-.4-.31-.44Z"/><path d="M248.84,52.43c-.87-.24-1.74-.07-2.58,.1l-.41,.08c-1.15,.21-1.92,.11-2.44-.3-.13-.11-.32-.11-.46-.01-.14,.1-.19,.28-.13,.44,.17,.46,.37,.71,.56,.88-.6,1.19-1.34,2.31-2.21,3.32-.88,1.02-1.65,1.5-2.42,1.5h-.04c-.84-.02-1.67-.7-2.03-1.65-.38-1-.26-2.12-.12-2.99,.03-.21-.11-.4-.31-.43-.21-.04-.4,.11-.43,.31-.15,.96-.28,2.22,.16,3.38,.39,1.04,1.39,2.11,2.72,2.14,1.01,.04,2.01-.55,3.05-1.76,.98-1.14,1.81-2.41,2.46-3.76,.04-.07,.04-.15,.03-.23,.62,.09,1.26,.01,1.76-.08l.42-.08c.79-.15,1.54-.3,2.24-.11,1.08,.29,1.91,1.36,2.55,3.25,.82,2.43,1.87,9.25,3.12,20.26,.02,.19,.19,.34,.38,.34,.01,0,.03,0,.04,0,.21-.02,.36-.21,.33-.42-1.26-11.07-2.32-17.94-3.15-20.42-.72-2.15-1.73-3.37-3.07-3.73Z"/></g></g><g><path class="cls-9" d="M254.68,72.16c-1.53-.85-2.76-.46-3.83-.07-.36,.13-.75,.29-.97,.61-.2,.3-.21,.69-.2,1.05,.01,.71,.07,1.42,.16,2.13,.07,.51,.19,1.07,.61,1.36,.4,.27,.93,.21,1.4,.09,1.13-.29,2.23-.93,2.75-1.97,.2-.4,.3-.85,.3-1.3,0-.24-.03-.48-.06-.72-.05-.39-.1-.79-.15-1.18Z"/><path class="cls-10" d="M260.94,76.03c-.29-.98-.69-2-1.52-2.59-1.15-.8-2.7-.54-4.06-.23-.37,1.05-.76,2.14-1.54,2.94s-2.04,1.54-3.04,1.02c-1.23-.64-1.43-2.67-.95-3.97-1.69-.93-3.48-.23-5.29,.44-1.8,.67-2.94,.89-5.3,.89,.62-1.7,1.09-3.54,1.71-5.24,.12-.32,.24-.99,.24-.99,0,0-.96-1.05-1.45-1.43-.49-.38-.94-.74-1.52-.96-3.04,2.61-4.6,6.27-4.76,10.01-.04,.83,.01,1.72,.46,2.42,.67,1.03,2.01,1.36,3.23,1.53,2.8,.39,5.65,.38,8.44-.02,.4,4.2,.65,7.82,1.05,12.01,.07-.08,16.47-.16,16.47-.16-.24-2.33-.49-4.67-.73-7-.3-2.92-.61-5.87-1.45-8.69Z"/><g><g><g><path class="cls-9" d="M259.33,61.11c-.1-1.59-.62-3.22-1.77-4.33-1.28-1.23-3.15-1.63-4.92-1.67-1.81-.05-3.66,.24-5.27,1.06-1.61,.82-2.98,2.21-3.53,3.94-.56,1.72-.22,3.76,1.04,5.06,0,2.13,.41,4.88,2.23,6.64,1.55,1.49,4,1.95,5.99,1.12s3.38-2.9,3.41-5.04c1.44,.24,2.38-1.07,2.06-2.2,.59-1.44,.86-3.02,.76-4.57Z"/><path d="M257.61,56.6c-.57-.66-1.37-1.08-2.2-1.34-.83-.25-1.7-.35-2.49-.3-2.14-.34-4.33-.1-6.45,.39-.5,.11-1.04,.27-1.36,.67-.32,.4-.26,1.14,.23,1.3-1.22,.59-2.13,1.78-2.39,3.11s.14,2.77,1.05,3.78c.22,.25,.5,.48,.83,.48,.39,0,.7-.32,.95-.62,.61-.72,1.17-1.48,1.69-2.27,.29,.21,.68,.24,1.03,.15,.35-.09,.66-.28,.96-.48,.8-.53,1.56-1.12,2.27-1.76,.15-.13,.33-.28,.53-.24,.15,.03,.25,.17,.34,.29,1.23,1.74,2.75,3.28,4.46,4.54,.64,.47,1.37,.99,1.51,1.78,.51-.6,.75-3.29,.78-4.08,.07-1.66-.24-1.49-.66-3.1-.22-.83-.52-1.67-1.08-2.33Z"/><path d="M256.71,67.45c-.21-.02-.4,.12-.42,.33,0,.05-.64,4.95-5.04,5.21-1.55,.09-2.82-.33-3.77-1.27-2.13-2.07-2.16-5.93-2.12-7.06,0-.21-.16-.38-.36-.39-.21,0-.38,.16-.39,.36-.04,1.21,0,5.34,2.35,7.63,1.02,.99,2.32,1.5,3.89,1.5,.15,0,.3,0,.46-.01,5.02-.3,5.73-5.82,5.74-5.88,.03-.21-.12-.4-.33-.42Z"/><path d="M256.55,64.64c-.17,.12-.21,.36-.09,.53,.12,.17,.36,.21,.53,.09,.23-.17,.62-.05,.84,.17,.31,.31,.42,.8,.27,1.21s-.56,.71-1,.74c-.21,.01-.37,.19-.35,.4,.01,.2,.18,.36,.38,.36,0,0,.02,0,.02,0,.73-.04,1.4-.54,1.66-1.23,.26-.69,.08-1.5-.44-2.02-.44-.43-1.22-.66-1.81-.25Z"/><path d="M252.74,54.58c-.21,0-.37,.18-.37,.39,0,.21,.16,.37,.39,.37,1.5-.04,3.05,.55,4.13,1.6,1.08,1.05,1.73,2.58,1.72,4.09,0,.21,.17,.38,.38,.38h0c.21,0,.38-.17,.38-.38,0-1.73-.71-3.42-1.95-4.63-1.25-1.21-2.95-1.86-4.69-1.81Z"/><path d="M258.96,61.68c-.19,.08-.29,.29-.22,.49,.33,.86,.31,1.84-.06,2.69-.08,.19,0,.41,.2,.5,.05,.02,.1,.03,.15,.03,.15,0,.28-.09,.35-.23,.45-1.03,.48-2.22,.07-3.27-.07-.19-.29-.29-.49-.22Z"/><path d="M252.64,58.78c-.06-.12-.18-.19-.31-.2-.12,0-.26,.05-.33,.16-.83,1.2-1.96,2.17-3.28,2.8-.24,.11-.52,.22-.72,.16-.07-.02-.13-.1-.15-.15,.02-.06,.04-.11,.06-.17,.06-.17-.02-.36-.18-.45-.16-.09-.36-.05-.47,.09-.1,.12-.15,.26-.17,.41-.46,1.24-1.27,2.34-2.32,3.14-.17,.13-.2,.36-.07,.53,.07,.1,.19,.15,.3,.15,.08,0,.16-.03,.23-.08,.98-.75,1.78-1.75,2.31-2.87,.08,.05,.16,.09,.25,.12,.45,.14,.89-.03,1.26-.2,1.26-.6,2.36-1.48,3.23-2.57,1.21,2.07,2.85,3.9,4.77,5.33,.17,.13,.41,.09,.53-.08,.13-.17,.09-.4-.08-.53-1.99-1.48-3.66-3.42-4.84-5.6Z"/><path d="M252.14,54.57c-2.15-.39-4.43-.12-6.43,.75-.46,.2-.96,.47-1.19,.99-.15,.34-.13,.76,.07,1.09,.02,.03,.04,.07,.07,.1-1.33,1.03-2.17,2.35-2.35,3.71-.22,1.68,.78,3.7,2.61,4.05,.02,0,.05,0,.07,0,.18,0,.34-.13,.37-.31,.04-.21-.1-.4-.3-.44-1.39-.26-2.17-1.9-2-3.21,.17-1.29,1.08-2.57,2.49-3.51,.14-.09,.2-.26,.16-.41-.04-.16-.18-.27-.34-.28-.04,0-.08-.03-.12-.09-.07-.11-.08-.27-.03-.38,.13-.28,.48-.47,.81-.61,1.86-.81,3.99-1.06,5.99-.7,.2,.03,.4-.1,.44-.3,.04-.21-.1-.4-.3-.44Z"/></g><g><path d="M247.58,64.32c-.32,0-.58,.26-.58,.58v1.25c0,.32,.26,.58,.58,.58s.58-.26,.58-.58v-1.25c0-.32-.26-.58-.58-.58Z"/><path d="M252.4,64.32c-.32,0-.58,.26-.58,.58v1.25c0,.32,.26,.58,.58,.58s.58-.26,.58-.58v-1.25c0-.32-.26-.58-.58-.58Z"/><path d="M249.62,66.78c-.21,0-.38,.17-.38,.38s.17,.38,.38,.38,.38-.17,.38-.38h0c0-.21-.17-.38-.38-.38Z"/><path d="M248.53,68.58c-.16,.04-.28,.18-.29,.34-.05,.63,.19,1.48,.74,1.88,.33,.24,.74,.37,1.15,.37,.24,0,.49-.04,.72-.14,.71-.29,1.09-.96,1.16-2.06,0-.09-.02-.18-.07-.25-.26-.35-3.37-.15-3.4-.14Zm2.03,1.75c-.37,.15-.81,.09-1.14-.14-.23-.17-.38-.54-.42-.88,.55-.01,1.64-.02,2.21,0-.12,.73-.42,.94-.65,1.03Z"/><path d="M252.59,62.86c-.37-.03-.75,.09-1.04,.33-.16,.13-.19,.37-.05,.53,.13,.16,.37,.18,.53,.05,.14-.11,.33-.17,.5-.16,.18,.01,.35,.1,.47,.24,.07,.08,.18,.13,.28,.13,.09,0,.18-.03,.25-.09,.16-.14,.17-.38,.03-.53-.25-.28-.6-.46-.98-.49Z"/><path d="M247.27,62.86c-.37,.03-.73,.21-.98,.49-.14,.16-.12,.4,.03,.53,.07,.06,.16,.09,.25,.09,.1,0,.21-.04,.28-.13,.12-.13,.29-.22,.47-.23,.17-.02,.36,.04,.5,.16,.16,.13,.4,.11,.53-.05,.13-.16,.11-.4-.05-.53-.29-.24-.66-.36-1.04-.33Z"/></g></g><g><g><path class="cls-9" d="M245.38,62.69c-.45,.18-.88,.41-1.27,.7,.42-.23,.85-.47,1.27-.7Z"/><path class="cls-9" d="M246.21,62.42c-.28,.07-.56,.17-.83,.28-.42,.23-.85,.47-1.27,.7,.39-.29,.82-.52,1.27-.7,.35-.19,.69-.38,1.04-.58,.23-.13,.51-.33,.46-.6-.05-.32-.47-.36-.78-.31-1.24,.22-2.41,.85-3.3,1.78,.54-.72,1.41-1.26,2.35-1.53,.11-.03,.23-.06,.33-.14,.09-.08,.15-.21,.11-.32-.06-.15-.26-.17-.42-.16-1.46,.1-2.88,.76-4.01,1.86-.8,.48-1.44,1.25-1.85,2.19-.64,.52-.46,.43-1.02,1.06,0,0,1.73,1.17,2.22,1.57,0,0,.55-.67,.71-.77,1.46,.26,3.94-.3,3.82-1.18-.09-.62-1.22-.01-1.84-.02,1.04-.33,2.06-.72,3.05-1.18,.24-.11,.51-.35,.39-.58-.1-.18-.35-.16-.54-.1-.53,.15-1.06,.34-1.56,.58,.63-.27,1.25-.54,1.88-.81,.17-.07,.35-.15,.48-.29s.21-.35,.13-.53c-.12-.28-.51-.28-.81-.21Z"/></g><path d="M247.04,62.12c.22-.24,.25-.48,.21-.66-.03-.19-.13-.35-.3-.47-.32-.23-.75-.18-.92-.15-.03,0-.06,.01-.09,.02,0,0,0,0,0,0-.07-.16-.26-.43-.8-.39-1.53,.11-3.03,.79-4.22,1.93-.81,.5-1.48,1.28-1.93,2.25-.38,.31-.46,.41-.64,.63-.08,.09-.18,.22-.35,.42-.07,.08-.11,.19-.09,.3,.01,.11,.07,.2,.16,.27,.02,.01,1.72,1.17,2.19,1.55,.07,.06,.15,.08,.24,.08,.11,0,.22-.05,.29-.14,.18-.22,.4-.47,.53-.61,1.22,.16,3.06-.15,3.76-.83,.31-.3,.34-.6,.31-.81-.02-.13-.07-.24-.12-.31,.38-.15,.75-.32,1.12-.49,.11-.05,.49-.25,.61-.6,.06-.17,.04-.35-.04-.5,0,0,0,0,0-.01,.07-.05,.14-.1,.2-.17,.25-.26,.33-.64,.2-.94-.07-.16-.18-.28-.33-.36Zm-.42,.77c-.08,.08-.21,.14-.36,.2l-1.2,.52c-.23,.09-.46,.19-.69,.3-.19,.09-.27,.31-.18,.5,.09,.19,.31,.27,.49,.19l.66-.29c.13-.05,.26-.1,.39-.14-.86,.39-1.75,.72-2.65,1.01-.18,.06-.29,.23-.26,.42,.03,.18,.18,.32,.37,.32,.25,0,.54-.07,.83-.14,.19-.05,.48-.12,.63-.12h0s-.06,.09-.08,.11c-.5,.49-2.19,.79-3.29,.6-.09-.02-.19,0-.27,.05-.13,.08-.36,.33-.56,.57-.46-.34-1.17-.83-1.6-1.12,.04-.04,.07-.08,.1-.12,.15-.19,.2-.24,.6-.57,.05-.04,.08-.09,.11-.14,.39-.89,.98-1.59,1.7-2.02,.02-.02,.05-.03,.07-.05,.85-.83,1.88-1.39,2.97-1.63-.77,.34-1.44,.84-1.89,1.43-.12,.16-.09,.39,.06,.52,.15,.13,.38,.12,.52-.03,.62-.65,1.38-1.14,2.21-1.44,.06-.02,.13-.04,.2-.07,.22-.07,.45-.12,.67-.16,.06-.01,.12-.01,.18-.01,.09,0,.15,0,.17,0,0,0-.03,.09-.27,.22l-.97,.54c-.49,.2-.95,.46-1.38,.77-.16,.12-.2,.34-.09,.51,.11,.17,.33,.22,.5,.13l1.3-.72c.23-.09,.47-.17,.71-.23,.22-.05,.35-.02,.37-.01,0,.02-.01,.07-.06,.12Z"/></g><path d="M242.47,63.16c-.2-.06-.41,.06-.47,.26-.21,.77-.9,1.38-1.65,1.49-.21,.03-.35,.22-.32,.43,.03,.19,.19,.32,.37,.32,.02,0,.04,0,.06,0,1.05-.15,1.98-.99,2.27-2.03,.06-.2-.06-.41-.26-.47Z"/><g><path d="M251.02,73.25c-.07-.2-.29-.29-.49-.22-.2,.07-.29,.29-.22,.49l.67,1.75c.06,.15,.2,.24,.35,.24,.04,0,.09,0,.14-.03,.19-.08,.29-.29,.22-.49l-.67-1.75Z"/><path d="M254.65,72.38c-.04-.21-.23-.34-.44-.31-.21,.04-.34,.23-.31,.44,.09,.48,.25,.96,.49,1.42,.07,.13,.2,.2,.34,.2,.06,0,.12-.01,.18-.04,.18-.1,.26-.33,.16-.51-.2-.39-.35-.79-.42-1.2Z"/><path d="M245.93,80.1c0-.1-.05-.2-.13-.27-.08-.07-.18-.1-.28-.09-.87,.08-4.29,0-6.13-.05l-.74-.02c-.87-.02-2.62-.3-3.28-.68-.53-.3-.97-.86-1.21-1.52-.29-.78-.33-1.74-.11-2.84,.69-3.54,1.8-5.84,4.06-8.37,1.08,.72,1.8,1.31,2.67,2.05-.58,1.26-.94,2.38-1.3,3.47-.37,1.14-.76,2.32-1.38,3.64-.09,.19,0,.41,.18,.5,.19,.09,.41,0,.5-.18,.65-1.37,1.04-2.57,1.42-3.73,.37-1.14,.76-2.32,1.38-3.64,.07-.15,.03-.34-.1-.45-1.03-.89-1.87-1.59-3.24-2.48-.16-.1-.36-.08-.48,.06-2.48,2.7-3.73,5.22-4.46,8.97-.24,1.24-.19,2.33,.14,3.25,.31,.84,.86,1.52,1.55,1.91,.84,.48,2.78,.76,3.63,.78l.74,.02c1.76,.04,4.57,.12,5.82,.07,.24,4.93,.7,9.22,1.29,12.09,.04,.18,.19,.3,.37,.3,.03,0,.05,0,.08,0,.2-.04,.34-.24,.29-.45-.6-2.91-1.06-7.3-1.3-12.35Z"/><path d="M256.84,73.03c-.2-.07-.41,.03-.49,.22-.39,1.05-.8,2.14-1.43,3.06-.68,1-1.57,1.67-2.49,1.91-1.22,.31-2.6-.18-3.36-1.18-.76-1.01-.52-2.48-.18-4.02,.04-.2-.08-.41-.29-.45-.2-.05-.41,.08-.45,.29-.38,1.72-.64,3.37,.32,4.64,.75,.99,1.99,1.57,3.23,1.57,.31,0,.62-.04,.93-.11,1.11-.28,2.15-1.06,2.93-2.21,.68-1,1.11-2.13,1.52-3.22,.07-.2-.03-.41-.22-.49Z"/><path d="M240.67,69.2s-.05-.05-.08-.07c-1-.92-2.1-1.72-3.27-2.38-.18-.1-.41-.04-.52,.14-.1,.18-.04,.41,.14,.52,1.2,.68,2.31,1.5,3.31,2.45,.07,.07,.17,.1,.26,.1s.19-.04,.27-.11c.14-.15,.15-.38,0-.53l-.12-.12Z"/><path d="M249.8,72.87c-.82-.26-2.4-.54-3.32-.36-.53,.1-1.11,.39-1.68,.67-.62,.3-1.26,.62-1.76,.66-.91,.07-1.64,.17-2.42,.28-.51,.07-1.04,.14-1.65,.21-.21,.02-.36,.21-.33,.42,.02,.19,.19,.34,.38,.34,.01,0,.03,0,.04,0,.62-.07,1.15-.14,1.67-.21,.77-.1,1.5-.2,2.38-.28,.65-.05,1.35-.4,2.03-.74,.52-.26,1.06-.52,1.49-.61,.71-.14,2.08,.07,2.95,.34,.2,.06,.41-.05,.48-.25,.06-.2-.05-.41-.25-.48Z"/><path d="M258.93,72.54c-.66-.19-1.31-.06-1.93,.07l-.3,.06c-.8,.15-1.33,.09-1.69-.21-.13-.11-.32-.12-.46-.02-.14,.1-.2,.27-.14,.43,.11,.33,.24,.52,.39,.67-.43,.89-.96,1.72-1.58,2.47-.61,.75-1.16,1.11-1.68,1.11h-.03c-.57-.01-1.13-.51-1.38-1.2-.27-.75-.19-1.59-.09-2.25,.03-.21-.11-.4-.32-.43-.2-.03-.4,.11-.43,.32-.11,.74-.2,1.71,.12,2.62,.3,.83,1.06,1.67,2.08,1.7,.79,.02,1.53-.43,2.31-1.38,.72-.88,1.33-1.85,1.8-2.9,.02-.03,.03-.07,.03-.11,.35,.04,.75,.01,1.2-.07l.31-.06c.56-.12,1.09-.22,1.57-.09,.75,.22,1.33,1.01,1.79,2.42,.59,1.85,1.36,7.06,2.27,15.48,.02,.19,.19,.34,.38,.34,.01,0,.03,0,.04,0,.21-.02,.36-.21,.34-.42-.91-8.47-1.69-13.72-2.3-15.63-.54-1.67-1.29-2.63-2.3-2.92Z"/><path d="M257.41,80.13c-.21,.02-.36,.21-.34,.42l1.14,11.01c.02,.19,.18,.34,.38,.34,.01,0,.03,0,.04,0,.21-.02,.36-.21,.34-.42l-1.14-11.01c-.02-.21-.2-.35-.42-.34Z"/></g></g></g><g><path class="cls-9" d="M238.25,73.97c-1.36-.95-2.06,.01-3.68-.33-1.5-.32-3.97-1.83-5.5-1.93-.97-.06-1.92,.28-2.86,.53-4.99,1.35-10.27,.35-15.32-.73,1.39-2.45,2.12-5.27,2.1-8.09-1.68,.22-3.45-.78-4.13-2.34-2.79,3.37-4.6,7.66-5.35,12.13-.1,.62-.18,1.28,.08,1.84,.4,.86,1.42,1.21,2.34,1.47,4.32,1.22,8.64,2.44,12.96,3.66,1.24,3.78,3.18,8.61,5.21,12.04-.38,.22,19.12,0,19.12,0-1.1-5.15-2.49-9.71-3.58-14.86-.27-1.27-.33-2.66-1.39-3.4Z"/><path class="cls-10" d="M233.84,82.2c-.35-1.53-.18-3.13,0-4.69,.17-1.5,.34-2.43,.88-3.84-.68-.24-1.4-.95-2.12-.94-.27,0-.54,.03-.76,.18-.32,.22-.44,.63-.53,1.01-.46,1.97-.83,3.96-1.12,5.96-2.91,.29-5.77,.39-8.63,.37-.54-2.62-.58-5.35-.09-7.98-.58,.03-1.15,.16-1.68,.39-1.68,6.41,.45,14.37,4.34,19.56-.09-.04,12.13,0,12.13,0-.26-2.31-.67-5.02-1.44-7.21-.33-.94-.76-1.85-.98-2.82Z"/><path class="cls-9" d="M211.03,61.84c-.36-.29-.84-.5-1.28-.38-.13,.04-.28,.12-.28,.26,0,.09,.05,.17,.1,.24,.27,.37,.55,.75,.92,1.02s.85,.43,1.3,.32c.07-.17,.14-.35,.21-.52-.31-.27-.6-.64-.96-.93Z"/><g><g><g><path class="cls-9" d="M231.32,52.97c-2.5-1.75-5.81-2.25-8.74-1.39-2.93,.86-5.42,3.06-6.71,5.82-1.14,2.42-1.37,5.17-1.32,7.85,.02,1.35,.12,2.72,.56,4,.44,1.28,1.25,2.47,2.44,3.13,1.18,.65,2.76,.67,3.83-.15,1.79,1.04,4.47,.87,6.23-.56,1.17,1.23,3.15,1.5,4.73,.87,1.58-.63,2.77-2.03,3.41-3.61,.64-1.58,.78-3.31,.72-5.02-.16-4.18-1.72-8.55-5.14-10.95Z"/><g><path d="M231.48,62.64c-.18,.1-.24,.34-.14,.52,.1,.18,.34,.24,.52,.14,.42-.24,1.01,0,1.32,.38,.42,.51,.52,1.27,.23,1.86-.29,.59-.93,.98-1.61,.96-.21,0-.38,.16-.39,.36,0,.21,.16,.38,.36,.39,.03,0,.06,0,.08,0,.93,0,1.82-.55,2.23-1.39,.42-.86,.29-1.94-.33-2.68-.51-.61-1.48-1-2.28-.54Z"/><path d="M223.83,51.05c-3.19,.65-5.41,1.83-6.81,3.6-1.06,1.35-1.58,2.99-1.99,4.56-.6,2.33-.89,4.26-.89,6.06,0,1.9,.32,3.45,.99,4.76,.82,1.6,2.22,2.78,3.75,3.16,.03,0,.06,.01,.09,.01,.17,0,.32-.12,.37-.29,.05-.2-.07-.41-.28-.46-1.32-.33-2.54-1.36-3.26-2.77-.61-1.2-.91-2.64-.91-4.42,0-1.74,.28-3.6,.87-5.87,.39-1.49,.88-3.04,1.85-4.28,1.28-1.63,3.36-2.72,6.36-3.33,.2-.04,.34-.24,.29-.45-.04-.2-.24-.34-.45-.29Z"/><path d="M233.59,54.43c-1.72-2.77-5.44-3.66-7.39-3.56-.21,.01-.37,.19-.36,.4,0,.21,.19,.35,.4,.36,1.78-.08,5.16,.71,6.71,3.21,1.84,2.98,2.39,5.26,2.87,7.26,.54,2.24,.53,4.29-.02,6.08-.63,2.05-2.03,3.72-3.76,4.48-.19,.08-.28,.31-.19,.5,.06,.14,.2,.23,.35,.23,.05,0,.1-.01,.15-.03,1.92-.85,3.49-2.7,4.18-4.95,.59-1.93,.6-4.11,.03-6.48-.5-2.06-1.06-4.4-2.96-7.48Z"/><path d="M233.2,69.72c-.19-.07-.41,.03-.49,.22-.43,1.16-1.39,2.1-2.56,2.5-.2,.07-.3,.28-.23,.48,.05,.16,.2,.26,.36,.26,.04,0,.08,0,.12-.02,1.38-.48,2.51-1.58,3.02-2.95,.07-.2-.03-.41-.22-.49Z"/><path d="M231.05,70.11c-.19-.08-.41,.02-.49,.21-.31,.78-.91,1.46-1.65,1.86-.18,.1-.25,.33-.15,.51,.07,.13,.2,.2,.33,.2,.06,0,.12-.01,.18-.04,.9-.48,1.63-1.3,2-2.25,.08-.19-.02-.41-.21-.49Z"/><path d="M225.79,60.1c-1.09-.2-2.09-.88-2.68-1.81-.59-.93-.78-2.13-.5-3.2,.05-.2-.07-.41-.27-.46-.2-.05-.41,.07-.46,.27-.33,1.27-.11,2.69,.59,3.79,.7,1.11,1.89,1.91,3.18,2.15,.02,0,.05,0,.07,0,.18,0,.34-.13,.37-.31,.04-.21-.1-.4-.3-.44Z"/><path d="M229.13,60.58c-1.74-.74-3.02-2.58-3.11-4.47,0-.21-.19-.36-.39-.36-.21,0-.37,.19-.36,.39,.1,2.21,1.53,4.27,3.57,5.13,.05,.02,.1,.03,.15,.03,.15,0,.29-.09,.35-.23,.08-.19,0-.41-.2-.5Z"/><path d="M232.09,61.27c-1.68-.88-2.9-2.6-3.19-4.48-.03-.21-.23-.35-.43-.32-.21,.03-.35,.22-.32,.43,.32,2.11,1.7,4.04,3.59,5.03,.06,.03,.12,.04,.18,.04,.14,0,.27-.07,.34-.2,.1-.19,.03-.41-.16-.51Z"/><path d="M222.32,57.26c-.19-.09-.41,0-.5,.19-1.02,2.24-3.09,4.07-5.68,5.02-.2,.07-.3,.29-.22,.49,.06,.15,.2,.25,.35,.25,.04,0,.09,0,.13-.02,2.77-1.03,5-3,6.1-5.42,.09-.19,0-.41-.19-.5Z"/><path d="M231.31,67.01c-.2-.06-.41,.06-.47,.26-.06,.22-1.62,5.49-7.6,5.16-5.51-.3-5.94-7.14-5.94-9.23,0-.21-.17-.38-.38-.38s-.38,.17-.38,.38c0,4.65,1.75,9.72,6.65,9.99,.19,.01,.38,.02,.56,.02,6.1,0,7.79-5.66,7.81-5.72,.06-.2-.06-.41-.26-.47Z"/></g></g><g><path d="M220.66,62.41c-.32,0-.58,.26-.58,.58v1.47c0,.32,.26,.58,.58,.58h0c.32,0,.58-.26,.58-.58v-1.48c0-.32-.26-.58-.58-.58Z"/><path d="M226.34,62.41c-.32,0-.58,.26-.58,.58v1.48c0,.32,.26,.58,.58,.58s.58-.26,.58-.58v-1.48c0-.32-.26-.58-.58-.58Z"/><path d="M223.06,65.27c-.21,0-.38,.17-.38,.38s.17,.38,.38,.38,.38-.17,.38-.38h0c0-.21-.17-.38-.38-.38Z"/><path d="M221.8,67.4c-.16,.04-.28,.18-.29,.34-.05,.73,.22,1.7,.85,2.16,.38,.28,.85,.42,1.32,.42,.28,0,.56-.05,.82-.16,.82-.33,1.25-1.11,1.33-2.37,0-.09-.02-.18-.08-.25-.27-.36-3.91-.15-3.94-.14Zm2.4,2.06c-.46,.18-1.01,.12-1.41-.17-.3-.22-.49-.71-.53-1.16,.65-.02,2.09-.03,2.76-.01-.13,.95-.52,1.22-.82,1.34Z"/><path d="M226.56,60.66c-.42-.03-.85,.1-1.18,.37-.16,.13-.18,.37-.05,.53,.13,.16,.37,.18,.53,.05,.17-.14,.41-.22,.64-.2,.23,.02,.45,.13,.6,.3,.07,.08,.18,.13,.28,.13,.09,0,.18-.03,.25-.09,.16-.14,.17-.38,.03-.53-.28-.32-.68-.52-1.11-.55Z"/><path d="M220.3,60.66c-.42,.03-.83,.24-1.11,.55-.14,.16-.12,.4,.03,.53,.07,.06,.16,.09,.25,.09,.1,0,.21-.04,.28-.13,.15-.17,.37-.28,.6-.3,.23-.03,.46,.06,.64,.2,.16,.13,.4,.11,.53-.05,.13-.16,.11-.4-.05-.53-.33-.27-.76-.4-1.18-.37Z"/></g></g><g><g><g><path class="cls-9" d="M218.3,56.07c-.5,.27-.98,.59-1.41,.97,.47-.32,.94-.65,1.41-.97Z"/><path class="cls-9" d="M219.25,55.65c-.33,.12-.64,.26-.95,.42-.47,.32-.94,.65-1.41,.97,.43-.38,.9-.7,1.41-.97,.38-.26,.77-.53,1.15-.79,.26-.18,.55-.45,.46-.75-.11-.36-.61-.36-.97-.25-1.44,.41-2.74,1.29-3.66,2.47,.54-.89,1.5-1.63,2.57-2.06,.13-.05,.27-.1,.37-.2,.1-.1,.16-.26,.09-.38-.09-.17-.33-.16-.52-.13-1.71,.31-3.3,1.24-4.49,2.65-.88,.65-1.53,1.62-1.9,2.75-.69,.68-1.33,1.43-1.9,2.21l2.4,1.67c.59-.74,1.27-1.41,2.01-2.01,1.76,.11,4.63-.85,4.36-1.85-.19-.7-1.45,.15-2.17,.22,1.19-.51,2.34-1.09,3.45-1.75,.26-.16,.56-.47,.38-.72-.14-.19-.44-.13-.66-.05-.61,.24-1.2,.53-1.76,.87,.7-.39,1.41-.78,2.11-1.17,.19-.11,.39-.22,.53-.39,.14-.17,.2-.43,.08-.62-.18-.31-.64-.26-.98-.14Z"/></g><path d="M220.09,55.22c.26-.31,.26-.6,.2-.8-.15-.5-.74-.71-1.43-.51-.06,.02-.12,.03-.17,.05,0-.02-.02-.04-.03-.05-.09-.16-.33-.42-.91-.31-1.78,.32-3.45,1.29-4.69,2.74-.89,.67-1.57,1.65-1.97,2.82-.68,.68-1.31,1.42-1.88,2.2-.12,.17-.09,.41,.08,.53,.17,.12,.41,.08,.53-.08,.56-.77,1.19-1.5,1.86-2.17,.04-.04,.08-.09,.09-.15,.35-1.08,.96-1.97,1.76-2.56,.02-.02,.04-.04,.06-.06,1.05-1.24,2.45-2.11,3.95-2.45-1.11,.48-2.04,1.26-2.58,2.14-.1,.17-.06,.39,.11,.51,.16,.11,.39,.08,.51-.08,.65-.83,1.5-1.51,2.45-1.96,.07-.03,.14-.06,.22-.1,.26-.11,.52-.21,.79-.28,.26-.07,.46-.04,.5,0,0,.02-.03,.13-.31,.33l-1.08,.75c-.55,.29-1.06,.64-1.52,1.05-.15,.13-.17,.36-.04,.52,.12,.16,.35,.19,.51,.08l1.44-.99c.27-.14,.54-.26,.82-.36,.29-.1,.5-.08,.53-.03,.02,.03,0,.12-.06,.19-.09,.12-.26,.21-.41,.3l-1.36,.75c-.26,.13-.51,.27-.76,.42-.18,.11-.23,.33-.13,.51,.1,.18,.33,.24,.51,.14l.74-.41c.32-.16,.64-.31,.98-.43,.04-.02,.08-.03,.11-.04-.04,.04-.09,.08-.16,.12-1.09,.65-2.24,1.23-3.4,1.73-.17,.07-.26,.26-.22,.44,.05,.18,.22,.3,.4,.28,.29-.03,.62-.15,.94-.27,.26-.09,.74-.26,.83-.23,.02,.06-.01,.13-.09,.22-.53,.64-2.52,1.23-3.88,1.15-.09,0-.19,.02-.26,.08-.76,.61-1.46,1.3-2.07,2.06-.13,.16-.1,.4,.06,.53,.07,.06,.15,.08,.24,.08,.11,0,.22-.05,.29-.14,.55-.68,1.17-1.31,1.84-1.86,1.47,.06,3.64-.55,4.37-1.44,.29-.36,.29-.68,.23-.9-.05-.17-.13-.29-.22-.37,.45-.24,.89-.48,1.32-.74,.12-.07,.53-.34,.61-.74,.04-.19,0-.37-.11-.53-.01-.01-.02-.03-.04-.05,.09-.07,.17-.15,.25-.24,.25-.32,.29-.74,.11-1.04-.11-.18-.27-.31-.47-.37Z"/></g><path d="M214.91,57.04c-.2-.04-.4,.1-.44,.31-.16,.93-.9,1.73-1.81,1.97-.2,.05-.33,.26-.27,.46,.04,.17,.2,.29,.37,.29,.03,0,.06,0,.09-.01,1.19-.3,2.16-1.36,2.37-2.57,.03-.21-.1-.4-.31-.44Z"/><path d="M219.21,79.79c-3.59-.67-8.66-2.11-13.58-3.84-.53-.19-1-.37-1.34-.68-.28-.26-.51-.71-.38-1.09,.01-.03,.02-.06,.02-.09,.44-4.57,2.11-8.83,4.84-12.37,.04,.11,.07,.22,.12,.32,.15,.32,.39,.61,.73,.88,.73,.59,1.71,.94,2.81,1.01-.32,2.76-.97,5.35-1.99,7.91-.68,1.03-1.76,1.78-2.96,2.06-.2,.05-.33,.25-.28,.46,.05,.2,.26,.33,.46,.28,1.4-.33,2.65-1.21,3.44-2.41,.01-.02,.03-.04,.03-.07,1.1-2.76,1.79-5.55,2.1-8.55,.01-.11-.02-.21-.1-.29-.07-.08-.17-.13-.28-.13-1.09,0-2.07-.3-2.75-.86-.25-.2-.42-.41-.52-.62-.05-.11-.08-.22-.12-.34-.06-.21-.13-.42-.27-.62-.07-.1-.18-.16-.3-.16-.13,0-.23,.05-.31,.14-3.05,3.74-4.92,8.31-5.41,13.24-.22,.7,.13,1.43,.59,1.86,.45,.41,.99,.62,1.6,.84,4.95,1.75,10.07,3.2,13.69,3.87,.02,0,.05,0,.07,0,.18,0,.34-.13,.37-.31,.04-.21-.1-.4-.3-.44Z"/><path d="M219.08,72.41l-7.64-1.07c-.21-.03-.4,.11-.43,.32-.03,.21,.12,.4,.32,.43l7.64,1.07s.04,0,.05,0c.19,0,.35-.14,.37-.33,.03-.21-.12-.4-.32-.43Z"/><path d="M223.71,72.9c-.13-.17-.36-.2-.53-.07-.17,.13-.2,.36-.07,.53,.45,.6,.83,1.25,1.12,1.94,.06,.15,.2,.23,.35,.23,.05,0,.1,0,.14-.03,.19-.08,.29-.3,.21-.49-.31-.75-.72-1.46-1.21-2.11Z"/><path d="M229.29,72.22c-.2-.05-.41,.07-.46,.27-.22,.87-.52,1.87-1.1,2.67-.59,.81-1.42,1.32-2.24,1.35-.86,.03-1.75-.43-2.4-1.25-.63-.79-.98-1.78-1.25-2.72-.06-.2-.27-.31-.47-.26-.2,.06-.32,.27-.26,.47,.28,.97,.67,2.09,1.39,2.98,.77,.97,1.85,1.53,2.9,1.53,.04,0,.08,0,.12,0,1.04-.04,2.1-.67,2.82-1.67,.65-.9,.98-1.99,1.22-2.93,.05-.2-.07-.41-.27-.46Z"/><path d="M234.45,72.96c-.55-.21-1.1-.34-1.63-.38-.21-.02-.39,.14-.41,.34-.02,.21,.14,.39,.34,.41,.46,.04,.94,.15,1.43,.34,.04,.02,.09,.02,.13,.02,.15,0,.3-.09,.35-.24,.07-.2-.02-.41-.22-.49Z"/><path d="M239.26,75.02c-.14-.5-.32-1.12-.77-1.57-.52-.52-1.34-.74-2.2-.59-.73,.12-1.39,.47-1.97,.78-.03,.02-.06,.04-.09,.07-1.6,1.6-1.48,8.94,.19,12.08,.1,.18,.33,.26,.51,.16,.18-.1,.25-.33,.16-.51-1.59-2.99-1.59-9.79-.36-11.15,.54-.29,1.1-.57,1.69-.67,.62-.1,1.19,.04,1.54,.38,.29,.29,.43,.72,.58,1.25,1.6,5.59,3.02,11.31,4.22,17,.04,.18,.19,.3,.37,.3,.03,0,.05,0,.08,0,.2-.04,.33-.24,.29-.45-1.21-5.71-2.63-11.45-4.24-17.06Z"/><path d="M234.71,83.91c-.21,.03-.34,.23-.31,.44l1.27,7.54c.03,.18,.19,.32,.37,.32,.02,0,.04,0,.06,0,.21-.03,.34-.23,.31-.44l-1.27-7.54c-.03-.21-.23-.35-.44-.31Z"/><path d="M231.95,73.06c-.19-.09-.41,0-.5,.18-.92,1.97-1.44,4.25-1.48,6.48-2.67,.09-5.37,.09-8.03-.03-.23-.01-.39,.15-.39,.36,0,.21,.15,.39,.36,.39,1.46,.06,2.94,.09,4.41,.09,1.35,0,2.7-.03,4.04-.08,.2,0,.36-.18,.36-.38-.01-2.23,.49-4.54,1.41-6.52,.09-.19,0-.41-.18-.5Z"/><path d="M221.74,72.91c.04-.21-.09-.4-.3-.44-.21-.04-.4,.09-.44,.3-.47,2.41-.34,4.94,.36,7.29,.05,.16,.2,.27,.36,.27,.04,0,.07,0,.11-.02,.2-.06,.31-.27,.26-.47-.67-2.24-.78-4.64-.34-6.94Z"/><path d="M220.34,83.46c-.91-3.39-1.11-7.32-.53-10.31l1.14-.32c.2-.06,.32-.26,.26-.47-.06-.2-.26-.32-.47-.26l-1.36,.38c-.14,.04-.24,.15-.27,.29-.67,3.18-.48,7.24,.49,10.88,.73,2.72,2.57,6.27,4.06,8.7,.07,.12,.2,.18,.32,.18,.07,0,.14-.02,.2-.06,.18-.11,.23-.34,.13-.52-1.46-2.38-3.26-5.86-3.97-8.5Z"/></g></g></g></g></g><g><g><g><rect class="cls-9" x="32.71" y="70.38" width="27.78" height="20.71" transform="translate(-.21 .12) rotate(-.15)"/><path class="cls-12" d="M60.46,70.07l-27.78,.07c-.15,0-.27,.12-.27,.28l.05,20.71c0,.07,.03,.14,.08,.19,.05,.05,.12,.08,.19,.08l27.78-.07s.03,0,.04,0c.13-.02,.23-.13,.23-.27l-.05-20.71c0-.07-.03-.14-.08-.19-.05-.05-.12-.08-.19-.08Zm-.22,20.71l-27.23,.07-.05-20.16,27.23-.07,.05,20.16Z"/></g><g><rect class="cls-9" x="32.71" y="70.41" width="1.68" height="20.71" transform="translate(-.2 .08) rotate(-.14)"/><path class="cls-12" d="M34.37,70.13h-1.68c-.07,0-.14,.03-.19,.09-.05,.05-.08,.12-.08,.19l.05,20.71c0,.07,.03,.14,.08,.19,.05,.05,.12,.08,.19,.08h1.68s.03,0,.04,0c.13-.02,.23-.13,.23-.27l-.05-20.71c0-.15-.12-.27-.28-.27Zm-.22,20.71h-1.13s-.05-20.16-.05-20.16h1.13s.05,20.16,.05,20.16Z"/></g><g><g><rect class="cls-9" x="48.85" y="71.33" width="7.16" height="6.73" transform="translate(-.19 .13) rotate(-.15)"/><path class="cls-12" d="M56,71.05l-7.16,.02c-.07,0-.14,.03-.19,.08-.05,.05-.08,.12-.08,.19l.02,6.73c0,.07,.03,.14,.08,.19,.05,.05,.12,.08,.19,.08l7.15-.02s.03,0,.04,0c.13-.02,.23-.13,.23-.27l-.02-6.73c0-.15-.12-.27-.28-.27Zm-.26,6.74l-6.61,.02-.02-6.18,6.61-.02,.02,6.18Z"/></g><g><rect class="cls-9" x="52.43" y="71.33" width="3.58" height="6.73" transform="translate(-.19 .14) rotate(-.15)"/><path class="cls-12" d="M56,71.05h-3.58c-.16,.01-.27,.13-.27,.28l.02,6.73c0,.07,.03,.14,.08,.19,.05,.05,.12,.08,.19,.08h3.58s.03-.01,.04-.01c.13-.02,.23-.13,.23-.27l-.02-6.73c0-.07-.03-.14-.08-.19-.05-.05-.12-.08-.19-.08Zm-.26,6.74h-3.03s-.02-6.18-.02-6.18h3.03s.02,6.18,.02,6.18Z"/></g></g><g><g><rect class="cls-9" x="49.09" y="82.59" width="7.16" height="6.73" transform="translate(-.22 .13) rotate(-.15)"/><path class="cls-12" d="M56.24,82.31l-7.16,.02c-.15,0-.27,.12-.27,.28l.02,6.73c0,.15,.12,.27,.28,.27l7.16-.02s.03,0,.04,0c.06,0,.11-.04,.15-.08,.05-.05,.08-.12,.08-.19l-.02-6.73c0-.07-.03-.14-.08-.19-.05-.05-.12-.08-.19-.08Zm-.26,6.74l-6.61,.02-.02-6.18,6.61-.02,.02,6.18Z"/></g><g><rect class="cls-9" x="52.67" y="82.59" width="3.58" height="6.73" transform="translate(-.22 .14) rotate(-.15)"/><path class="cls-12" d="M56.24,82.31h-3.58c-.16,.01-.27,.13-.27,.28l.02,6.73c0,.15,.12,.27,.28,.27h3.58s.03-.01,.04-.01c.06,0,.11-.04,.15-.08,.05-.05,.08-.12,.08-.19l-.02-6.73c0-.07-.03-.14-.08-.19-.05-.05-.12-.08-.19-.08Zm-.26,6.74h-3.03s-.02-6.18-.02-6.18h3.03s.02,6.18,.02,6.18Z"/></g></g><g><g><rect class="cls-9" x="36.25" y="82.62" width="7.16" height="3.37" transform="translate(-.22 .1) rotate(-.15)"/><path class="cls-12" d="M43.4,82.34l-7.16,.02c-.07,0-.14,.03-.19,.08-.05,.05-.08,.12-.08,.19v3.37c0,.15,.13,.27,.28,.27l7.16-.02s.03,0,.04,0c.06,0,.11-.04,.15-.08,.05-.05,.08-.12,.08-.19v-3.37c0-.15-.13-.27-.28-.27Zm-.27,3.37l-6.61,.02v-2.82s6.6-.02,6.6-.02v2.82Z"/></g><g><rect class="cls-9" x="39.83" y="82.62" width="3.58" height="3.37" transform="translate(-.22 .11) rotate(-.15)"/><path class="cls-12" d="M43.4,82.34h-3.58c-.07,.01-.14,.04-.19,.09-.05,.05-.08,.12-.08,.19v3.37c0,.07,.04,.14,.09,.19,.05,.05,.12,.08,.19,.08h3.58s.03-.01,.04-.01c.06,0,.11-.04,.15-.08,.05-.05,.08-.12,.08-.19v-3.37c0-.15-.13-.27-.28-.27Zm-.27,3.37h-3.03s0-2.81,0-2.81h3.03s0,2.81,0,2.81Z"/></g></g><g><rect class="cls-9" x="57.26" y="89.05" width=".95" height="1.89" transform="translate(-.23 .15) rotate(-.14)"/><path class="cls-12" d="M58.2,88.77h-.95c-.07,0-.14,.03-.19,.08-.05,.05-.08,.12-.08,.19v1.89c0,.15,.13,.27,.28,.27h.95s.03,0,.04,0c.06,0,.11-.04,.15-.08,.05-.05,.08-.12,.08-.19v-1.89c0-.15-.13-.27-.28-.27Zm-.27,1.89h-.4s0-1.34,0-1.34h.4s0,1.34,0,1.34Z"/></g><g><rect class="cls-9" x="46.92" y="89.08" width=".95" height="1.89" transform="translate(-.23 .12) rotate(-.14)"/><path class="cls-12" d="M47.86,88.8h-.95c-.07,0-.14,.03-.19,.08-.05,.05-.08,.12-.08,.19v1.89c0,.07,.03,.14,.09,.19,.05,.05,.12,.08,.19,.08h.95s.03,0,.04,0c.13-.02,.23-.13,.23-.27v-1.89c0-.15-.13-.27-.28-.27Zm-.27,1.89h-.4s0-1.34,0-1.34h.4s0,1.34,0,1.34Z"/></g><g><rect class="cls-9" x="45.37" y="88.63" width="14.2" height=".86" transform="translate(-.23 .13) rotate(-.15)"/><path class="cls-12" d="M59.57,88.34l-14.2,.04c-.07,0-.14,.03-.19,.08-.05,.05-.08,.12-.08,.19v.86c0,.15,.13,.27,.28,.27l14.2-.04s.03,0,.04,0c.06,0,.11-.04,.15-.08,.05-.05,.08-.12,.08-.19v-.86c0-.15-.13-.27-.28-.27Zm-.27,.86l-13.66,.04v-.31s13.65-.03,13.65-.03v.31Z"/></g><g><rect class="cls-11" x="41.54" y="75.28" width="18.94" height="5.64" transform="translate(-.2 .13) rotate(-.15)"/><path class="cls-12" d="M60.48,74.98l-18.94,.05c-.15,0-.27,.12-.27,.28v5.64c.01,.07,.04,.14,.1,.19,.05,.05,.12,.08,.19,.08l18.94-.05s.03,0,.04,0c.13-.02,.23-.13,.23-.27v-5.64c-.01-.07-.04-.14-.1-.19-.05-.05-.12-.08-.19-.08Zm-.26,5.64l-18.39,.05v-5.09s18.38-.05,18.38-.05v5.09Z"/></g><g><rect class="cls-9" x="41.54" y="74.7" width="18.94" height=".84" transform="translate(-.19 .13) rotate(-.15)"/><path class="cls-12" d="M60.48,74.4l-18.94,.05c-.16,0-.27,.12-.27,.28v.84c0,.07,.03,.14,.08,.19,.05,.05,.12,.08,.19,.08l18.94-.05s.03,0,.04,0c.13-.02,.23-.13,.23-.27v-.84c0-.07-.03-.14-.08-.19-.05-.05-.12-.08-.19-.08Zm-.27,.84l-18.39,.05v-.29s18.39-.05,18.39-.05v.29Z"/></g><g><rect class="cls-11" x="31.98" y="69.52" width="29.46" height=".97" transform="translate(-.18 .12) rotate(-.15)"/><path class="cls-12" d="M61.44,69.2l-29.46,.07c-.07,0-.14,.03-.19,.08-.05,.05-.08,.12-.08,.19v.97c0,.15,.13,.27,.28,.27l29.46-.07s.03,0,.04,0c.06,0,.11-.04,.15-.08,.05-.05,.08-.12,.08-.19v-.96c0-.15-.13-.27-.28-.27Zm-.27,.55v.42s-28.91,.07-28.91,.07v-.42"/></g><g><rect class="cls-9" x="60.62" y="77.41" width="6.1" height=".84" transform="translate(-.2 .16) rotate(-.15)"/><path class="cls-12" d="M66.73,77.13l-6.1,.02c-.15,0-.27,.12-.27,.28v.84c0,.07,.03,.14,.08,.19,.05,.05,.12,.08,.19,.08l6.1-.02s.03,0,.04,0c.13-.02,.23-.13,.23-.27v-.84c0-.07-.03-.14-.08-.19-.05-.05-.12-.08-.19-.08Zm-.27,.84h-5.55s0-.28,0-.28h5.55s0,.28,0,.28Z"/></g><g><rect class="cls-9" x="60.59" y="78.25" width="5.58" height="12.52" transform="translate(-.21 .16) rotate(-.15)"/><path class="cls-12" d="M66.15,77.97h-5.58c-.07,.01-.14,.04-.19,.09-.05,.05-.08,.12-.08,.19l.03,12.52c0,.15,.12,.27,.28,.27h5.58s.03-.02,.04-.02c.06,0,.11-.04,.15-.08,.05-.05,.08-.12,.08-.19l-.03-12.52c0-.15-.12-.27-.28-.27Zm-.24,12.52h-5.03s-.03-11.95-.03-11.95h5.03s.03,11.95,.03,11.95Z"/></g><g><rect class="cls-12" x="61.48" y="80.45" width="3.79" height="8.12" transform="translate(-.21 .16) rotate(-.15)"/><path class="cls-12" d="M65.26,80.17h-3.79c-.07,.01-.14,.04-.19,.09-.05,.05-.08,.12-.08,.19l.02,8.12c0,.15,.12,.27,.28,.27h3.79s.03-.01,.04-.01c.13-.02,.23-.13,.23-.27l-.02-8.12c0-.07-.03-.14-.08-.19-.05-.05-.12-.08-.19-.08Zm-.25,8.12h-3.24s-.02-7.57-.02-7.57h3.24s.02,7.57,.02,7.57Z"/></g><g><rect class="cls-9" x="60.58" y="88.57" width="6.24" height=".8" transform="translate(-.23 .16) rotate(-.15)"/><path class="cls-12" d="M66.82,88.29l-6.24,.02c-.07,0-.14,.03-.19,.08-.05,.05-.08,.12-.08,.19v.8c0,.15,.13,.27,.28,.27l6.24-.02s.03,0,.04,0c.13-.02,.23-.13,.23-.27v-.8c0-.07-.03-.14-.08-.19-.05-.05-.12-.08-.19-.08Zm-.27,.8h-5.69s0-.23,0-.23h5.69s0,.23,0,.23Z"/></g><g><rect class="cls-9" x="60.59" y="89.39" width="6.94" height=".8" transform="translate(-.23 .16) rotate(-.15)"/><path class="cls-12" d="M67.53,89.1l-6.94,.02c-.15,0-.27,.12-.27,.28v.8c0,.07,.03,.14,.08,.19,.05,.05,.12,.08,.19,.08l6.94-.02s.03,0,.04,0c.13-.02,.23-.13,.23-.27v-.8c0-.07-.03-.14-.08-.19-.05-.05-.12-.08-.19-.08Zm-.27,.8l-6.39,.02v-.25s6.39-.02,6.39-.02v.25Z"/></g><g><rect class="cls-9" x="60.59" y="90.23" width="7.73" height=".8" transform="translate(-.23 .16) rotate(-.15)"/><path class="cls-12" d="M68.31,89.95l-7.73,.02c-.07,0-.14,.03-.19,.08-.05,.05-.08,.12-.08,.19v.8c0,.15,.13,.27,.28,.27l7.73-.02s.03,0,.04,0c.13-.02,.23-.13,.23-.27v-.8c0-.07-.03-.14-.08-.19-.05-.05-.12-.08-.19-.08Zm-.27,.8l-7.18,.02v-.25s7.18-.02,7.18-.02v.25Z"/></g></g><g><g><rect class="cls-9" x="70.65" y="85.91" width=".74" height="4.91" transform="translate(-.5 .41) rotate(-.33)"/><path class="cls-12" d="M71.64,85.91c0-.07-.03-.14-.08-.19-.05-.05-.12-.08-.2-.08h-.74c-.15,0-.27,.13-.27,.28l.03,4.91c0,.07,.03,.14,.08,.19,.02,.02,.03,.03,.05,.04,.04,.03,.09,.04,.14,.04h.74c.15,0,.27-.13,.27-.28l-.03-4.91Zm-.71,4.64l-.02-4.36h.19s.02,4.36,.02,4.36h-.19Z"/></g><g><path class="cls-12" d="M73.36,85.56c.31-.32,.49-.38,.63-.66,.39-.75,.07-1.59-.72-1.88-.16-.06-.33-.08-.5-.09,.07-.59-.26-1.15-.87-1.38-.79-.29-1.75,.08-2.15,.83-.1,.19-.15,.39-.16,.58-.69,.16-1.19,.74-1.19,1.44,0,.32,.12,.62,.3,.86-.31,.27-.5,.65-.5,1.08,0,.82,.71,1.47,1.57,1.47,.5,0,.94-.23,1.22-.57,.11,.75,.91,1.71,2.09,.99,1.71-1.04,.32-2.52,.27-2.67Z"/><path class="cls-12" d="M73.72,85.6s.08-.07,.11-.1c.16-.13,.29-.25,.41-.47,.23-.43,.26-.91,.1-1.34-.17-.43-.51-.76-.97-.92-.1-.04-.2-.06-.31-.08-.04-.62-.44-1.16-1.06-1.39-.91-.33-2.03,.1-2.48,.96-.08,.16-.14,.32-.17,.49-.73,.25-1.22,.9-1.21,1.65,0,.29,.08,.57,.23,.83-.27,.31-.42,.71-.42,1.12,0,.47,.2,.91,.55,1.24,.09,.09,.19,.16,.3,.22,.3,.18,.64,.28,1,.27,.4,0,.77-.13,1.08-.35,.16,.35,.43,.7,.82,.88,.33,.16,.87,.25,1.55-.16,.53-.32,.85-.72,.95-1.19,.15-.7-.25-1.36-.47-1.67Zm-.44-2.57h0s0,0,0,0Zm-.33,4.96c-.38,.23-.73,.27-1.03,.13-.38-.18-.6-.61-.65-.93-.02-.11-.09-.2-.2-.23-.1-.03-.22,0-.29,.09-.25,.3-.62,.47-1.01,.47-.35,0-.67-.12-.92-.35-.24-.22-.37-.52-.38-.84,0-.33,.14-.64,.41-.88,.11-.1,.12-.26,.04-.38-.16-.21-.24-.45-.25-.69,0-.55,.4-1.03,.98-1.17,.12-.03,.2-.13,.21-.25,0-.16,.05-.32,.13-.46,.33-.63,1.14-.94,1.81-.7,.08,.03,.15,.06,.21,.1,.35,.21,.53,.58,.48,.98,0,.08,.01,.15,.06,.21,.05,.06,.12,.09,.2,.1,.16,0,.3,.03,.42,.07h0c.31,.11,.53,.33,.64,.6,.11,.28,.08,.59-.07,.88-.07,.13-.14,.19-.28,.31-.09,.07-.19,.16-.3,.28-.07,.08-.1,.19-.06,.29,.02,.05,.05,.1,.11,.18,.17,.24,.55,.79,.44,1.33-.07,.31-.3,.6-.7,.84Z"/></g></g><g><g><g><rect class="cls-9" x="5.76" y="85.05" width=".74" height="5.89" transform="translate(-.51 .04) rotate(-.33)"/><path class="cls-12" d="M6.75,85.04c0-.07-.03-.14-.08-.19-.05-.05-.12-.08-.2-.08h-.74c-.15,0-.27,.13-.27,.28l.03,5.89c0,.07,.03,.14,.08,.19,.02,.02,.03,.03,.05,.04,.04,.03,.09,.04,.14,.04h.74c.15,0,.27-.13,.27-.28l-.03-5.89Zm-.7,5.62l-.03-5.34h.19s.03,5.34,.03,5.34h-.19Z"/></g><g><path class="cls-12" d="M8.4,84.25c.19-.29,.3-.65,.29-1.04,0-.83-.52-1.52-1.21-1.71-.01-.23-.07-.46-.17-.69-.4-.89-1.37-1.32-2.16-.97-.62,.28-.93,.96-.86,1.66-.17,0-.34,.04-.5,.11-.79,.36-1.1,1.37-.7,2.26,.15,.33,.37,.59,.64,.78-.05,.18-.08,.36-.08,.55,0,.97,.71,1.76,1.58,1.75,.33,0,.64-.12,.89-.32,.29,.41,.73,.67,1.23,.67,.86,0,1.56-.8,1.56-1.78,0-.51-.2-.97-.51-1.29Z"/><path class="cls-12" d="M8.73,84.21c.16-.31,.24-.65,.23-1,0-.87-.5-1.63-1.23-1.91-.03-.21-.09-.41-.18-.6-.46-1.03-1.59-1.52-2.52-1.1-.63,.28-1.02,.94-1.03,1.67-.12,.02-.22,.06-.33,.1h0c-.92,.42-1.3,1.59-.83,2.62,.14,.3,.34,.57,.58,.77-.03,.15-.05,.3-.05,.45,0,.76,.39,1.43,.96,1.77,.27,.16,.57,.25,.9,.25,.29,0,.58-.08,.84-.23,.35,.37,.8,.58,1.28,.58,1.01,0,1.83-.93,1.83-2.06,0-.49-.16-.96-.45-1.32Zm-1.38,2.83c-.39,0-.75-.2-1-.56-.04-.06-.11-.1-.19-.11-.07-.01-.15,0-.21,.06-.21,.17-.46,.26-.72,.26-.71,0-1.29-.66-1.3-1.48,0-.15,.02-.31,.07-.48,.03-.11,0-.23-.11-.3-.23-.17-.42-.4-.55-.67-.34-.75-.09-1.6,.56-1.89,.12-.05,.25-.08,.4-.09,.08,0,.15-.04,.2-.1,.05-.06,.07-.13,.06-.21-.07-.61,.21-1.16,.7-1.38,.65-.29,1.45,.08,1.79,.83,.09,.19,.14,.39,.15,.59,0,.12,.09,.22,.2,.25,.59,.16,1,.75,1,1.44,0,.32-.09,.62-.25,.89-.07,.11-.05,.25,.03,.34,.28,.29,.43,.68,.44,1.1,0,.82-.57,1.5-1.28,1.5Z"/></g></g><g><polygon class="cls-9" points="11.18 70.71 11.23 78.92 29.56 78.81 29.5 68.08 11.18 70.71"/><path class="cls-12" d="M29.77,68.08c0-.08-.04-.16-.1-.21-.06-.05-.14-.08-.22-.06l-18.32,2.63c-.14,.02-.24,.14-.24,.27l.05,8.21c0,.07,.03,.14,.08,.19,.02,.02,.03,.03,.05,.04,.04,.03,.09,.04,.14,.04l18.33-.11c.15,0,.27-.13,.27-.28l-.06-10.73Zm-18.28,10.56l-.04-7.69,17.77-2.55,.06,10.14-17.78,.1Z"/></g><g><g><rect class="cls-9" x="19.18" y="72.12" width="7.16" height="6.73" transform="translate(-.43 .13) rotate(-.33)"/><path class="cls-12" d="M26.59,72.09c0-.15-.13-.27-.28-.27l-7.16,.04c-.07,0-.14,.03-.19,.08-.05,.05-.08,.12-.08,.19l.04,6.73c0,.1,.05,.19,.13,.23,.04,.03,.09,.04,.14,.04l7.16-.04c.07,0,.14-.03,.19-.08,.05-.05,.08-.12,.08-.19l-.04-6.73Zm-7.12,6.5l-.04-6.18,6.6-.04,.04,6.18-6.6,.04Z"/></g><g><rect class="cls-9" x="22.76" y="72.11" width="3.58" height="6.73" transform="translate(-.43 .14) rotate(-.33)"/><path class="cls-12" d="M26.59,72.09c0-.07-.03-.14-.08-.19-.05-.05-.12-.08-.19-.08l-3.58,.02c-.15,0-.27,.13-.27,.28l.04,6.73c0,.07,.03,.14,.08,.19,.02,.02,.03,.03,.05,.04,.04,.03,.09,.04,.14,.04l3.58-.02c.15,0,.27-.13,.27-.28l-.04-6.73Zm-3.54,6.48l-.04-6.18,3.03-.02,.04,6.18-3.03,.02Z"/></g></g><g><rect class="cls-9" x="28.47" y="74.43" width=".53" height=".83" transform="translate(-.43 .17) rotate(-.33)"/><path class="cls-12" d="M29.14,74.42c0-.08-.06-.14-.14-.14h-.53s-.07,.02-.1,.04c-.03,.03-.04,.06-.04,.1v.83s.03,.09,.07,.12c.02,.01,.05,.02,.07,.02h.53c.08,0,.14-.07,.14-.14v-.83Zm-.53,.7v-.56s.25,0,.25,0v.56s-.25,0-.25,0Z"/></g><g><rect class="cls-9" x="16.16" y="74.37" width=".53" height=".83" transform="translate(-.43 .09) rotate(-.33)"/><path class="cls-12" d="M16.82,74.37s-.01-.07-.04-.1c-.03-.03-.06-.04-.1-.04h-.53c-.08,0-.14,.07-.14,.14v.83s.02,.07,.05,.1c0,0,.02,.01,.03,.02,.02,.01,.05,.02,.07,.02h.53c.08,0,.14-.07,.14-.14v-.83Zm-.53,.7v-.56s.25,0,.25,0v.56s-.25,0-.25,0Z"/></g><g><rect class="cls-9" x="20.27" y="74.47" width=".53" height=".83" transform="translate(-.43 .12) rotate(-.33)"/><path class="cls-12" d="M20.93,74.47s-.01-.07-.04-.1c-.03-.03-.06-.04-.1-.04h-.53c-.08,0-.14,.07-.14,.14v.83s.02,.07,.05,.1c0,0,.02,.01,.03,.02,.02,.01,.05,.02,.07,.02h.53c.08,0,.14-.07,.14-.14v-.83Zm-.53,.7v-.56s.25,0,.25,0v.56s-.25,0-.25,0Z"/></g><g><rect class="cls-9" x="24.37" y="74.32" width=".53" height=".83" transform="translate(-.43 .14) rotate(-.33)"/><path class="cls-12" d="M25.03,74.32s-.01-.07-.04-.1c-.03-.03-.06-.04-.1-.04h-.53c-.08,0-.14,.07-.14,.14v.83s.02,.07,.05,.1c0,0,.02,.01,.03,.02,.02,.01,.05,.02,.07,.02h.53c.08,0,.14-.07,.14-.14v-.83Zm-.53,.7v-.56s.25,0,.25,0v.56s-.25,0-.25,0Z"/></g><g><rect class="cls-9" x="11.26" y="78.86" width="18.34" height="12.21" transform="translate(-.49 .12) rotate(-.33)"/><path class="cls-12" d="M29.84,78.81c0-.15-.13-.27-.28-.27l-18.33,.11c-.15,0-.27,.13-.27,.28l.07,12.21c0,.07,.03,.14,.08,.19,.02,.02,.03,.03,.05,.04,.04,.03,.09,.04,.14,.04l18.34-.11c.07,0,.14-.03,.19-.08,.05-.05,.08-.12,.08-.19l-.07-12.21Zm-18.27,12.04l-.07-11.66,17.78-.1,.07,11.66-17.78,.1Z"/></g><g><g><rect class="cls-9" x="12.65" y="82.72" width="7.16" height="6.73" transform="translate(-.49 .09) rotate(-.33)"/><path class="cls-12" d="M20.06,82.7c0-.15-.13-.27-.28-.27l-7.15,.04c-.15,0-.27,.13-.27,.28l.04,6.73c0,.1,.05,.19,.13,.23,.04,.03,.09,.04,.14,.04l7.16-.04c.07,0,.14-.03,.19-.08,.05-.05,.08-.12,.08-.2l-.04-6.73Zm-7.12,6.5l-.04-6.18,6.6-.04,.04,6.18-6.6,.04Z"/></g><g><rect class="cls-9" x="16.23" y="82.71" width="3.58" height="6.73" transform="translate(-.49 .1) rotate(-.33)"/><path class="cls-12" d="M20.06,82.7c0-.15-.13-.27-.28-.27l-3.58,.02c-.15,0-.27,.13-.27,.28l.04,6.73c0,.07,.03,.14,.08,.19,.02,.02,.03,.03,.05,.04,.04,.03,.09,.04,.14,.04l3.58-.02c.07,0,.14-.03,.19-.08,.05-.05,.08-.12,.08-.19l-.04-6.73Zm-3.54,6.48l-.03-6.18,3.03-.02,.04,6.18-3.03,.02Z"/></g></g><g><rect class="cls-11" x="11.74" y="81.76" width="8.84" height="1.63" transform="translate(-.47 .09) rotate(-.33)"/><path class="cls-12" d="M20.84,81.73c0-.07-.03-.14-.08-.19-.05-.05-.12-.08-.19-.08l-8.84,.05c-.15,0-.27,.13-.27,.28v1.63c0,.07,.04,.14,.09,.19,.02,.02,.03,.03,.05,.04,.04,.03,.09,.04,.14,.04l8.84-.05c.15,0,.27-.13,.27-.28v-1.63Zm-8.84,1.4v-1.08s8.28-.05,8.28-.05v1.08s-8.28,.05-8.28,.05Z"/></g><g><rect class="cls-9" x="22.82" y="81.71" width="5.01" height="9.33" transform="translate(-.49 .15) rotate(-.33)"/><path class="cls-12" d="M28.08,81.69c0-.15-.13-.27-.28-.27l-5.01,.03c-.07,0-.14,.03-.19,.08-.05,.05-.08,.12-.08,.19l.05,9.33c0,.1,.05,.19,.13,.23,.04,.03,.09,.04,.14,.04l5.01-.03c.07,0,.14-.03,.19-.08,.05-.05,.08-.12,.08-.19l-.05-9.33Zm-4.96,9.09l-.05-8.78,4.46-.03,.05,8.78-4.46,.03Z"/></g><g><rect class="cls-9" x="24.42" y="82.47" width="1.78" height="1.89" transform="translate(-.48 .15) rotate(-.33)"/><path class="cls-12" d="M26.47,82.46c0-.07-.03-.14-.08-.19-.05-.05-.12-.08-.19-.08h-1.78c-.07,.01-.14,.04-.19,.09-.05,.05-.08,.12-.08,.19v1.89c.01,.1,.06,.19,.14,.23,.04,.03,.09,.04,.14,.04h1.78c.15-.01,.27-.14,.27-.29v-1.89Zm-1.78,1.63v-1.34s1.23,0,1.23,0v1.34s-1.23,0-1.23,0Z"/></g><g><rect class="cls-9" x="24.44" y="85.43" width="1.78" height="1.89" transform="translate(-.5 .15) rotate(-.33)"/><path class="cls-12" d="M26.49,85.42c0-.07-.03-.14-.08-.19-.05-.05-.12-.08-.2-.08h-1.78c-.15,.01-.27,.14-.27,.29v1.89c.01,.07,.04,.14,.09,.19,.02,.02,.03,.03,.05,.04,.04,.03,.09,.04,.14,.04h1.78c.07-.01,.14-.04,.19-.09,.05-.05,.08-.12,.08-.19v-1.89Zm-1.78,1.63v-1.34s1.23,0,1.23,0v1.34s-1.23,0-1.23,0Z"/></g><g><rect class="cls-9" x="24.45" y="88.39" width="1.78" height="1.89" transform="translate(-.51 .15) rotate(-.33)"/><path class="cls-12" d="M26.5,88.38c0-.07-.03-.14-.08-.19-.05-.05-.12-.08-.2-.08h-1.78c-.15,.01-.27,.14-.27,.29v1.89c.01,.1,.06,.19,.14,.23,.04,.03,.09,.04,.14,.04h1.78c.07-.01,.14-.04,.19-.09,.05-.05,.08-.12,.08-.19v-1.89Zm-1.78,1.63v-1.34s1.23,0,1.23,0v1.34s-1.23,0-1.23,0Z"/></g><g><rect class="cls-9" x="15.99" y="75.29" width="13.56" height="5.68" transform="translate(-.45 .13) rotate(-.33)"/><path class="cls-12" d="M29.82,75.25c0-.07-.03-.14-.08-.19-.05-.05-.12-.08-.19-.08l-13.56,.08c-.07,0-.14,.03-.19,.08-.05,.05-.08,.12-.08,.2l.03,5.68c0,.1,.05,.19,.13,.23,.04,.03,.09,.04,.14,.04l13.56-.08c.15,0,.27-.13,.27-.28l-.03-5.68Zm-13.53,5.48l-.03-5.13,13.01-.07,.03,5.13-13.01,.07Z"/></g><g><rect class="cls-9" x="8.84" y="76.42" width="2.38" height="4.63" transform="translate(-.45 .06) rotate(-.33)"/><path class="cls-12" d="M11.49,76.41c0-.07-.03-.14-.08-.19-.05-.05-.12-.08-.19-.08h-2.38c-.15,.01-.27,.14-.27,.29l.03,4.63c0,.07,.03,.14,.08,.19,.02,.02,.03,.03,.05,.04,.04,.03,.09,.04,.14,.04h2.38c.15-.01,.27-.14,.27-.29l-.03-4.63Zm-2.36,4.37l-.02-4.08h1.83s.02,4.07,.02,4.07h-1.83Z"/></g><g><rect class="cls-9" x="15.98" y="74.12" width="13.54" height=".42" transform="translate(-.43 .13) rotate(-.33)"/><path class="cls-12" d="M29.66,74.08c0-.08-.06-.14-.14-.14l-13.54,.08c-.08,0-.14,.06-.14,.14v.42s.02,.07,.04,.1c0,0,.02,.01,.03,.02,.02,.01,.05,.02,.07,.02l13.54-.08s.07-.01,.1-.04c.03-.03,.04-.06,.04-.1v-.42Zm-13.54,.36v-.15s13.26-.08,13.26-.08v.15s-13.26,.08-13.26,.08Z"/></g><g><rect class="cls-9" x="8.53" y="75.35" width="2.68" height=".42" transform="translate(-.43 .06) rotate(-.33)"/><path class="cls-12" d="M11.34,75.34c0-.08-.06-.14-.14-.14l-2.68,.02c-.08,0-.14,.06-.14,.14v.42s.02,.07,.04,.1c0,0,.02,.01,.03,.02,.02,.01,.05,.02,.07,.02l2.68-.02s.07-.01,.1-.04c.03-.03,.04-.06,.04-.1v-.42Zm-2.68,.3v-.15s2.4-.01,2.4-.01v.15s-2.4,.01-2.4,.01Z"/></g><g><rect class="cls-9" x="8.83" y="75.77" width=".39" height=".42" transform="translate(-.43 .05) rotate(-.33)"/><path class="cls-12" d="M9.35,75.77c0-.08-.06-.14-.14-.14h-.39c-.08,0-.14,.06-.14,.14v.42s.02,.07,.04,.1c0,0,.02,.01,.03,.02,.02,.01,.05,.02,.07,.02h.39c.08,0,.14-.06,.14-.14v-.42Zm-.39,.29v-.15s.12,0,.12,0v.15s-.12,0-.12,0Z"/></g><g><g><rect class="cls-11" x="8.43" y="68.63" width="22.34" height=".84" transform="translate(-9.35 3.37) rotate(-7.94)"/><path class="cls-12" d="M30.88,67.05c-.02-.15-.16-.26-.31-.23l-22.13,3.09c-.15,.02-.26,.16-.23,.31l.12,.83c0,.07,.05,.14,.11,.18,0,0,.01,.01,.02,.02,.05,.03,.12,.05,.18,.04l22.13-3.09c.07-.01,.14-.05,.18-.11,.04-.06,.06-.13,.05-.2l-.12-.83Zm-22.05,3.65l-.04-.29,21.58-3.01,.04,.29-21.58,3.01Z"/></g><g><rect class="cls-9" x="8.82" y="69.22" width="21.86" height=".95" transform="translate(-9.44 3.4) rotate(-7.94)"/><path class="cls-12" d="M30.79,67.95c-.02-.15-.16-.26-.31-.23l-21.65,3.02c-.07,0-.14,.05-.18,.11-.04,.06-.06,.13-.05,.2l.13,.94c.01,.08,.06,.16,.13,.2,.05,.03,.12,.05,.18,.04l21.65-3.02c.07-.01,.14-.05,.18-.11,.04-.06,.06-.13,.05-.2l-.13-.94Zm-21.56,3.69l-.05-.4,21.11-2.95,.05,.4-21.11,2.95Z"/></g></g></g><g><path class="cls-12" d="M35.71,89.01c.19-.29,.31-.37,.37-.61,.18-.64-.21-1.23-.86-1.32-.13-.02-.27,0-.4,.01-.04-.46-.39-.84-.9-.91-.66-.09-1.33,.35-1.51,.99-.05,.16-.05,.32-.03,.47-.5,.24-.79,.77-.67,1.3,.06,.25,.19,.45,.38,.61-.19,.26-.28,.58-.2,.91,.14,.62,.79,1.01,1.45,.86,.38-.08,.68-.33,.84-.64,.21,.55,.98,1.16,1.77,.41,1.14-1.08-.17-1.99-.24-2.09Z"/><path class="cls-12" d="M35.99,88.99s.05-.06,.07-.09c.1-.13,.18-.24,.23-.43,.1-.37,.05-.74-.15-1.04-.2-.3-.52-.5-.89-.55-.08-.01-.17-.01-.25-.01-.13-.47-.53-.82-1.04-.89-.76-.11-1.54,.41-1.74,1.14-.04,.13-.05,.27-.05,.41-.52,.31-.78,.89-.66,1.47,.05,.22,.16,.42,.31,.6-.16,.29-.21,.61-.14,.93,.08,.36,.3,.67,.63,.86,.08,.05,.17,.09,.26,.12,.26,.09,.54,.11,.81,.05,.3-.07,.57-.22,.77-.44,.18,.25,.45,.46,.78,.54,.28,.06,.71,.05,1.16-.38,.36-.33,.53-.69,.53-1.07,0-.56-.42-1-.64-1.2Zm-.77-1.9h0s0,0,0,0Zm.57,3.86c-.25,.24-.51,.33-.77,.27-.32-.08-.56-.36-.65-.6-.03-.08-.1-.13-.19-.14-.09,0-.17,.04-.2,.12-.14,.27-.39,.46-.7,.53-.27,.06-.54,.02-.76-.12-.22-.13-.37-.34-.43-.58-.06-.25,0-.52,.17-.74,.07-.09,.05-.22-.04-.29-.16-.13-.26-.3-.3-.49-.09-.42,.13-.86,.56-1.06,.09-.04,.14-.13,.12-.23-.02-.12-.01-.25,.02-.38,.15-.54,.72-.91,1.27-.83,.06,0,.12,.02,.18,.04,.3,.1,.5,.35,.53,.67,0,.06,.04,.12,.08,.15,.05,.04,.11,.05,.17,.04,.12-.02,.23-.03,.33-.01h0c.25,.04,.46,.16,.59,.36,.13,.2,.16,.44,.09,.69-.03,.11-.08,.17-.16,.29-.05,.07-.12,.15-.19,.27-.04,.07-.04,.16,0,.23,.02,.04,.05,.07,.11,.12,.17,.15,.55,.51,.56,.94,0,.25-.13,.51-.4,.75Z"/></g><g><path class="cls-12" d="M31.88,89.5c.14-.21,.22-.27,.27-.44,.13-.46-.15-.89-.63-.95-.1-.01-.19,0-.29,0-.03-.34-.28-.61-.65-.66-.47-.07-.96,.25-1.09,.72-.03,.12-.04,.23-.02,.34-.36,.17-.57,.55-.49,.94,.04,.18,.14,.33,.27,.44-.14,.19-.2,.42-.15,.66,.1,.45,.57,.73,1.05,.63,.28-.06,.49-.24,.61-.46,.15,.4,.71,.84,1.28,.3,.83-.78-.13-1.44-.17-1.51Z"/><path class="cls-12" d="M32.09,89.48s.03-.05,.05-.07c.07-.09,.13-.17,.17-.31,.07-.27,.04-.54-.11-.75-.14-.22-.37-.36-.65-.4-.06,0-.12-.01-.18,0-.09-.34-.38-.59-.76-.64-.55-.08-1.11,.3-1.26,.83-.03,.1-.04,.2-.04,.29-.37,.23-.57,.65-.47,1.06,.04,.16,.11,.31,.22,.43-.11,.21-.15,.44-.1,.67,.06,.26,.22,.48,.46,.62,.06,.04,.12,.07,.19,.09,.19,.06,.39,.08,.59,.03,.22-.05,.41-.16,.56-.32,.13,.18,.32,.33,.56,.39,.2,.05,.51,.04,.84-.27,.26-.24,.39-.5,.38-.77,0-.41-.3-.72-.46-.87Zm-.55-1.37h0s0,0,0,0Zm.42,2.79c-.18,.17-.37,.24-.56,.2-.23-.06-.41-.26-.47-.44-.02-.06-.07-.1-.14-.1-.06,0-.12,.03-.15,.08-.1,.19-.28,.33-.5,.38-.19,.04-.39,.01-.55-.09-.16-.1-.27-.25-.31-.42-.04-.18,0-.37,.12-.53,.05-.07,.04-.16-.03-.21-.11-.09-.19-.22-.22-.35-.07-.31,.1-.62,.4-.76,.06-.03,.1-.1,.09-.16-.01-.09,0-.18,.02-.27,.11-.39,.52-.66,.92-.6,.05,0,.09,.02,.13,.03,.22,.08,.36,.26,.39,.49,0,.04,.03,.08,.06,.11,.03,.03,.08,.04,.12,.03,.09-.02,.17-.02,.24,0h0c.18,.03,.34,.12,.43,.26,.09,.14,.12,.32,.07,.5-.02,.08-.06,.13-.12,.21-.04,.05-.08,.11-.13,.19-.03,.05-.03,.12,0,.17,.02,.03,.04,.05,.08,.09,.12,.11,.4,.37,.4,.68,0,.18-.1,.37-.29,.55Z"/></g></g></g></g></svg>