<?xml version="1.0" encoding="UTF-8"?><svg id="_レイヤー_2" xmlns="http://www.w3.org/2000/svg" width="270" height="77.78" xmlns:xlink="http://www.w3.org/1999/xlink" viewBox="0 0 270 77.78"><defs><style>.cls-1{letter-spacing:.05em;}.cls-2{filter:url(#drop-shadow-1);font-family:NotoSansJP-Bold-83pv-RKSJ-H, 'Noto Sans JP';font-size:10px;font-weight:700;}.cls-2,.cls-3{fill:#fff;}.cls-4{letter-spacing:.09em;}.cls-5{letter-spacing:.09em;}.cls-6{letter-spacing:.06em;}.cls-7{fill:#023a90;}.cls-8{letter-spacing:.04em;}.cls-9{letter-spacing:.07em;}.cls-10{letter-spacing:-.05em;}.cls-11{filter:url(#drop-shadow-2);}.cls-12{filter:url(#drop-shadow-3);}.cls-13{letter-spacing:.05em;}.cls-14{letter-spacing:.05em;}.cls-15{letter-spacing:.06em;}.cls-16{letter-spacing:.07em;}.cls-17{letter-spacing:.04em;}.cls-18{letter-spacing:-.02em;}.cls-19{letter-spacing:.06em;}.cls-20{letter-spacing:.03em;}.cls-21{letter-spacing:-.01em;}.cls-22{letter-spacing:.03em;}.cls-23{letter-spacing:-.02em;}.cls-24{letter-spacing:-.01em;}.cls-25{letter-spacing:.04em;}.cls-26{letter-spacing:.02em;}</style><filter id="drop-shadow-1" filterUnits="userSpaceOnUse"><feOffset dx="0" dy="0"/><feGaussianBlur result="blur" stdDeviation="3.82"/><feFlood flood-color="#000" flood-opacity=".45"/><feComposite in2="blur" operator="in"/><feComposite in="SourceGraphic"/></filter><filter id="drop-shadow-2" filterUnits="userSpaceOnUse"><feOffset dx="0" dy="0"/><feGaussianBlur result="blur-2" stdDeviation="3.82"/><feFlood flood-color="#000" flood-opacity=".45"/><feComposite in2="blur-2" operator="in"/><feComposite in="SourceGraphic"/></filter><filter id="drop-shadow-3" filterUnits="userSpaceOnUse"><feOffset dx="0" dy="0"/><feGaussianBlur result="blur-3" stdDeviation="3.72"/><feFlood flood-color="#000" flood-opacity=".45"/><feComposite in2="blur-3" operator="in"/><feComposite in="SourceGraphic"/></filter></defs><g id="_メニュー"><g><rect class="cls-7" width="270" height="75" rx="8" ry="8"/><text class="cls-2" transform="translate(14.12 67.32)"><tspan class="cls-13" x="0" y="0">ゼ</tspan><tspan class="cls-4" x="10.49" y="0">ロ</tspan><tspan class="cls-19" x="21.37" y="0">ホ</tspan><tspan class="cls-18" x="31.96" y="0">ー</tspan><tspan class="cls-23" x="41.74" y="0">ム</tspan><tspan class="cls-21" x="51.57" y="0">と</tspan><tspan class="cls-1" x="61.42" y="0">ゼ</tspan><tspan class="cls-5" x="71.91" y="0">ロ</tspan><tspan class="cls-19" x="82.79" y="0">ホ</tspan><tspan class="cls-18" x="93.38" y="0">ー</tspan><tspan class="cls-25" x="103.16" y="0">ム</tspan><tspan class="cls-17" x="113.54" y="0">に</tspan><tspan class="cls-14" x="123.89" y="0">お</tspan><tspan class="cls-22" x="134.43" y="0">住</tspan><tspan class="cls-26" x="144.69" y="0">ま</tspan><tspan class="cls-16" x="154.88" y="0">い</tspan><tspan class="cls-6" x="165.54" y="0">の</tspan><tspan class="cls-9" x="176.16" y="0">皆</tspan><tspan class="cls-15" x="186.91" y="0">様</tspan><tspan class="cls-20" x="197.56" y="0">を</tspan><tspan class="cls-8" x="207.84" y="0">つ</tspan><tspan class="cls-24" x="218.21" y="0">な</tspan><tspan class="cls-10" x="228.08" y="0">ぐ</tspan></text><g class="cls-11"><rect class="cls-3" x="98.14" y="16.59" width="3.2" height="2.72"/><path class="cls-3" d="M190.51,10.77H82.88c-1.68,0-3.04,1.36-3.04,3.04v8.09c0,1.68,1.36,3.04,3.04,3.04h107.63c1.68,0,3.04-1.36,3.04-3.04V13.81c0-1.68-1.36-3.04-3.04-3.04Zm-96.48,3.93c.18,.26,.43,.73,.56,.98l-.68,.29c-.15-.29-.36-.71-.55-.99l.67-.27Zm.67,2.44c-.31,.6-1.01,1.63-1.49,2.09l-.95-.56c.44-.39,.87-.97,1.07-1.31-.26,.05-1.04,.21-1.91,.38v1.76c0,.42,.09,.57,.84,.57s1.57-.11,2.27-.25l-.04,1.17c-.56,.08-1.5,.16-2.2,.16-1.79,0-2.02-.41-2.02-1.34v-1.83c-.59,.12-1.12,.23-1.42,.3l-.21-1.13c.34-.04,.95-.14,1.63-.26v-.9c0-.26-.03-.69-.06-.92h1.29c-.04,.22-.07,.65-.07,.92v.69c.93-.17,1.8-.35,2.13-.43,.23-.06,.42-.11,.58-.19l.84,.65c-.07,.11-.19,.3-.26,.44Zm.1-1.52c-.14-.29-.37-.71-.56-.99l.67-.27c.19,.27,.44,.73,.56,.97l-.67,.29Zm7.72,5.18h-1.2v-.38s-3.17,0-3.17,0v.38h-1.19s.02-.69,.02-1.08v-3.47c0-.23,0-.56-.01-.78,.29,0,.61,.01,.82,.01h3.99c.19,0,.46,0,.75,0-.01,.24-.01,.53-.01,.77v3.49c0,.31,.01,1.07,.01,1.07Zm1.83-1.4c.48-.46,1.03-1.22,1.33-1.84l.99,.46c-.34,.64-1,1.59-1.38,2.01l-.94-.64Zm3.98,.9c0,.44-.27,.73-.82,.73-.43,0-.84-.01-1.24-.06l-.11-1.07c.3,.06,.61,.08,.78,.08s.24-.06,.25-.24c0-.2,0-2.3,0-2.68h-1.72c-.21,0-.53,0-.74,.03v-1.14c.22,.03,.51,.06,.74,.06h1.72v-.48c0-.2-.04-.55-.06-.69h1.28c-.02,.1-.08,.5-.08,.69v.47h1.54c.22,0,.57-.02,.77-.05v1.13c-.24-.02-.56-.03-.76-.03h-1.54v3.25Zm1.65-.33c-.32-.64-.82-1.49-1.14-1.93l.94-.51c.36,.46,.93,1.37,1.22,1.89l-1.02,.56Zm8.39-1.4c-.19,0-.59-.04-.88-.04h-3.8c-.41,0-.94,.02-1.24,.04v-1.37c.29,.02,.89,.05,1.24,.05h3.8c.32,0,.67-.04,.88-.05v1.37Zm6.37,2.43c-.09-.24-.19-.51-.31-.79-1.18,.14-3.23,.35-4.1,.44-.18,.02-.48,.06-.72,.09l-.2-1.27c.26,0,.61,0,.85,0h.11c.41-1.08,.97-2.87,1.19-3.64,.11-.38,.15-.64,.19-.9l1.37,.28c-.11,.24-.22,.54-.34,.87-.24,.71-.76,2.34-1.11,3.29,.77-.07,1.62-.17,2.27-.25-.23-.48-.46-.92-.68-1.21l1.09-.44c.51,.79,1.22,2.18,1.56,3.01l-1.17,.52Zm8.35-3.88c-.26,0-.55-.01-.75-.01h-.79c.02,1.02,.05,2.09,.06,3.1,0,.51-.28,.81-.89,.81-.47,0-.86-.01-1.29-.04l-.1-1.12c.31,.05,.69,.08,.92,.08,.16,0,.24-.09,.24-.3,0-.42,0-.97,0-1.57-.64,.82-1.76,1.72-2.8,2.27l-.79-.9c1.35-.64,2.48-1.54,3.05-2.32h-1.71c-.27,0-.63,.01-.89,.03v-1.14c.2,.03,.61,.06,.86,.06h2.23l-.02-.41c-.01-.23-.04-.52-.08-.8h1.22c-.04,.24-.05,.56-.04,.8v.41h.76c.26,0,.63-.04,.82-.06v1.14Zm7.48,1.45c-.19,0-.59-.04-.88-.04h-3.8c-.41,0-.94,.02-1.24,.04v-1.37c.29,.02,.89,.05,1.24,.05h3.8c.32,0,.67-.04,.88-.05v1.37Zm7.73-.93c-.17-.01-.56-.04-.88-.04h-1.44c-.06,1.37-.49,2.55-2.07,3.51l-1.08-.8c1.42-.64,1.85-1.62,1.94-2.71h-1.67c-.34,0-.64,.02-.9,.04v-1.2c.26,.03,.56,.06,.87,.06h1.72v-.69c0-.25-.03-.64-.11-.91h1.37c-.05,.27-.06,.69-.06,.92v.68h1.44c.38,0,.7-.03,.87-.05v1.19Zm7.26,.93c-.19,0-.59-.04-.88-.04h-3.8c-.41,0-.94,.02-1.24,.04v-1.37c.29,.02,.89,.05,1.24,.05h3.8c.32,0,.67-.04,.88-.05v1.37Zm6.23,2.65c-.46-.65-1.07-1.34-1.71-1.96-.75,.78-1.69,1.5-2.62,1.95l-.9-.94c1.16-.42,2.29-1.3,2.92-2.01,.46-.53,.85-1.16,1-1.62h-2.22c-.32,0-.72,.04-.92,.06v-1.23c.25,.04,.71,.06,.92,.06h2.39c.32,0,.63-.04,.8-.09-.1-.19-.21-.39-.32-.56l.67-.27c.19,.28,.45,.75,.56,.98l-.4,.17,.26,.19c-.06,.09-.21,.34-.29,.52-.24,.53-.61,1.24-1.08,1.89,.69,.6,1.55,1.51,1.94,1.99l-.99,.87Zm.85-5.6c-.14-.29-.38-.72-.56-.99l.67-.27c.19,.27,.44,.73,.56,.97l-.67,.29Zm8.05,1.72c-.2-.02-.45-.02-.86-.02h-.39v.23c0,1.69-.44,2.83-2.22,3.61l-.93-.87c1.43-.47,2.01-1.09,2.01-2.71v-.26h-1.5v.86c0,.35,.02,.63,.04,.81h-1.21c.02-.18,.04-.46,.04-.81v-.86h-.51c-.39,0-.6,.01-.81,.03v-1.17c.16,.03,.42,.08,.81,.08h.51v-.59c0-.29-.03-.54-.05-.71h1.23c-.02,.17-.05,.41-.05,.72v.59h1.5v-.67c0-.29-.01-.53-.04-.71h1.23c-.02,.19-.05,.41-.05,.71v.67h.38c.41,0,.61-.01,.87-.06v1.14Zm5.31,3.67h-1.37c.03-.19,.06-.69,.06-1.04v-2.15c-.72,.36-1.56,.69-2.34,.9l-.61-1.05c1.28-.26,2.48-.79,3.28-1.29,.72-.45,1.46-1.09,1.87-1.63l.93,.84c-.57,.56-1.19,1.09-1.88,1.53v2.85c0,.34,.01,.84,.07,1.04Zm7.75-1.9c-.72-.37-1.7-.75-2.46-1.02v1.84c0,.19,.04,.76,.08,1.08h-1.36c.05-.31,.09-.79,.09-1.08v-4.08c0-.29-.03-.66-.09-.93h1.35c-.03,.27-.07,.59-.07,.93v.98c.97,.28,2.35,.79,2.95,1.08l-.49,1.21Z"/></g><g class="cls-12"><g><g><path class="cls-3" d="M225.54,51.33l-.16,.23-.19,.21-.22,.18-.25,.14-.27,.1-.28,.07-.28,.03h-.29s-.28-.06-.28-.06l-.27-.09-.26-.13-.24-.16-.21-.19-.18-.22-.15-.24-.11-.26-.08-.27-.04-.28v-.28s.06-.28,.06-.28l.09-.27,.13-.25,.15-.24,.19-.21,.22-.19,.25-.15,.26-.12,.28-.08,.28-.04h.29s.28,.04,.28,.04l.27,.09,.26,.12,.24,.16,.21,.19,.18,.22,.15,.25,.11,.27,.08,.28,.03,.29v.29s-.06,.28-.06,.28l-.08,.28-.11,.26Z"/><polygon class="cls-3" points="237.23 31.88 237.05 32.1 236.91 32.36 236.72 32.57 236.55 32.8 236.39 33.04 236.22 33.27 236.06 33.5 235.92 33.75 235.75 33.99 235.57 34.21 235.41 34.44 235.24 34.67 235.08 34.91 234.91 35.14 234.75 35.38 234.56 35.6 234.39 35.82 234.21 36.05 234.07 36.3 233.89 36.52 233.71 36.74 233.54 36.97 233.39 37.22 233.2 37.44 233.05 37.68 232.88 37.91 232.7 38.13 232.52 38.35 232.35 38.59 232.21 38.83 232.03 39.06 231.84 39.28 231.7 39.53 231.5 39.74 231.34 39.98 231.19 40.22 231.01 40.44 230.83 40.67 230.67 40.91 230.5 41.14 230.31 41.36 230.13 41.59 229.97 41.83 229.81 42.06 229.62 42.28 229.43 42.5 229.29 42.75 229.1 42.97 228.94 43.2 228.77 43.43 228.59 43.66 228.42 43.89 228.22 44.1 228.05 44.33 227.89 44.57 227.7 44.78 227.52 45.01 227.34 45.23 227.18 45.47 226.99 45.69 226.82 45.92 226.63 46.13 226.46 46.37 226.28 46.59 226.08 46.79 225.89 47.01 225.7 47.22 225.51 47.45 225.28 47.57 225.31 47.31 225.39 47.04 225.46 46.76 225.57 46.5 225.67 46.23 225.75 45.96 225.86 45.69 225.97 45.43 226.04 45.15 226.17 44.89 226.28 44.63 226.36 44.35 226.49 44.1 226.59 43.83 226.71 43.57 226.81 43.3 226.93 43.04 227.05 42.78 227.15 42.51 227.24 42.24 227.36 41.98 227.48 41.72 227.6 41.46 227.71 41.2 227.81 40.93 227.93 40.67 228.02 40.4 228.15 40.14 228.24 39.87 228.37 39.61 228.46 39.34 228.58 39.08 228.72 38.83 228.81 38.55 228.95 38.3 229.05 38.03 229.16 37.77 229.27 37.5 229.39 37.24 229.49 36.97 229.63 36.71 229.75 36.45 229.83 36.18 229.97 35.92 230.08 35.66 230.19 35.39 230.31 35.13 230.43 34.87 230.54 34.61 230.67 34.35 230.79 34.09 230.9 33.82 231.01 33.56 231.11 33.29 231.25 33.04 231.35 32.77 231.47 32.5 231.61 32.25 231.7 31.98 231.83 31.72 231.94 31.46 232.07 31.2 232.19 30.94 232.3 30.68 232.42 30.42 232.54 30.16 232.67 29.9 232.8 29.65 232.91 29.38 233.07 29.14 233.22 28.89 233.41 28.66 233.61 28.45 233.83 28.26 234.06 28.08 234.32 27.93 234.59 27.83 234.87 27.75 235.16 27.69 235.45 27.69 235.74 27.72 236.03 27.8 236.3 27.9 236.56 28.04 236.8 28.21 237.03 28.4 237.24 28.6 237.42 28.83 237.57 29.08 237.69 29.35 237.76 29.63 237.78 29.93 237.79 30.22 237.75 30.51 237.69 30.8 237.6 31.08 237.47 31.34 237.35 31.61 237.23 31.88"/></g><g><polygon class="cls-3" points="58.21 31.73 57.91 31.44 57.49 31.43 57.11 31.59 56.72 31.75 56.34 31.91 56.04 32.21 56.04 32.64 56.22 33.07 56.4 33.51 56.59 33.95 56.77 34.39 56.95 34.82 57.26 35.13 57.47 35.17 57.7 35.12 58.08 34.94 58.46 34.77 58.84 34.6 59.13 34.29 59.13 33.87 58.95 33.44 58.76 33.02 58.58 32.59 58.4 32.16 58.21 31.73"/><polygon class="cls-3" points="53.02 34.53 53.27 34.87 53.56 34.96 53.69 34.94 54.1 34.84 54.51 34.75 54.92 34.65 55.26 34.39 55.33 33.97 55.22 33.51 55.1 33.05 54.99 32.59 54.87 32.13 54.75 31.67 54.51 31.32 54.08 31.26 53.68 31.35 53.28 31.45 52.88 31.55 52.53 31.8 52.47 32.22 52.58 32.68 52.69 33.14 52.8 33.61 52.91 34.07 53.02 34.53"/><path class="cls-3" d="M84.82,34.68h-.48s-.48-.01-.48-.01h-.48s-.48,0-.48,0l-.48-.02-.48,.03h-.48s-.48,0-.48,0h-.48s-.48-.02-.48-.02l-.48,.02h-.48s-.48,0-.48,0l-.48,.02h-.48s-.48-.01-.48-.01h-.48s-.48,0-.48,0h-.48s-.48,.01-.48,.01h-.48s-.48-.02-.48-.02l-.48,.03h-.48s-.48-.02-.48-.02h-.48s-.48,.02-.48,.02l-.48-.03h-.48s-.48,.02-.48,.02l-.48-.02h-.48s-.48,0-.48,0h-.48s-.48-.01-.48-.01l-.48,.02-.4,.16-.14,.4v.48s-.01,.48-.01,.48v.48s0,.48,0,.48v.48s-.02,.48-.02,.48l.02,.48v.48s0,.48,0,.48v.48s0,.48,0,.48v.48s0,.48,0,.48v.48s0,.48,0,.48v.48s-.03,.48-.03,.48l.02,.48,.02,.48-.02,.48v.48s-.01,.48-.01,.48v.48s.02,.48,.02,.48l-.02,.48v.49s0,.48,0,.48v.49s0,.49,0,.49v.49s.18,.4,.18,.4l.4,.16,.48,.02h.48s.48-.01,.48-.01l.48-.02,.48,.03,.48-.02h.48s.48,0,.48,0h.48s.48,.02,.48,.02h.48s.48-.02,.48-.02h.48s.48,.01,.48,.01h.48s.48,0,.48,0h.48s.48-.01,.48-.01h.48s.48,0,.48,0h.48s.48,.01,.48,.01h.48s.48-.01,.48-.01h.48s.48,0,.48,0h.48s.48,0,.48,0h.48s.48,0,.48,0h.48s.48,.02,.48,.02h.48s.48-.03,.48-.03l.48,.03,.48-.02,.39-.16,.18-.39-.03-.48v-.48s.02-.48,.02-.48v-.48s0-.48,0-.48v-.48s0-.48,0-.48v-.48s0-.48,0-.48v-.48s-.01-.48-.01-.48v-.48s0-.48,0-.48l.02-.48v-.48s.01-.48,.01-.48l-.02-.48,.02-.48v-.48s0-.48,0-.48v-.48s0-.48,0-.48v-.48s0-.48,0-.48v-.48s.01-.49,.01-.49l-.03-.48,.03-.49v-.49s0-.49,0-.49l-.17-.41-.41-.14Zm-15.01,12.62v-.48s.01-.48,.01-.48v-.48s0-.48,0-.48l.02-.48-.03-.48v-.48s0-.48,0-.48v-.48s.02-.48,.02-.48l-.02-.48v-.48s0-.48,0-.48l-.02-.48v-.48s.01-.48,.01-.48v-.48s0-.48,0-.48v-.48s-.01-.48-.01-.48l.19-.2,.47,.03,.47-.03h.48s.48,.02,.48,.02h.48s.47-.02,.47-.02l.47,.03h.48s.48-.02,.48-.02l.48,.02h.48s.48,0,.48,0h.48s.48,.01,.48,.01l.48-.02h.48s.47-.02,.47-.02h.48s.48,.01,.48,.01h.48s.48,0,.48,0h.48s.48,.02,.48,.02l.48-.02h.48s.48,0,.48,0l.17,.18,.02,.48v.48s0,.48,0,.48v.48s0,.48,0,.48v.48s-.03,.48-.03,.48l.02,.48,.02,.48-.02,.48v.48s-.01,.48-.01,.48v.48s.02,.48,.02,.48l-.02,.48v.48s0,.48,0,.48v.48s0,.48,0,.48v.48s-.17,.19-.17,.19h-.47s-.47-.02-.47-.02h-.48s-.48,.01-.48,.01l-.48,.02-.47-.03-.48,.02h-.48s-.48,0-.48,0h-.48s-.48-.02-.48-.02h-.48s-.48,.02-.48,.02h-.48s-.48-.01-.48-.01h-.48s-.48,0-.48,0h-.47s-.48,.01-.48,.01h-.48s-.48,0-.48,0h-.48s-.48-.01-.48-.01h-.48s-.48,.01-.48,.01h-.48s-.2-.19-.2-.19Z"/><polygon class="cls-3" points="111.75 34.14 111.27 34.14 110.79 34.15 110.31 34.14 109.83 34.12 109.36 34.13 108.88 34.13 108.4 34.13 107.92 34.15 107.44 34.12 106.95 34.15 106.48 34.13 105.99 34.13 105.51 34.13 105.03 34.14 104.55 34.13 104.07 34.14 103.59 34.13 103.11 34.13 102.63 34.14 102.15 34.15 101.67 34.12 101.19 34.12 100.71 34.14 100.23 34.14 99.74 34.14 99.26 34.12 98.78 34.14 98.3 34.12 97.82 34.14 97.33 34.13 96.85 34.12 96.45 34.29 96.28 34.69 96.31 35.13 96.3 35.56 96.31 35.99 96.28 36.42 96.44 36.83 96.85 36.97 97.33 36.99 97.8 36.99 98.28 36.98 98.76 36.98 99.24 36.97 99.71 36.97 100.19 37 100.67 36.97 101.15 36.98 101.62 36.98 102.1 36.98 102.58 36.97 103.06 36.97 103.54 36.98 104.01 36.98 104.49 36.97 104.97 36.98 105.45 36.97 105.93 36.97 106.4 36.99 106.88 36.98 107.36 36.97 107.84 36.99 108.32 36.97 108.8 36.98 109.28 36.99 109.47 37.17 109.45 37.66 109.48 38.14 109.47 38.63 109.48 39.11 109.48 39.6 109.47 40.09 109.46 40.57 109.46 41.06 109.48 41.55 109.45 42.03 109.48 42.52 109.47 43.01 109.48 43.49 109.48 43.98 109.46 44.47 109.47 44.95 109.48 45.44 109.46 45.93 109.45 46.41 109.48 46.9 109.47 47.39 109.47 47.88 109.47 48.37 109.46 48.86 109.28 49.06 108.81 49.06 108.34 49.05 107.87 49.05 107.4 49.05 106.92 49.03 106.45 49.03 105.98 49.04 105.51 49.05 105.04 49.05 104.57 49.03 104.09 49.06 103.62 49.05 103.15 49.03 102.68 49.04 102.21 49.03 101.74 49.05 101.26 49.03 100.79 49.06 100.32 49.03 99.85 49.03 99.37 49.03 98.9 49.02 98.43 49.04 97.95 49.05 97.56 49.2 97.41 49.6 97.38 50.02 97.38 50.45 97.39 50.87 97.38 51.3 97.56 51.69 97.95 51.87 98.43 51.84 98.9 51.85 99.38 51.85 99.85 51.84 100.33 51.86 100.8 51.88 101.28 51.85 101.75 51.84 102.23 51.86 102.7 51.84 103.18 51.87 103.65 51.87 104.13 51.85 104.61 51.86 105.08 51.85 105.56 51.85 106.03 51.86 106.51 51.85 106.99 51.87 107.46 51.88 107.94 51.86 108.41 51.85 108.89 51.85 109.37 51.84 109.84 51.85 110.32 51.87 110.8 51.84 111.28 51.85 111.75 51.86 112.15 51.69 112.32 51.3 112.3 50.83 112.3 50.36 112.33 49.88 112.31 49.41 112.3 48.94 112.33 48.46 112.32 47.99 112.32 47.51 112.32 47.04 112.3 46.57 112.3 46.09 112.31 45.62 112.31 45.15 112.3 44.67 112.32 44.2 112.33 43.72 112.31 43.25 112.31 42.77 112.32 42.3 112.31 41.83 112.33 41.35 112.32 40.88 112.33 40.4 112.3 39.93 112.31 39.45 112.32 38.98 112.32 38.5 112.31 38.03 112.31 37.55 112.32 37.08 112.3 36.6 112.32 36.13 112.33 35.65 112.33 35.17 112.33 34.69 112.14 34.31 111.75 34.14"/><polygon class="cls-3" points="56.42 36.58 56.01 36.36 55.54 36.39 55.07 36.36 54.6 36.35 54.13 36.36 53.66 36.35 53.18 36.35 52.71 36.38 52.24 36.39 51.77 36.37 51.3 36.37 50.83 36.38 50.36 36.39 49.88 36.38 49.41 36.39 48.94 36.36 48.47 36.36 47.99 36.35 47.52 36.39 47.05 36.37 46.58 36.35 46.11 36.36 45.64 36.38 45.16 36.36 44.69 36.38 44.22 36.38 43.74 36.36 43.28 36.36 43.29 35.91 43.25 35.44 43.26 34.97 43.28 34.51 43.25 34.04 43.28 33.58 43.27 33.11 43.25 32.64 43.26 32.17 43.06 31.99 42.58 32 42.1 32 41.63 31.99 41.15 31.98 40.67 32 40.44 32.18 40.42 32.64 40.4 33.1 40.44 33.57 40.42 34.04 40.44 34.5 40.44 34.97 40.44 35.44 40.44 35.9 40.42 36.37 39.74 36.36 39.23 36.38 38.72 36.37 38.21 36.37 37.7 36.36 37.19 36.39 36.68 36.37 36.16 36.38 35.77 36.53 35.62 36.93 35.62 37.36 35.6 37.79 35.6 38.23 35.6 38.66 35.78 39.04 36.16 39.23 36.64 39.23 37.11 39.24 37.58 39.22 38.05 39.24 38.53 39.24 39 39.21 39.47 39.23 39.95 39.23 40.44 39.2 40.42 39.7 40.41 40.18 40.44 40.67 40.42 41.15 40.43 41.63 40.41 42.11 40.43 42.6 40.41 43.08 40.4 43.56 40.41 44.04 40.43 44.53 40.43 45.01 40.41 45.49 40.4 45.98 40.4 46.46 40.42 46.94 40.4 47.43 40.43 47.91 40.41 48.39 40.44 48.88 40.42 49.36 40.44 49.84 40.43 50.33 40.4 50.81 40.43 51.3 40.57 51.71 40.98 51.86 41.46 51.86 41.95 51.85 42.43 51.86 42.91 51.84 43.39 51.87 43.88 51.87 44.36 51.84 44.84 51.86 45.32 51.86 45.81 51.85 46.29 51.85 46.77 51.86 47.26 51.86 47.74 51.87 48.22 51.88 48.7 51.87 49.19 51.86 49.67 51.84 50.16 51.87 50.64 51.85 51.12 51.85 51.61 51.87 52.09 51.84 52.49 51.7 52.65 51.3 52.66 50.88 52.66 50.45 52.65 50.03 52.66 49.6 52.49 49.2 52.09 49.03 51.62 49.02 51.14 49.05 50.66 49.04 50.18 49.05 49.7 49.05 49.22 49.05 48.74 49.05 48.26 49.05 47.78 49.05 47.3 49.03 46.82 49.04 46.34 49.05 45.86 49.05 45.38 49.06 44.9 49.05 44.42 49.06 43.94 49.05 43.45 49.04 43.28 48.86 43.27 48.37 43.27 47.89 43.26 47.41 43.25 46.93 43.26 46.45 43.27 45.97 43.25 45.49 43.26 45 43.26 44.52 43.26 44.04 43.28 43.56 43.27 43.08 43.25 42.6 43.27 42.12 43.25 41.63 43.29 41.15 43.28 40.67 43.28 40.19 43.25 39.7 43.27 39.22 43.67 39.2 44.06 39.23 44.54 39.2 45.02 39.21 45.5 39.23 45.98 39.21 46.46 39.23 46.94 39.22 47.42 39.21 47.9 39.2 48.38 39.23 48.86 39.22 49.34 39.21 49.82 39.21 50.3 39.21 50.78 39.22 51.26 39.23 51.74 39.23 52.23 39.24 52.71 39.2 52.87 39.31 52.87 39.49 52.64 39.9 52.35 40.28 52.07 40.65 51.77 41.02 51.44 41.35 51.1 41.68 50.93 42.05 51.04 42.45 51.3 42.79 51.56 43.13 51.83 43.47 52.08 43.82 52.48 44.04 52.92 43.91 53.25 43.59 53.59 43.27 53.89 42.92 54.2 42.57 54.49 42.21 54.78 41.84 55.01 41.44 55.24 41.04 55.46 40.63 55.67 40.22 55.87 39.8 56.03 39.37 56.17 38.92 56.32 38.49 56.39 38.03 56.5 37.53 56.58 37.02 56.42 36.58"/><polygon class="cls-3" points="127.13 41.14 127.59 41.31 128.04 41.48 128.5 41.66 128.96 41.82 129.42 42 129.88 42.16 130.33 42.34 130.79 42.51 131.25 42.69 131.7 42.86 132.16 43.04 132.62 43.21 133.08 43.39 133.53 43.56 133.99 43.73 134.45 43.91 134.92 44.08 135.38 44.25 135.57 44.29 136.09 43.93 136.26 43.54 136.41 43.14 136.58 42.74 136.74 42.34 136.73 41.9 136.41 41.6 135.97 41.45 135.54 41.28 135.11 41.11 134.67 40.96 134.24 40.78 133.8 40.62 133.36 40.46 132.93 40.31 132.49 40.14 132.06 39.97 131.62 39.82 131.19 39.64 130.75 39.48 130.31 39.33 129.88 39.16 129.44 38.98 129 38.83 128.57 38.66 128.12 38.51 127.7 38.51 127.41 38.82 127.26 39.22 127.11 39.62 126.96 40.02 126.8 40.41 126.82 40.84 127.13 41.14"/><polygon class="cls-3" points="127.59 34.23 128.06 34.38 128.52 34.51 128.99 34.65 129.46 34.79 129.92 34.93 130.38 35.07 130.85 35.21 131.32 35.34 131.78 35.49 132.25 35.62 132.71 35.77 133.18 35.9 133.65 36.04 134.11 36.19 134.58 36.33 134.74 36.35 135.01 36.28 135.28 35.95 135.4 35.54 135.52 35.13 135.63 34.72 135.75 34.31 135.71 33.88 135.38 33.62 134.92 33.47 134.46 33.33 134 33.19 133.53 33.06 133.07 32.92 132.61 32.77 132.15 32.63 131.69 32.49 131.23 32.35 130.76 32.22 130.3 32.07 129.84 31.92 129.38 31.78 128.91 31.66 128.45 31.5 128.02 31.55 127.75 31.87 127.61 32.28 127.49 32.7 127.36 33.11 127.22 33.52 127.26 33.95 127.59 34.23"/><polygon class="cls-3" points="137.2 50.77 136.95 50.43 136.54 50.18 136.12 49.94 135.7 49.7 135.3 49.44 134.87 49.22 134.45 48.97 134.04 48.72 133.63 48.48 133.22 48.22 132.8 47.99 132.38 47.75 131.97 47.5 131.55 47.27 131.14 47.02 130.72 46.77 130.3 46.54 129.89 46.28 129.48 46.04 129.06 45.8 128.64 45.56 128.23 45.29 127.8 45.07 127.39 44.82 126.97 44.57 126.56 44.32 126.13 44.28 125.78 44.52 125.57 44.89 125.36 45.27 125.12 45.63 124.91 46.01 124.85 46.44 125.11 46.77 125.52 47.03 125.94 47.26 126.35 47.51 126.78 47.74 127.19 47.98 127.6 48.23 128.02 48.47 128.44 48.71 128.85 48.95 129.26 49.21 129.68 49.44 130.1 49.68 130.51 49.93 130.92 50.18 131.34 50.42 131.76 50.66 132.17 50.9 132.59 51.15 133.01 51.39 133.42 51.64 133.83 51.89 134.26 52.12 134.68 52.36 135.09 52.61 135.51 52.86 135.79 52.94 136.28 52.66 136.49 52.29 136.72 51.93 136.93 51.56 137.15 51.2 137.2 50.77"/></g><polygon class="cls-3" points="171.67 35.82 171.55 35.79 171.43 35.74 171.31 35.7 171.18 35.69 171.06 35.66 170.95 35.6 170.82 35.58 170.7 35.55 170.58 35.5 170.46 35.47 170.33 35.45 170.22 35.4 170.09 35.38 169.98 35.33 169.86 35.28 169.74 35.25 169.61 35.23 169.49 35.18 169.39 35.2 169.29 35.21 169.22 35.28 169.18 35.37 169.13 35.49 169.09 35.61 169.07 35.74 169.03 35.86 169 35.99 168.98 36.11 168.92 36.23 168.88 36.35 168.84 36.47 168.82 36.6 168.76 36.72 168.74 36.85 168.73 36.98 168.69 37.1 168.65 37.22 168.62 37.35 168.55 37.46 168.52 37.59 168.51 37.72 168.44 37.83 168.43 37.96 168.37 38.08 168.36 38.21 168.31 38.33 168.28 38.46 168.26 38.58 168.2 38.7 168.18 38.83 168.14 38.95 168.1 39.07 168.06 39.19 168.04 39.32 168.01 39.44 167.97 39.57 167.92 39.69 167.9 39.81 167.85 39.93 167.82 40.06 167.78 40.18 167.73 40.3 167.72 40.43 167.66 40.55 167.66 40.68 167.6 40.8 167.56 40.92 167.55 41.06 167.49 41.17 167.44 41.29 167.44 41.43 167.37 41.54 167.36 41.67 167.32 41.8 167.27 41.92 167.23 42.04 167.21 42.17 167.17 42.29 167.15 42.42 167.09 42.54 167.06 42.67 167.02 42.79 167.01 42.93 166.98 43.05 166.92 43.17 166.89 43.3 166.85 43.42 166.8 43.54 166.78 43.67 166.74 43.79 166.69 43.91 166.68 44.04 166.62 44.16 166.61 44.29 166.58 44.42 166.54 44.54 166.49 44.66 166.47 44.79 166.43 44.92 166.4 45.04 166.33 45.16 166.3 45.28 166.29 45.41 166.24 45.54 166.2 45.66 166.16 45.78 166.15 45.92 166.09 46.03 166.08 46.16 166.04 46.29 166.01 46.41 165.97 46.53 165.94 46.66 165.89 46.78 165.87 46.91 165.81 47.02 165.79 47.15 165.73 47.27 165.69 47.39 165.69 47.52 165.65 47.64 165.61 47.75 165.59 47.63 165.54 47.51 165.48 47.4 165.47 47.27 165.42 47.14 165.39 47.02 165.32 46.9 165.31 46.77 165.24 46.66 165.21 46.53 165.18 46.41 165.15 46.28 165.11 46.16 165.09 46.03 165.02 45.91 164.99 45.79 164.97 45.66 164.92 45.54 164.88 45.42 164.87 45.28 164.81 45.17 164.77 45.05 164.72 44.93 164.68 44.8 164.68 44.67 164.62 44.55 164.6 44.42 164.55 44.3 164.52 44.18 164.49 44.05 164.44 43.93 164.42 43.8 164.35 43.69 164.3 43.56 164.27 43.44 164.26 43.31 164.21 43.19 164.18 43.06 164.15 42.93 164.1 42.82 164.07 42.69 164.03 42.57 163.98 42.44 163.95 42.32 163.89 42.2 163.86 42.07 163.83 41.95 163.79 41.83 163.77 41.7 163.72 41.57 163.68 41.45 163.63 41.33 163.61 41.2 163.55 41.08 163.55 40.95 163.48 40.83 163.45 40.7 163.43 40.57 163.36 40.46 163.36 40.32 163.31 40.2 163.28 40.07 163.25 39.95 163.19 39.83 163.16 39.7 163.12 39.57 163.08 39.45 163.05 39.32 162.99 39.21 162.98 39.07 162.94 38.95 162.88 38.83 162.87 38.7 162.83 38.57 162.78 38.45 162.75 38.32 162.69 38.2 162.68 38.07 162.61 37.95 162.61 37.82 162.54 37.7 162.51 37.58 162.49 37.45 162.45 37.33 162.41 37.2 162.36 37.08 162.33 36.95 162.3 36.83 162.27 36.7 162.21 36.58 162.19 36.45 162.14 36.33 162.08 36.22 162.04 36.13 161.96 36.06 161.86 36.02 161.72 36.03 161.59 36.03 161.46 36.04 161.33 36.05 161.19 36.04 161.06 36.01 160.93 36.04 160.8 36.02 160.66 36.05 160.53 36.03 160.4 36.02 160.27 36.03 160.13 36.03 160 36.03 159.86 36.04 159.71 36.06 159.61 36.2 159.58 36.32 159.53 36.44 159.5 36.57 159.47 36.69 159.39 36.81 159.39 36.94 159.32 37.05 159.29 37.18 159.25 37.3 159.2 37.42 159.18 37.55 159.13 37.67 159.07 37.79 159.02 37.91 158.98 38.03 158.96 38.16 158.9 38.28 158.85 38.4 158.82 38.52 158.78 38.65 158.74 38.77 158.68 38.89 158.64 39.01 158.62 39.14 158.56 39.26 158.53 39.39 158.48 39.51 158.44 39.63 158.41 39.76 158.34 39.87 158.33 40 158.27 40.12 158.23 40.24 158.18 40.36 158.14 40.49 158.08 40.61 158.07 40.74 158.01 40.86 157.98 40.98 157.93 41.1 157.9 41.23 157.86 41.35 157.81 41.47 157.77 41.6 157.73 41.72 157.68 41.84 157.63 41.96 157.59 42.08 157.56 42.21 157.49 42.32 157.48 42.46 157.41 42.57 157.37 42.7 157.35 42.82 157.27 42.93 157.26 43.07 157.21 43.19 157.16 43.31 157.14 43.44 157.08 43.55 157.05 43.68 156.98 43.79 156.97 43.93 156.92 44.04 156.85 44.16 156.84 44.29 156.77 44.4 156.75 44.54 156.68 44.65 156.67 44.78 156.63 44.91 156.58 45.03 156.53 45.15 156.46 45.26 156.46 45.39 156.4 45.51 156.34 45.63 156.31 45.75 156.26 45.87 156.23 46 156.19 46.12 156.14 46.24 156.1 46.36 156.08 46.49 156.03 46.61 155.99 46.73 155.92 46.85 155.91 46.72 155.84 46.6 155.84 46.47 155.77 46.35 155.76 46.22 155.7 46.1 155.67 45.97 155.66 45.84 155.62 45.72 155.59 45.59 155.56 45.47 155.49 45.35 155.49 45.22 155.42 45.1 155.4 44.97 155.36 44.85 155.34 44.72 155.29 44.6 155.24 44.48 155.23 44.35 155.19 44.22 155.17 44.1 155.1 43.98 155.09 43.85 155.03 43.73 154.99 43.6 154.97 43.48 154.95 43.35 154.89 43.23 154.85 43.1 154.84 42.97 154.78 42.86 154.76 42.73 154.72 42.61 154.68 42.48 154.66 42.35 154.61 42.23 154.59 42.1 154.55 41.98 154.51 41.85 154.46 41.73 154.46 41.6 154.42 41.47 154.35 41.36 154.34 41.22 154.29 41.1 154.27 40.98 154.24 40.85 154.17 40.73 154.14 40.61 154.13 40.47 154.06 40.36 154.04 40.23 154 40.1 153.98 39.97 153.93 39.85 153.9 39.73 153.86 39.6 153.83 39.47 153.8 39.35 153.77 39.22 153.73 39.1 153.71 38.97 153.65 38.85 153.6 38.73 153.6 38.59 153.54 38.47 153.51 38.35 153.48 38.22 153.44 38.09 153.41 37.96 153.37 37.84 153.35 37.71 153.29 37.59 153.25 37.47 153.24 37.33 153.21 37.21 153.16 37.08 153.1 36.96 153.1 36.83 153.01 36.72 152.9 36.66 152.77 36.66 152.64 36.67 152.53 36.73 152.4 36.77 152.28 36.78 152.16 36.84 152.03 36.84 151.91 36.88 151.79 36.93 151.66 36.95 151.55 37 151.43 37.05 151.3 37.06 151.17 37.09 151.05 37.11 150.93 37.15 150.81 37.21 150.68 37.23 150.56 37.27 150.48 37.32 150.43 37.4 150.36 37.48 150.38 37.58 150.41 37.71 150.45 37.83 150.48 37.96 150.54 38.08 150.57 38.2 150.58 38.33 150.62 38.45 150.65 38.58 150.68 38.7 150.75 38.82 150.79 38.94 150.82 39.07 150.85 39.19 150.89 39.32 150.92 39.44 150.95 39.57 150.99 39.69 151 39.82 151.06 39.94 151.08 40.07 151.12 40.19 151.14 40.32 151.19 40.44 151.23 40.57 151.27 40.69 151.31 40.81 151.32 40.94 151.38 41.06 151.39 41.19 151.44 41.31 151.48 41.43 151.52 41.56 151.55 41.68 151.56 41.81 151.6 41.94 151.64 42.06 151.68 42.18 151.72 42.31 151.75 42.43 151.8 42.55 151.83 42.68 151.85 42.81 151.89 42.93 151.92 43.05 151.98 43.17 152 43.3 152.03 43.42 152.07 43.55 152.09 43.68 152.13 43.8 152.18 43.92 152.22 44.04 152.25 44.17 152.28 44.29 152.32 44.42 152.37 44.54 152.37 44.67 152.44 44.79 152.48 44.91 152.48 45.04 152.54 45.16 152.55 45.29 152.6 45.41 152.62 45.54 152.65 45.66 152.72 45.78 152.72 45.92 152.76 46.04 152.79 46.16 152.83 46.29 152.9 46.4 152.9 46.54 152.95 46.66 152.99 46.78 153.03 46.91 153.07 47.03 153.09 47.16 153.12 47.28 153.16 47.41 153.19 47.53 153.23 47.66 153.28 47.78 153.32 47.9 153.36 48.03 153.38 48.16 153.4 48.28 153.43 48.41 153.49 48.53 153.53 48.65 153.55 48.78 153.57 48.91 153.62 49.03 153.65 49.16 153.71 49.28 153.72 49.41 153.75 49.53 153.78 49.66 153.84 49.78 153.87 49.9 153.9 50.03 153.93 50.16 153.99 50.28 154.03 50.4 154.06 50.53 154.07 50.66 154.12 50.79 154.13 50.92 154.2 51.01 154.3 51.06 154.4 51.09 154.53 51.1 154.66 51.11 154.79 51.09 154.92 51.11 155.05 51.08 155.18 51.09 155.31 51.11 155.44 51.1 155.57 51.11 155.7 51.11 155.83 51.08 155.96 51.08 156.1 51.1 156.23 51.11 156.36 51.1 156.49 51.08 156.62 51.1 156.75 51.09 156.88 51.08 157.01 51.08 157.15 51.08 157.28 51.1 157.42 51.05 157.53 50.93 157.55 50.8 157.58 50.68 157.64 50.56 157.69 50.44 157.72 50.31 157.75 50.19 157.83 50.08 157.87 49.96 157.9 49.83 157.95 49.71 157.97 49.58 158.02 49.47 158.08 49.35 158.1 49.22 158.16 49.11 158.2 48.99 158.25 48.86 158.27 48.73 158.33 48.62 158.35 48.49 158.39 48.37 158.46 48.26 158.47 48.12 158.54 48.01 158.58 47.89 158.63 47.77 158.64 47.63 158.71 47.52 158.74 47.39 158.77 47.27 158.84 47.15 158.87 47.03 158.9 46.9 158.94 46.77 158.99 46.66 159.03 46.53 159.1 46.42 159.13 46.29 159.17 46.17 159.21 46.04 159.26 45.92 159.28 45.79 159.34 45.67 159.39 45.55 159.4 45.42 159.47 45.31 159.49 45.17 159.55 45.06 159.58 44.93 159.63 44.81 159.67 44.68 159.71 44.56 159.74 44.43 159.8 44.32 159.85 44.2 159.89 44.07 159.92 43.95 159.97 43.83 160.03 43.71 160.07 43.58 160.08 43.45 160.12 43.33 160.16 43.21 160.2 43.08 160.27 42.97 160.29 42.84 160.34 42.72 160.39 42.6 160.43 42.48 160.45 42.35 160.52 42.24 160.55 42.11 160.58 41.99 160.62 41.87 160.65 41.74 160.7 41.62 160.73 41.5 160.76 41.63 160.8 41.75 160.87 41.87 160.87 42 160.93 42.12 160.96 42.24 160.99 42.37 161.04 42.49 161.08 42.61 161.13 42.73 161.16 42.86 161.21 42.98 161.23 43.11 161.25 43.23 161.29 43.36 161.33 43.48 161.36 43.6 161.42 43.72 161.46 43.85 161.49 43.97 161.52 44.1 161.55 44.22 161.59 44.34 161.65 44.46 161.68 44.59 161.73 44.71 161.77 44.83 161.78 44.96 161.84 45.08 161.85 45.21 161.92 45.32 161.92 45.46 161.98 45.57 162.04 45.69 162.07 45.82 162.09 45.95 162.14 46.07 162.17 46.19 162.22 46.31 162.25 46.44 162.29 46.56 162.33 46.68 162.37 46.8 162.41 46.93 162.45 47.05 162.47 47.18 162.51 47.3 162.53 47.43 162.59 47.54 162.63 47.67 162.64 47.8 162.71 47.91 162.74 48.04 162.79 48.16 162.8 48.29 162.85 48.41 162.87 48.54 162.93 48.66 162.94 48.79 162.98 48.91 163.04 49.03 163.06 49.16 163.12 49.27 163.13 49.41 163.18 49.53 163.2 49.66 163.24 49.78 163.3 49.9 163.32 50.03 163.37 50.15 163.41 50.27 163.46 50.39 163.47 50.52 163.51 50.65 163.55 50.77 163.58 50.9 163.61 51.02 163.69 51.14 163.7 51.27 163.74 51.39 163.79 51.51 163.8 51.65 163.87 51.76 163.91 51.89 163.96 52.01 163.93 52.03 163.99 52.13 164.08 52.17 164.18 52.19 164.31 52.22 164.44 52.21 164.58 52.21 164.71 52.22 164.84 52.22 164.97 52.2 165.1 52.23 165.23 52.2 165.36 52.23 165.49 52.21 165.63 52.21 165.76 52.21 165.89 52.19 166.02 52.2 166.15 52.21 166.29 52.23 166.42 52.22 166.55 52.2 166.68 52.2 166.81 52.19 166.95 52.23 167.08 52.2 167.19 52.2 167.28 52.12 167.33 52.03 167.36 51.9 167.41 51.78 167.42 51.65 167.45 51.53 167.5 51.41 167.54 51.29 167.56 51.16 167.59 51.03 167.65 50.91 167.66 50.78 167.72 50.67 167.76 50.54 167.79 50.42 167.8 50.29 167.86 50.17 167.9 50.05 167.94 49.92 167.96 49.8 167.99 49.67 168.04 49.55 168.05 49.42 168.11 49.3 168.15 49.18 168.19 49.06 168.22 48.93 168.23 48.8 168.27 48.68 168.33 48.56 168.36 48.44 168.4 48.32 168.42 48.19 168.45 48.06 168.47 47.94 168.52 47.81 168.56 47.69 168.58 47.56 168.65 47.45 168.66 47.32 168.7 47.2 168.75 47.08 168.77 46.95 168.8 46.82 168.85 46.7 168.88 46.57 168.92 46.45 168.95 46.33 168.99 46.21 169.02 46.08 169.04 45.95 169.08 45.83 169.11 45.7 169.17 45.59 169.19 45.46 169.25 45.34 169.27 45.21 169.31 45.09 169.35 44.97 169.37 44.84 169.42 44.72 169.44 44.59 169.48 44.47 169.49 44.34 169.53 44.22 169.59 44.1 169.63 43.98 169.65 43.85 169.67 43.72 169.71 43.6 169.74 43.47 169.79 43.36 169.82 43.23 169.87 43.11 169.9 42.98 169.93 42.86 169.97 42.74 170.01 42.61 170.02 42.48 170.08 42.37 170.1 42.24 170.14 42.12 170.19 41.99 170.22 41.87 170.23 41.74 170.29 41.62 170.31 41.5 170.38 41.38 170.39 41.25 170.44 41.13 170.45 40.99 170.5 40.87 170.54 40.75 170.55 40.62 170.6 40.5 170.65 40.38 170.68 40.26 170.73 40.13 170.76 40.01 170.77 39.88 170.82 39.76 170.85 39.63 170.9 39.51 170.94 39.39 170.94 39.25 171.01 39.14 171.04 39.01 171.05 38.88 171.12 38.76 171.13 38.63 171.16 38.51 171.19 38.38 171.22 38.26 171.29 38.14 171.3 38.01 171.33 37.88 171.39 37.77 171.4 37.63 171.47 37.52 171.5 37.39 171.52 37.27 171.57 37.14 171.58 37.01 171.62 36.89 171.68 36.77 171.7 36.64 171.75 36.52 171.76 36.38 171.8 36.26 171.86 36.14 171.85 36 171.78 35.89 171.67 35.82"/><polygon class="cls-3" points="191.62 39.37 191.57 39.25 191.51 39.13 191.44 39.02 191.38 38.91 191.31 38.8 191.24 38.7 191.17 38.58 191.08 38.49 191.01 38.38 190.94 38.27 190.85 38.18 190.76 38.08 190.7 37.97 190.6 37.88 190.53 37.77 190.43 37.68 190.34 37.6 190.25 37.5 190.15 37.41 190.08 37.3 189.98 37.22 189.87 37.15 189.77 37.06 189.69 36.96 189.58 36.89 189.49 36.8 189.39 36.72 189.28 36.65 189.17 36.58 189.06 36.51 188.96 36.42 188.84 36.37 188.74 36.28 188.63 36.22 188.51 36.17 188.39 36.12 188.29 36.04 188.17 35.99 188.06 35.91 187.93 35.88 187.81 35.83 187.7 35.76 187.58 35.71 187.46 35.66 187.34 35.63 187.21 35.59 187.1 35.54 186.97 35.53 186.84 35.49 186.73 35.43 186.6 35.4 186.48 35.41 186.36 35.36 186.23 35.36 186.11 35.33 185.98 35.32 185.86 35.28 185.73 35.29 185.61 35.25 185.48 35.26 185.36 35.24 185.23 35.25 185.11 35.24 184.98 35.23 184.86 35.25 184.73 35.23 184.6 35.25 184.47 35.23 184.34 35.25 184.21 35.27 184.09 35.27 183.96 35.28 183.83 35.3 183.7 35.32 183.58 35.33 183.45 35.36 183.32 35.35 183.19 35.38 183.07 35.41 182.94 35.45 182.82 35.47 182.69 35.51 182.57 35.54 182.44 35.56 182.32 35.6 182.2 35.65 182.08 35.69 181.95 35.71 181.84 35.77 181.71 35.81 181.58 35.84 181.47 35.89 181.36 35.96 181.24 36.01 181.11 36.04 181 36.11 180.88 36.15 180.77 36.22 180.65 36.27 180.55 36.35 180.42 36.39 180.32 36.47 180.2 36.52 180.09 36.59 179.99 36.67 179.88 36.73 179.76 36.8 179.66 36.87 179.56 36.96 179.45 37.03 179.35 37.11 179.26 37.2 179.15 37.27 179.06 37.36 178.96 37.45 178.86 37.53 178.77 37.62 178.69 37.72 178.6 37.82 178.52 37.92 178.41 38 178.35 38.11 178.26 38.21 178.16 38.29 178.1 38.41 178.03 38.51 177.95 38.62 177.87 38.72 177.78 38.81 177.71 38.92 177.66 39.04 177.58 39.15 177.53 39.26 177.45 39.37 177.37 39.47 177.33 39.6 177.27 39.71 177.2 39.82 177.17 39.95 177.11 40.06 177.05 40.18 176.99 40.29 176.95 40.42 176.9 40.53 176.85 40.65 176.82 40.78 176.78 40.9 176.72 41.02 176.71 41.15 176.67 41.27 176.63 41.39 176.58 41.51 176.54 41.64 176.52 41.77 176.5 41.89 176.48 42.02 176.45 42.15 176.43 42.27 176.42 42.4 176.39 42.53 176.39 42.66 176.38 42.79 176.34 42.91 176.35 43.04 176.35 43.17 176.33 43.3 176.32 43.43 176.33 43.56 176.31 43.69 176.34 43.82 176.35 43.95 176.32 44.08 176.33 44.2 176.36 44.33 176.35 44.46 176.36 44.59 176.4 44.72 176.41 44.85 176.42 44.97 176.45 45.1 176.49 45.22 176.49 45.35 176.51 45.48 176.57 45.6 176.59 45.73 176.61 45.86 176.64 45.98 176.69 46.1 176.72 46.23 176.75 46.35 176.8 46.47 176.84 46.59 176.91 46.71 176.93 46.84 177 46.95 177.05 47.07 177.1 47.19 177.14 47.31 177.21 47.42 177.28 47.53 177.34 47.64 177.38 47.77 177.45 47.88 177.51 47.99 177.58 48.1 177.67 48.2 177.72 48.32 177.81 48.42 177.89 48.52 177.95 48.64 178.03 48.74 178.12 48.84 178.21 48.94 178.28 49.05 178.36 49.15 178.44 49.26 178.52 49.35 178.62 49.44 178.7 49.54 178.8 49.63 178.89 49.72 178.99 49.81 179.1 49.89 179.19 49.97 179.28 50.08 179.37 50.17 179.48 50.24 179.58 50.32 179.68 50.41 179.8 50.47 179.9 50.55 180.01 50.61 180.11 50.7 180.22 50.77 180.33 50.84 180.46 50.89 180.56 50.97 180.68 51.01 180.8 51.08 180.91 51.13 181.03 51.18 181.14 51.26 181.26 51.31 181.38 51.37 181.5 51.42 181.63 51.45 181.75 51.5 181.88 51.52 181.99 51.58 182.12 51.62 182.24 51.66 182.37 51.7 182.5 51.72 182.62 51.75 182.75 51.79 182.87 51.82 183 51.85 183.13 51.87 183.26 51.89 183.39 51.9 183.52 51.93 183.65 51.94 183.77 51.97 183.91 51.96 184.04 51.97 184.16 52.01 184.29 52 184.42 52.01 184.56 52.01 184.69 52.03 184.82 52.04 184.95 52.02 185.08 52.04 185.2 52.04 185.33 52.01 185.46 52.02 185.58 52.03 185.71 52.01 185.83 52 185.96 51.99 186.09 52 186.21 51.98 186.34 51.98 186.46 51.97 186.59 51.94 186.72 51.94 186.84 51.92 186.97 51.89 187.09 51.87 187.22 51.85 187.34 51.81 187.47 51.8 187.59 51.74 187.72 51.73 187.84 51.67 187.97 51.66 188.08 51.6 188.21 51.57 188.33 51.54 188.45 51.5 188.56 51.43 188.69 51.4 188.81 51.35 188.93 51.32 189.05 51.27 189.17 51.21 189.28 51.16 189.4 51.11 189.51 51.05 189.63 50.99 189.74 50.93 189.85 50.86 189.97 50.81 190.09 50.75 190.19 50.68 190.3 50.6 190.42 50.56 190.52 50.47 190.64 50.43 190.75 50.35 190.85 50.27 190.95 50.2 191.07 50.14 191.17 50.05 191.27 49.98 191.37 49.89 191.47 49.81 191.57 49.73 191.66 49.64 191.78 49.58 191.87 49.48 191.97 49.4 192.07 49.32 192.15 49.21 192.22 49.14 192.24 49.04 192.24 48.94 192.17 48.85 192.07 48.78 191.98 48.68 191.88 48.59 191.81 48.48 191.72 48.39 191.63 48.29 191.53 48.2 191.44 48.11 191.34 48.02 191.24 47.95 191.16 47.84 191.05 47.76 190.96 47.66 190.88 47.56 190.78 47.48 190.68 47.39 190.59 47.29 190.5 47.2 190.41 47.11 190.3 47.03 190.17 47.03 190.07 47.1 189.96 47.17 189.86 47.26 189.77 47.35 189.66 47.41 189.56 47.49 189.47 47.59 189.36 47.66 189.26 47.74 189.15 47.81 189.04 47.87 188.94 47.95 188.83 48.02 188.71 48.07 188.61 48.15 188.5 48.22 188.38 48.26 188.27 48.33 188.15 48.39 188.03 48.42 187.92 48.49 187.8 48.56 187.68 48.59 187.56 48.63 187.44 48.69 187.33 48.75 187.2 48.78 187.08 48.8 186.96 48.85 186.84 48.91 186.72 48.93 186.59 48.95 186.47 48.99 186.34 49.01 186.22 49.02 186.09 49.03 185.96 49.06 185.83 49.08 185.7 49.06 185.57 49.07 185.44 49.07 185.31 49.1 185.18 49.09 185.05 49.09 184.92 49.1 184.79 49.09 184.66 49.1 184.53 49.06 184.4 49.05 184.27 49.07 184.15 49.03 184.02 49.03 183.89 49 183.76 48.98 183.63 48.97 183.51 48.94 183.38 48.91 183.25 48.89 183.13 48.86 183.01 48.81 182.88 48.77 182.77 48.72 182.64 48.69 182.53 48.62 182.41 48.57 182.29 48.53 182.16 48.48 182.05 48.42 181.95 48.33 181.84 48.27 181.72 48.22 181.62 48.14 181.51 48.06 181.41 47.99 181.32 47.89 181.23 47.8 181.12 47.73 181.03 47.64 180.96 47.53 180.86 47.45 180.77 47.36 180.68 47.26 180.62 47.14 180.52 47.06 180.46 46.94 180.38 46.84 180.3 46.74 180.23 46.63 180.18 46.51 180.12 46.39 180.05 46.29 179.97 46.18 179.93 46.06 179.86 45.95 179.81 45.83 179.76 45.71 179.71 45.59 179.64 45.48 179.62 45.35 179.58 45.22 179.52 45.11 179.49 44.98 179.45 44.86 179.43 44.73 179.4 44.6 179.38 44.47 179.37 44.34 179.35 44.22 179.34 44.09 179.31 43.96 179.29 43.83 179.3 43.7 179.3 43.57 179.3 43.44 179.29 43.31 179.3 43.18 179.32 43.06 179.34 42.93 179.36 42.8 179.36 42.67 179.4 42.54 179.41 42.41 179.46 42.29 179.5 42.17 179.53 42.04 179.55 41.92 179.61 41.8 179.64 41.67 179.69 41.55 179.72 41.43 179.79 41.32 179.83 41.19 179.9 41.08 179.96 40.96 180.02 40.85 180.08 40.73 180.17 40.64 180.22 40.52 180.3 40.41 180.39 40.32 180.45 40.2 180.54 40.11 180.63 40.02 180.72 39.93 180.81 39.84 180.89 39.73 181 39.66 181.09 39.56 181.18 39.47 181.29 39.4 181.39 39.32 181.5 39.25 181.59 39.15 181.7 39.09 181.81 39.02 181.93 38.97 182.04 38.89 182.16 38.85 182.27 38.79 182.39 38.74 182.51 38.69 182.62 38.61 182.74 38.57 182.87 38.55 182.98 38.48 183.11 38.46 183.23 38.42 183.36 38.39 183.48 38.36 183.6 38.3 183.73 38.27 183.86 38.28 183.98 38.25 184.11 38.22 184.24 38.22 184.36 38.19 184.49 38.17 184.62 38.19 184.75 38.16 184.88 38.18 185.01 38.19 185.15 38.19 185.28 38.2 185.41 38.22 185.54 38.21 185.68 38.22 185.81 38.26 185.94 38.28 186.07 38.31 186.19 38.34 186.31 38.38 186.44 38.42 186.55 38.48 186.67 38.54 186.78 38.59 186.91 38.62 187.02 38.7 187.12 38.77 187.23 38.83 187.35 38.89 187.45 38.97 187.57 39.03 187.67 39.1 187.76 39.2 187.85 39.28 187.95 39.37 188.06 39.43 188.15 39.53 188.23 39.63 188.34 39.71 188.4 39.82 188.49 39.91 188.58 40 188.66 40.1 188.73 40.21 188.81 40.31 188.88 40.42 188.94 40.53 189 40.65 189.08 40.75 189.14 40.86 189.17 40.98 189.21 41.11 189.28 41.21 189.31 41.34 189.35 41.45 189.39 41.57 189.42 41.69 189.45 41.82 189.46 41.94 189.48 42.06 189.36 42.07 189.23 42.06 189.1 42.06 188.97 42.05 188.84 42.08 188.71 42.06 188.58 42.07 188.45 42.06 188.32 42.08 188.19 42.07 188.06 42.06 187.93 42.06 187.8 42.06 187.67 42.08 187.54 42.05 187.41 42.05 187.28 42.05 187.15 42.06 187.02 42.05 186.89 42.05 186.76 42.07 186.63 42.06 186.49 42.06 186.36 42.08 186.23 42.06 186.1 42.06 185.97 42.08 185.84 42.06 185.71 42.07 185.58 42.06 185.45 42.07 185.32 42.05 185.19 42.05 185.06 42.06 184.93 42.07 184.8 42.07 184.67 42.06 184.54 42.05 184.41 42.05 184.28 42.06 184.15 42.05 184.01 42.07 183.88 42.06 183.75 42.08 183.62 42.06 183.49 42.08 183.36 42.07 183.23 42.05 183.1 42.07 182.96 42.05 182.83 42.06 182.7 42.06 182.57 42.07 182.44 42.1 182.36 42.2 182.31 42.32 182.3 42.45 182.33 42.58 182.31 42.71 182.31 42.84 182.32 42.97 182.32 43.1 182.31 43.23 182.32 43.36 182.31 43.49 182.3 43.63 182.31 43.76 182.32 43.89 182.33 44.02 182.31 44.15 182.32 44.28 182.32 44.41 182.3 44.55 182.33 44.68 182.31 44.81 182.35 44.94 182.44 45.04 182.57 45.07 182.7 45.06 182.83 45.07 182.96 45.07 183.09 45.07 183.22 45.08 183.35 45.06 183.48 45.06 183.61 45.06 183.74 45.06 183.86 45.06 183.99 45.06 184.12 45.06 184.25 45.06 184.38 45.08 184.51 45.07 184.64 45.06 184.77 45.06 184.9 45.05 185.03 45.06 185.16 45.05 185.29 45.06 185.42 45.07 185.54 45.07 185.67 45.07 185.8 45.06 185.93 45.06 186.06 45.05 186.19 45.06 186.32 45.07 186.45 45.05 186.58 45.06 186.71 45.06 186.84 45.06 186.97 45.08 187.1 45.07 187.23 45.06 187.36 45.07 187.49 45.06 187.61 45.08 187.74 45.08 187.87 45.08 188 45.06 188.13 45.07 188.26 45.05 188.39 45.08 188.52 45.05 188.65 45.06 188.78 45.08 188.91 45.06 189.04 45.07 189.17 45.07 189.3 45.06 189.43 45.05 189.56 45.07 189.69 45.07 189.82 45.06 189.95 45.06 190.08 45.06 190.21 45.07 190.34 45.07 190.47 45.07 190.6 45.08 190.73 45.05 190.86 45.07 190.99 45.07 191.12 45.06 191.25 45.08 191.38 45.08 191.51 45.07 191.64 45.08 191.77 45.08 191.9 45.07 192.04 45.07 192.17 45.07 192.3 45.07 192.42 45.03 192.53 44.95 192.56 44.82 192.57 44.69 192.56 44.55 192.58 44.41 192.57 44.28 192.57 44.14 192.58 44 192.6 43.87 192.59 43.73 192.59 43.59 192.58 43.46 192.59 43.34 192.6 43.21 192.59 43.08 192.58 42.95 192.6 42.82 192.57 42.69 192.58 42.56 192.57 42.44 192.55 42.31 192.54 42.18 192.5 42.06 192.48 41.93 192.45 41.8 192.46 41.67 192.43 41.54 192.4 41.42 192.38 41.29 192.35 41.17 192.32 41.04 192.27 40.92 192.24 40.79 192.18 40.68 192.17 40.55 192.11 40.43 192.06 40.31 192.02 40.18 191.97 40.07 191.92 39.94 191.85 39.84 191.82 39.71 191.75 39.6 191.69 39.48 191.62 39.37"/><polygon class="cls-3" points="204.38 35.39 204.27 35.4 204.17 35.46 204.1 35.55 204.11 35.66 204.08 35.79 204.13 35.92 204.11 36.05 204.1 36.18 204.08 36.32 204.08 36.45 204.08 36.58 204.12 36.71 204.09 36.84 204.12 36.97 204.11 37.1 204.08 37.24 204.08 37.37 204.12 37.5 204.11 37.63 204.12 37.76 204.11 37.89 204.08 38.03 204.12 38.16 204.13 38.28 204.21 38.38 204.33 38.43 204.46 38.41 204.6 38.42 204.72 38.45 204.85 38.47 204.98 38.51 205.11 38.52 205.24 38.53 205.37 38.53 205.5 38.57 205.63 38.59 205.76 38.62 205.89 38.61 206.01 38.66 206.14 38.69 206.26 38.73 206.4 38.74 206.52 38.77 206.64 38.83 206.77 38.85 206.9 38.88 207.01 38.96 207.13 39 207.27 39.01 207.38 39.09 207.5 39.14 207.63 39.18 207.74 39.24 207.86 39.29 207.98 39.34 208.07 39.45 208.21 39.48 208.29 39.59 208.4 39.65 208.53 39.71 208.61 39.81 208.71 39.89 208.82 39.96 208.91 40.06 208.99 40.16 209.07 40.27 209.15 40.37 209.22 40.48 209.31 40.58 209.36 40.7 209.41 40.82 209.5 40.92 209.52 41.05 209.59 41.16 209.62 41.29 209.68 41.41 209.72 41.53 209.74 41.66 209.78 41.79 209.78 41.92 209.82 42.04 209.86 42.17 209.83 42.3 209.85 42.43 209.87 42.56 209.87 42.69 209.9 42.82 209.91 42.95 209.9 43.08 209.9 43.21 209.89 43.34 209.9 43.47 209.9 43.6 209.87 43.73 209.9 43.86 209.85 43.99 209.87 44.13 209.82 44.25 209.81 44.38 209.82 44.52 209.79 44.64 209.74 44.77 209.75 44.9 209.69 45.02 209.67 45.15 209.62 45.28 209.61 45.41 209.52 45.52 209.49 45.65 209.44 45.76 209.42 45.9 209.37 46.02 209.29 46.12 209.25 46.25 209.17 46.35 209.09 46.46 209.03 46.57 208.98 46.7 208.89 46.79 208.8 46.89 208.73 47 208.64 47.09 208.58 47.21 208.48 47.3 208.39 47.4 208.29 47.47 208.18 47.55 208.08 47.63 208 47.74 207.9 47.83 207.77 47.88 207.68 47.96 207.57 48.04 207.44 48.08 207.35 48.18 207.22 48.21 207.12 48.3 206.99 48.33 206.87 48.39 206.75 48.44 206.63 48.49 206.53 48.58 206.39 48.58 206.28 48.66 206.15 48.69 206.03 48.75 205.9 48.74 205.77 48.78 205.65 48.81 205.52 48.84 205.4 48.89 205.27 48.91 205.14 48.94 205.01 48.96 204.88 48.96 204.76 49 204.63 48.99 204.49 48.98 204.37 49.01 204.24 49.02 204.11 49 203.98 49.02 203.85 49.04 203.73 49.03 203.6 49 203.47 49.03 203.34 49.01 203.21 48.99 203.08 49.03 202.95 48.99 202.82 49.02 202.69 49.01 202.56 49.02 202.44 49.01 202.45 48.88 202.41 48.76 202.44 48.63 202.41 48.5 202.44 48.37 202.46 48.24 202.44 48.11 202.42 47.98 202.44 47.85 202.44 47.73 202.45 47.6 202.42 47.47 202.41 47.34 202.41 47.21 202.42 47.08 202.41 46.95 202.41 46.82 202.43 46.69 202.43 46.56 202.43 46.43 202.41 46.3 202.41 46.18 202.44 46.05 202.42 45.92 202.45 45.79 202.41 45.66 202.41 45.53 202.43 45.4 202.41 45.27 202.43 45.15 202.45 45.02 202.43 44.89 202.43 44.76 202.44 44.63 202.44 44.5 202.42 44.37 202.45 44.25 202.44 44.12 202.46 43.99 202.41 43.86 202.44 43.73 202.45 43.6 202.43 43.47 202.43 43.34 202.44 43.22 202.42 43.09 202.44 42.96 202.42 42.83 202.41 42.7 202.42 42.57 202.46 42.44 202.43 42.31 202.43 42.18 202.45 42.05 202.43 41.92 202.44 41.79 202.46 41.66 202.43 41.54 202.41 41.41 202.44 41.28 202.42 41.15 202.45 41.02 202.43 40.89 202.41 40.76 202.42 40.63 202.42 40.5 202.44 40.37 202.45 40.25 202.41 40.12 202.43 39.99 202.41 39.86 202.45 39.73 202.41 39.6 202.42 39.47 202.44 39.34 202.44 39.21 202.43 39.08 202.44 38.95 202.43 38.83 202.43 38.7 202.43 38.57 202.44 38.44 202.45 38.31 202.45 38.18 202.42 38.05 202.41 37.92 202.44 37.79 202.45 37.66 202.44 37.53 202.42 37.4 202.43 37.27 202.44 37.14 202.42 37.02 202.42 36.89 202.46 36.76 202.41 36.63 202.41 36.5 202.42 36.37 202.43 36.24 202.45 36.11 202.42 35.98 202.41 35.85 202.44 35.72 202.41 35.59 202.43 35.46 202.43 35.33 202.41 35.21 202.44 35.08 202.44 34.95 202.42 34.82 202.41 34.69 202.46 34.56 202.41 34.43 202.42 34.3 202.43 34.17 202.44 34.04 202.41 33.91 202.44 33.78 202.42 33.66 202.42 33.53 202.45 33.4 202.44 33.27 202.44 33.14 202.43 33.01 202.46 32.88 202.43 32.75 202.45 32.62 202.41 32.49 202.42 32.36 202.43 32.23 202.42 32.1 202.42 31.98 202.41 31.85 202.45 31.72 202.43 31.59 202.41 31.46 202.44 31.33 202.45 31.2 202.43 31.07 202.42 30.94 202.43 30.81 202.44 30.68 202.42 30.55 202.44 30.42 202.46 30.29 202.43 30.16 202.41 30.03 202.43 29.9 202.45 29.77 202.45 29.64 202.45 29.51 202.42 29.38 202.45 29.25 202.44 29.12 202.45 28.99 202.46 28.86 202.46 28.73 202.46 28.6 202.43 28.47 202.43 28.34 202.46 28.21 202.44 28.08 202.44 27.95 202.41 27.82 202.45 27.69 202.43 27.56 202.44 27.43 202.42 27.3 202.42 27.17 202.42 27.03 202.31 26.93 202.18 26.92 202.05 26.92 201.93 26.91 201.8 26.92 201.67 26.91 201.55 26.93 201.42 26.93 201.29 26.91 201.17 26.92 201.04 26.91 200.91 26.9 200.79 26.9 200.66 26.92 200.53 26.92 200.41 26.91 200.28 26.89 200.15 26.91 200.02 26.9 199.9 26.92 199.77 26.92 199.63 26.93 199.53 27.03 199.54 27.17 199.5 27.3 199.52 27.42 199.52 27.55 199.5 27.68 199.53 27.81 199.53 27.94 199.51 28.07 199.52 28.19 199.5 28.32 199.51 28.45 199.51 28.58 199.5 28.71 199.52 28.84 199.5 28.96 199.53 29.09 199.53 29.22 199.54 29.35 199.51 29.48 199.51 29.61 199.49 29.74 199.52 29.86 199.5 29.99 199.49 30.12 199.5 30.25 199.5 30.38 199.51 30.51 199.52 30.64 199.51 30.77 199.52 30.9 199.49 31.02 199.53 31.15 199.49 31.28 199.5 31.41 199.49 31.54 199.49 31.67 199.53 31.8 199.51 31.93 199.49 32.06 199.52 32.19 199.49 32.32 199.49 32.45 199.52 32.58 199.53 32.7 199.53 32.83 199.5 32.96 199.53 33.09 199.5 33.22 199.5 33.35 199.54 33.48 199.53 33.61 199.5 33.74 199.53 33.86 199.5 33.99 199.54 34.12 199.5 34.25 199.52 34.38 199.52 34.51 199.51 34.64 199.53 34.77 199.49 34.89 199.51 35.02 199.5 35.15 199.5 35.28 199.49 35.41 199.51 35.54 199.5 35.67 199.51 35.8 199.5 35.93 199.51 36.06 199.49 36.18 199.49 36.31 199.53 36.44 199.52 36.57 199.5 36.7 199.52 36.83 199.52 36.96 199.49 37.09 199.5 37.22 199.54 37.35 199.53 37.48 199.52 37.61 199.51 37.74 199.49 37.87 199.51 38 199.5 38.12 199.52 38.25 199.52 38.38 199.53 38.51 199.5 38.64 199.5 38.77 199.53 38.9 199.5 39.03 199.5 39.16 199.53 39.29 199.53 39.42 199.5 39.55 199.5 39.67 199.5 39.8 199.53 39.93 199.52 40.06 199.51 40.19 199.51 40.32 199.53 40.45 199.5 40.58 199.5 40.71 199.53 40.84 199.53 40.97 199.5 41.1 199.5 41.23 199.52 41.36 199.5 41.49 199.51 41.62 199.53 41.75 199.5 41.87 199.54 42 199.52 42.13 199.51 42.26 199.49 42.39 199.53 42.52 199.52 42.65 199.5 42.78 199.5 42.91 199.51 43.04 199.5 43.17 199.51 43.3 199.53 43.43 199.53 43.56 199.52 43.69 199.53 43.81 199.5 43.94 199.51 44.07 199.51 44.2 199.51 44.33 199.49 44.46 199.5 44.59 199.5 44.72 199.5 44.85 199.52 44.98 199.52 45.11 199.49 45.24 199.53 45.37 199.49 45.5 199.53 45.62 199.53 45.75 199.54 45.88 199.5 46.01 199.5 46.14 199.5 46.27 199.52 46.4 199.49 46.53 199.5 46.66 199.53 46.79 199.52 46.92 199.5 47.05 199.52 47.18 199.5 47.31 199.51 47.44 199.53 47.57 199.5 47.7 199.53 47.83 199.54 47.96 199.51 48.09 199.5 48.22 199.51 48.35 199.49 48.48 199.52 48.61 199.54 48.74 199.5 48.87 199.51 49 199.51 49.13 199.5 49.26 199.54 49.39 199.49 49.52 199.53 49.64 199.52 49.77 199.51 49.91 199.5 50.04 199.51 50.17 199.5 50.3 199.52 50.43 199.49 50.56 199.5 50.69 199.49 50.82 199.51 50.95 199.5 51.08 199.54 51.21 199.53 51.34 199.5 51.47 199.53 51.6 199.5 51.73 199.53 51.87 199.64 51.95 199.77 52 199.9 52.01 200.02 51.97 200.15 51.99 200.28 51.99 200.4 51.96 200.53 51.98 200.66 52.01 200.79 52 200.91 52 201.04 52 201.17 51.97 201.3 52.01 201.43 51.97 201.55 52 201.68 51.99 201.81 52 201.94 51.98 202.06 51.99 202.19 51.98 202.32 51.99 202.44 51.99 202.57 51.99 202.7 51.97 202.83 52.01 202.96 52.01 203.08 51.98 203.21 51.98 203.34 51.98 203.47 52.01 203.6 51.98 203.72 52.01 203.85 51.98 203.98 52 204.11 52 204.24 52.01 204.37 52.01 204.5 51.96 204.63 51.97 204.75 51.95 204.88 51.98 205.01 51.97 205.13 51.91 205.27 51.93 205.39 51.92 205.52 51.88 205.64 51.87 205.77 51.83 205.89 51.8 206.03 51.82 206.14 51.75 206.27 51.74 206.4 51.71 206.52 51.68 206.64 51.63 206.77 51.6 206.89 51.57 207.02 51.54 207.13 51.48 207.26 51.46 207.37 51.39 207.5 51.36 207.63 51.34 207.74 51.27 207.85 51.21 207.98 51.18 208.09 51.1 208.21 51.07 208.34 51.03 208.45 50.96 208.57 50.92 208.66 50.82 208.79 50.77 208.89 50.69 209 50.63 209.12 50.57 209.24 50.52 209.34 50.44 209.43 50.35 209.56 50.31 209.64 50.21 209.76 50.14 209.85 50.05 209.95 49.97 210.07 49.91 210.16 49.81 210.24 49.72 210.36 49.65 210.46 49.57 210.52 49.45 210.62 49.37 210.71 49.27 210.8 49.18 210.89 49.09 210.96 48.98 211.04 48.88 211.13 48.79 211.2 48.68 211.28 48.58 211.39 48.49 211.45 48.38 211.52 48.27 211.58 48.16 211.64 48.04 211.73 47.95 211.76 47.82 211.83 47.71 211.92 47.61 211.96 47.48 212.03 47.37 212.06 47.25 212.14 47.14 212.16 47.01 212.24 46.9 212.29 46.78 212.34 46.66 212.38 46.54 212.41 46.41 212.43 46.29 212.48 46.17 212.49 46.04 212.57 45.92 212.6 45.8 212.62 45.67 212.66 45.55 212.66 45.41 212.7 45.29 212.69 45.16 212.72 45.03 212.74 44.9 212.75 44.77 212.8 44.65 212.83 44.52 212.81 44.39 212.81 44.26 212.85 44.13 212.83 44 212.88 43.87 212.88 43.74 212.86 43.61 212.88 43.48 212.87 43.35 212.87 43.23 212.89 43.1 212.86 42.97 212.9 42.84 212.89 42.71 212.86 42.58 212.84 42.45 212.83 42.32 212.81 42.2 212.8 42.07 212.82 41.94 212.76 41.81 212.75 41.69 212.75 41.55 212.71 41.43 212.7 41.3 212.65 41.18 212.62 41.05 212.62 40.92 212.56 40.8 212.51 40.68 212.51 40.55 212.46 40.43 212.42 40.3 212.37 40.18 212.3 40.07 212.25 39.96 212.21 39.83 212.16 39.71 212.08 39.61 212.05 39.48 212 39.36 211.92 39.26 211.85 39.15 211.79 39.03 211.71 38.93 211.66 38.81 211.58 38.71 211.5 38.6 211.39 38.52 211.32 38.41 211.25 38.3 211.16 38.21 211.07 38.12 210.98 38.03 210.9 37.93 210.78 37.86 210.71 37.75 210.62 37.65 210.52 37.57 210.42 37.49 210.3 37.44 210.22 37.33 210.09 37.28 210 37.19 209.9 37.1 209.78 37.05 209.67 36.98 209.56 36.91 209.45 36.85 209.34 36.77 209.22 36.73 209.1 36.68 208.99 36.61 208.87 36.56 208.76 36.5 208.65 36.42 208.53 36.39 208.42 36.32 208.3 36.26 208.17 36.25 208.04 36.2 207.93 36.13 207.8 36.13 207.68 36.08 207.56 36.03 207.44 35.98 207.31 35.96 207.18 35.93 207.06 35.88 206.94 35.84 206.81 35.81 206.68 35.8 206.56 35.77 206.43 35.73 206.31 35.71 206.19 35.65 206.06 35.64 205.93 35.63 205.8 35.59 205.67 35.57 205.55 35.54 205.41 35.55 205.29 35.53 205.16 35.49 205.03 35.5 204.9 35.46 204.77 35.46 204.64 35.46 204.51 35.42 204.38 35.39"/></g></g></g></g></svg>